<?xml version="1.0" encoding="UTF-8"?>
<svg xmlns="http://www.w3.org/2000/svg" width="420.0mm" height="407.7mm" viewBox="0 0 420.0 407.7">
<style>
  text { font-family: Helvetica, Arial, sans-serif; fill: #1d1d1d; }
  .title { font-size: 11px; font-weight: bold; letter-spacing: 0.2px; }
  .sub { font-size: 3.6px; fill: #555; }
  .quote { font-size: 3.4px; fill: #555; font-style: italic; }
  .h { font-size: 3.4px; font-weight: bold; letter-spacing: 0.6px; fill: #1d1d1d; }
  .b { font-size: 3.2px; }
  .bb { font-size: 3.2px; font-weight: bold; }
  .s { font-size: 2.6px; fill: #6b6b6b; }
  .ok { font-size: 3.2px; fill: #2e7d4f; font-weight: bold; }
  .warn { font-size: 3.0px; fill: #a15c00; }
  .cap { font-size: 3.2px; font-weight: bold; text-anchor: middle; letter-spacing: 0.8px; fill: #555; }
  .rule { stroke: #d6d6d6; stroke-width: 0.3; }
  .sw { stroke: #1d1d1d; stroke-width: 0.8; }
  .fl { stroke: #232323; stroke-width: 1.8; stroke-linejoin: round; }
  .fs { fill: none; stroke-width: 1.1; stroke-dasharray: 6 4; }
  .rb { fill: none; stroke-width: 0.9; }
  .ds { fill: none; stroke-width: 6; stroke-linecap: round; }
  .fabric { fill: #f1f4f8; stroke: #8a9bb0; stroke-width: 2; }
  .rib { fill: #f6f1f8; }
  .cut { fill: #fffdf7; stroke: #1d1d1d; stroke-width: 1.4; }
  .stitch { display: none; }
  .mark, .dash, .centre, .fold, .grain, .label, .lbg { display: none; }
  .sheet .sub { display: none; }
</style>
<defs>
</defs>
<!-- Aras: "make a boxy t-shirt, crop it by 3 inches and widen the sleeves" -->
<rect x="0" y="0" width="420.0" height="407.7" fill="#ffffff"/>
<text class="title" x="15.0" y="24.0">White Boxy T-shirt</text>
<text class="sub" x="15.0" y="31.0">ARS-TS-F8DC   ·   size M   ·   oversized fit   ·   jersey</text>
<text class="quote" x="15.0" y="37.0">“make a boxy t-shirt, crop it by 3 inches and widen the sleeves”</text>
<path class="rule" d="M15.0 42.0 L405.0 42.0"/>
<g transform="translate(79.0 143.4) scale(0.1290)">
<path class="fl" fill="#adaca9" d="M-93.0 0.0 L-90.6 1.9 L-88.2 3.8 L-85.6 5.5 L-82.9 7.0 L-80.1 8.5 L-77.2 9.9 L-74.1 11.1 L-71.0 12.3 L-67.7 13.4 L-64.2 14.3 L-60.7 15.2 L-57.0 16.0 L-53.1 16.7 L-49.1 17.3 L-45.0 17.9 L-40.6 18.4 L-36.2 18.8 L-31.5 19.1 L-26.7 19.4 L-21.7 19.6 L-16.6 19.8 L-11.2 19.9 L-5.7 20.0 L0.0 20.0 L0.0 20.0 L5.7 20.0 L11.2 19.9 L16.6 19.8 L21.7 19.6 L26.7 19.4 L31.5 19.1 L36.2 18.8 L40.6 18.4 L45.0 17.9 L49.1 17.3 L53.1 16.7 L57.0 16.0 L60.7 15.2 L64.2 14.3 L67.7 13.4 L71.0 12.3 L74.1 11.1 L77.2 9.9 L80.1 8.5 L82.9 7.0 L85.6 5.5 L88.2 3.8 L90.6 1.9 L93.0 0.0 L93.0 0.0 L92.8 6.5 L92.2 12.9 L91.1 19.1 L89.7 25.3 L87.9 31.2 L85.7 37.0 L83.2 42.6 L80.3 47.9 L77.1 53.1 L73.6 58.1 L69.8 62.7 L65.8 67.2 L61.4 71.3 L56.8 75.2 L52.0 78.8 L46.9 82.0 L41.7 85.0 L36.2 87.5 L30.5 89.8 L24.7 91.6 L18.7 93.1 L12.6 94.1 L6.4 94.8 L0.0 95.0 L0.0 95.0 L-6.4 94.8 L-12.6 94.1 L-18.7 93.1 L-24.7 91.6 L-30.5 89.8 L-36.2 87.5 L-41.7 85.0 L-46.9 82.0 L-52.0 78.8 L-56.8 75.2 L-61.4 71.3 L-65.8 67.2 L-69.8 62.7 L-73.6 58.1 L-77.1 53.1 L-80.3 47.9 L-83.2 42.6 L-85.7 37.0 L-87.9 31.2 L-89.7 25.3 L-91.1 19.1 L-92.2 12.9 L-92.8 6.5 L-93.0 0.0 Z"/>
<path class="fl" fill="#f7f6f2" d="M314.4 40.0 L496.3 145.0 L392.8 324.3 L310.2 314.7 L325.0 285.0 L319.8 284.7 L314.8 283.9 L309.9 282.5 L305.2 280.7 L300.7 278.3 L296.3 275.5 L292.2 272.3 L288.2 268.7 L284.4 264.7 L280.8 260.3 L277.4 255.6 L274.2 250.5 L271.3 245.2 L268.6 239.7 L266.1 233.9 L263.8 227.8 L261.8 221.6 L260.0 215.2 L258.5 208.7 L257.3 202.1 L256.3 195.3 L255.6 188.5 L255.1 181.6 L255.0 174.8 L255.3 168.7 L256.0 162.7 L257.2 156.8 L258.8 151.1 L260.8 145.4 L263.1 139.8 L265.6 134.2 L268.5 128.7 L271.5 123.3 L274.7 117.9 L278.0 112.5 L281.4 107.1 L284.9 101.7 L288.4 96.3 L291.8 90.9 L295.1 85.5 L298.4 80.0 L301.5 74.5 L304.3 69.0 L307.0 63.3 L309.4 57.6 L311.4 51.9 L313.1 46.0 L314.4 40.0 Z"/>
<path class="fs" stroke="#c6c5c2" d="M485.9 139.0 L382.4 318.3"/>
<path class="fl" fill="#f7f6f2" d="M-314.4 40.0 L-496.3 145.0 L-392.8 324.3 L-310.2 314.7 L-325.0 285.0 L-319.8 284.7 L-314.8 283.9 L-309.9 282.5 L-305.2 280.7 L-300.7 278.3 L-296.3 275.5 L-292.2 272.3 L-288.2 268.7 L-284.4 264.7 L-280.8 260.3 L-277.4 255.6 L-274.2 250.5 L-271.3 245.2 L-268.6 239.7 L-266.1 233.9 L-263.8 227.8 L-261.8 221.6 L-260.0 215.2 L-258.5 208.7 L-257.3 202.1 L-256.3 195.3 L-255.6 188.5 L-255.1 181.6 L-255.0 174.8 L-255.3 168.7 L-256.0 162.7 L-257.2 156.8 L-258.8 151.1 L-260.8 145.4 L-263.1 139.8 L-265.6 134.2 L-268.5 128.7 L-271.5 123.3 L-274.7 117.9 L-278.0 112.5 L-281.4 107.1 L-284.9 101.7 L-288.4 96.3 L-291.8 90.9 L-295.1 85.5 L-298.4 80.0 L-301.5 74.5 L-304.3 69.0 L-307.0 63.3 L-309.4 57.6 L-311.4 51.9 L-313.1 46.0 L-314.4 40.0 Z"/>
<path class="fs" stroke="#c6c5c2" d="M-485.9 139.0 L-382.4 318.3"/>
<path class="fl" fill="#f7f6f2" d="M0.0 95.0 L6.4 94.8 L12.6 94.1 L18.7 93.1 L24.7 91.6 L30.5 89.8 L36.2 87.5 L41.7 85.0 L46.9 82.0 L52.0 78.8 L56.8 75.2 L61.4 71.3 L65.8 67.2 L69.8 62.7 L73.6 58.1 L77.1 53.1 L80.3 47.9 L83.2 42.6 L85.7 37.0 L87.9 31.2 L89.7 25.3 L91.1 19.1 L92.2 12.9 L92.8 6.5 L93.0 0.0 L314.4 40.0 L313.1 46.0 L311.4 51.9 L309.4 57.6 L307.0 63.3 L304.3 69.0 L301.5 74.5 L298.4 80.0 L295.1 85.5 L291.8 90.9 L288.4 96.3 L284.9 101.7 L281.4 107.1 L278.0 112.5 L274.7 117.9 L271.5 123.3 L268.5 128.7 L265.6 134.2 L263.1 139.8 L260.8 145.4 L258.8 151.1 L257.2 156.8 L256.0 162.7 L255.3 168.7 L255.0 174.8 L255.1 181.6 L255.6 188.5 L256.3 195.3 L257.3 202.1 L258.5 208.7 L260.0 215.2 L261.8 221.6 L263.8 227.8 L266.1 233.9 L268.6 239.7 L271.3 245.2 L274.2 250.5 L277.4 255.6 L280.8 260.3 L284.4 264.7 L288.2 268.7 L292.2 272.3 L296.3 275.5 L300.7 278.3 L305.2 280.7 L309.9 282.5 L314.8 283.9 L319.8 284.7 L325.0 285.0 L335.0 663.8 L0.0 663.8 L-335.0 663.8 L-325.0 285.0 L-319.8 284.7 L-314.8 283.9 L-309.9 282.5 L-305.2 280.7 L-300.7 278.3 L-296.3 275.5 L-292.2 272.3 L-288.2 268.7 L-284.4 264.7 L-280.8 260.3 L-277.4 255.6 L-274.2 250.5 L-271.3 245.2 L-268.6 239.7 L-266.1 233.9 L-263.8 227.8 L-261.8 221.6 L-260.0 215.2 L-258.5 208.7 L-257.3 202.1 L-256.3 195.3 L-255.6 188.5 L-255.1 181.6 L-255.0 174.8 L-255.3 168.7 L-256.0 162.7 L-257.2 156.8 L-258.8 151.1 L-260.8 145.4 L-263.1 139.8 L-265.6 134.2 L-268.5 128.7 L-271.5 123.3 L-274.7 117.9 L-278.0 112.5 L-281.4 107.1 L-284.9 101.7 L-288.4 96.3 L-291.8 90.9 L-295.1 85.5 L-298.4 80.0 L-301.5 74.5 L-304.3 69.0 L-307.0 63.3 L-309.4 57.6 L-311.4 51.9 L-313.1 46.0 L-314.4 40.0 L-93.0 0.0 L-92.8 6.5 L-92.2 12.9 L-91.1 19.1 L-89.7 25.3 L-87.9 31.2 L-85.7 37.0 L-83.2 42.6 L-80.3 47.9 L-77.1 53.1 L-73.6 58.1 L-69.8 62.7 L-65.8 67.2 L-61.4 71.3 L-56.8 75.2 L-52.0 78.8 L-46.9 82.0 L-41.7 85.0 L-36.2 87.5 L-30.5 89.8 L-24.7 91.6 L-18.7 93.1 L-12.6 94.1 L-6.4 94.8 Z"/>
<path class="fs" stroke="#c6c5c2" d="M0.0 649.8 L-335.0 649.8 L335.0 649.8 L0.0 649.8"/>
<path class="fl" fill="#f7f6f2" d="M-93.0 0.0 L-92.8 6.5 L-92.2 12.9 L-91.1 19.1 L-89.7 25.3 L-87.9 31.2 L-85.7 37.0 L-83.2 42.6 L-80.3 47.9 L-77.1 53.1 L-73.6 58.1 L-69.8 62.7 L-65.8 67.2 L-61.4 71.3 L-56.8 75.2 L-52.0 78.8 L-46.9 82.0 L-41.7 85.0 L-36.2 87.5 L-30.5 89.8 L-24.7 91.6 L-18.7 93.1 L-12.6 94.1 L-6.4 94.8 L0.0 95.0 L0.0 95.0 L6.4 94.8 L12.6 94.1 L18.7 93.1 L24.7 91.6 L30.5 89.8 L36.2 87.5 L41.7 85.0 L46.9 82.0 L52.0 78.8 L56.8 75.2 L61.4 71.3 L65.8 67.2 L69.8 62.7 L73.6 58.1 L77.1 53.1 L80.3 47.9 L83.2 42.6 L85.7 37.0 L87.9 31.2 L89.7 25.3 L91.1 19.1 L92.2 12.9 L92.8 6.5 L93.0 0.0 L78.0 -0.5 L77.8 5.5 L77.3 10.9 L76.4 16.2 L75.2 21.4 L73.7 26.4 L71.8 31.2 L69.7 36.0 L67.3 40.5 L64.6 44.8 L61.7 49.0 L58.5 53.0 L55.0 56.7 L51.4 60.2 L47.5 63.4 L43.5 66.4 L39.2 69.2 L34.8 71.6 L30.3 73.8 L25.5 75.6 L20.7 77.2 L15.7 78.4 L10.6 79.3 L5.3 79.8 L-0.5 80.0 L0.5 80.0 L-5.3 79.8 L-10.6 79.3 L-15.7 78.4 L-20.7 77.2 L-25.5 75.6 L-30.3 73.8 L-34.8 71.6 L-39.2 69.2 L-43.5 66.4 L-47.5 63.4 L-51.4 60.2 L-55.0 56.7 L-58.5 53.0 L-61.7 49.0 L-64.6 44.8 L-67.3 40.5 L-69.7 36.0 L-71.8 31.2 L-73.7 26.4 L-75.2 21.4 L-76.4 16.2 L-77.3 10.9 L-77.8 5.5 L-78.0 -0.5 Z"/>
<path class="fs" stroke="#c6c5c2" d="M-75.0 -0.6 L-74.8 5.3 L-74.3 10.5 L-73.5 15.6 L-72.3 20.6 L-70.8 25.4 L-69.1 30.1 L-67.0 34.6 L-64.7 39.0 L-62.1 43.2 L-59.3 47.2 L-56.2 51.0 L-52.9 54.6 L-49.4 57.9 L-45.7 61.1 L-41.8 64.0 L-37.7 66.6 L-33.5 68.9 L-29.1 71.0 L-24.5 72.8 L-19.9 74.3 L-15.1 75.4 L-10.2 76.3 L-5.1 76.8 L0.6 77.0 L-0.6 77.0 L5.1 76.8 L10.2 76.3 L15.1 75.4 L19.9 74.3 L24.5 72.8 L29.1 71.0 L33.5 68.9 L37.7 66.6 L41.8 64.0 L45.7 61.1 L49.4 57.9 L52.9 54.6 L56.2 51.0 L59.3 47.2 L62.1 43.2 L64.7 39.0 L67.0 34.6 L69.1 30.1 L70.8 25.4 L72.3 20.6 L73.5 15.6 L74.3 10.5 L74.8 5.3 L75.0 -0.6"/>
</g>
<text class="cap" x="79.0" y="236.0">FRONT</text>
<g transform="translate(215.0 143.4) scale(0.1290)">
<path class="fl" fill="#f7f6f2" d="M314.4 40.0 L496.3 145.0 L392.8 324.3 L310.2 314.7 L325.0 285.0 L320.6 284.7 L316.3 283.9 L312.1 282.5 L308.1 280.7 L304.2 278.3 L300.4 275.5 L296.9 272.3 L293.4 268.7 L290.2 264.7 L287.1 260.3 L284.2 255.6 L281.5 250.5 L279.0 245.2 L276.6 239.7 L274.5 233.9 L272.6 227.8 L270.8 221.6 L269.3 215.2 L268.0 208.7 L266.9 202.1 L266.1 195.3 L265.5 188.5 L265.1 181.6 L265.0 174.8 L265.2 168.8 L265.8 162.9 L266.8 157.2 L268.1 151.4 L269.7 145.8 L271.5 140.1 L273.6 134.6 L275.9 129.0 L278.4 123.5 L281.0 118.0 L283.7 112.5 L286.5 107.1 L289.4 101.6 L292.2 96.2 L295.0 90.7 L297.8 85.2 L300.5 79.7 L303.1 74.2 L305.5 68.6 L307.8 63.0 L309.9 57.3 L311.7 51.6 L313.2 45.8 L314.4 40.0 Z"/>
<path class="fs" stroke="#c6c5c2" d="M485.9 139.0 L382.4 318.3"/>
<path class="fl" fill="#f7f6f2" d="M-314.4 40.0 L-496.3 145.0 L-392.8 324.3 L-310.2 314.7 L-325.0 285.0 L-320.6 284.7 L-316.3 283.9 L-312.1 282.5 L-308.1 280.7 L-304.2 278.3 L-300.4 275.5 L-296.9 272.3 L-293.4 268.7 L-290.2 264.7 L-287.1 260.3 L-284.2 255.6 L-281.5 250.5 L-279.0 245.2 L-276.6 239.7 L-274.5 233.9 L-272.6 227.8 L-270.8 221.6 L-269.3 215.2 L-268.0 208.7 L-266.9 202.1 L-266.1 195.3 L-265.5 188.5 L-265.1 181.6 L-265.0 174.8 L-265.2 168.8 L-265.8 162.9 L-266.8 157.2 L-268.1 151.4 L-269.7 145.8 L-271.5 140.1 L-273.6 134.6 L-275.9 129.0 L-278.4 123.5 L-281.0 118.0 L-283.7 112.5 L-286.5 107.1 L-289.4 101.6 L-292.2 96.2 L-295.0 90.7 L-297.8 85.2 L-300.5 79.7 L-303.1 74.2 L-305.5 68.6 L-307.8 63.0 L-309.9 57.3 L-311.7 51.6 L-313.2 45.8 L-314.4 40.0 Z"/>
<path class="fs" stroke="#c6c5c2" d="M-485.9 139.0 L-382.4 318.3"/>
<path class="fl" fill="#f7f6f2" d="M0.0 20.0 L5.7 20.0 L11.2 19.9 L16.6 19.8 L21.7 19.6 L26.7 19.4 L31.5 19.1 L36.2 18.8 L40.6 18.4 L45.0 17.9 L49.1 17.3 L53.1 16.7 L57.0 16.0 L60.7 15.2 L64.2 14.3 L67.7 13.4 L71.0 12.3 L74.1 11.1 L77.2 9.9 L80.1 8.5 L82.9 7.0 L85.6 5.5 L88.2 3.8 L90.6 1.9 L93.0 0.0 L314.4 40.0 L313.2 45.8 L311.7 51.6 L309.9 57.3 L307.8 63.0 L305.5 68.6 L303.1 74.2 L300.5 79.7 L297.8 85.2 L295.0 90.7 L292.2 96.2 L289.4 101.6 L286.5 107.1 L283.7 112.5 L281.0 118.0 L278.4 123.5 L275.9 129.0 L273.6 134.6 L271.5 140.1 L269.7 145.8 L268.1 151.4 L266.8 157.2 L265.8 162.9 L265.2 168.8 L265.0 174.8 L265.1 181.6 L265.5 188.5 L266.1 195.3 L266.9 202.1 L268.0 208.7 L269.3 215.2 L270.8 221.6 L272.6 227.8 L274.5 233.9 L276.6 239.7 L279.0 245.2 L281.5 250.5 L284.2 255.6 L287.1 260.3 L290.2 264.7 L293.4 268.7 L296.9 272.3 L300.4 275.5 L304.2 278.3 L308.1 280.7 L312.1 282.5 L316.3 283.9 L320.6 284.7 L325.0 285.0 L335.0 663.8 L0.0 663.8 L-335.0 663.8 L-325.0 285.0 L-320.6 284.7 L-316.3 283.9 L-312.1 282.5 L-308.1 280.7 L-304.2 278.3 L-300.4 275.5 L-296.9 272.3 L-293.4 268.7 L-290.2 264.7 L-287.1 260.3 L-284.2 255.6 L-281.5 250.5 L-279.0 245.2 L-276.6 239.7 L-274.5 233.9 L-272.6 227.8 L-270.8 221.6 L-269.3 215.2 L-268.0 208.7 L-266.9 202.1 L-266.1 195.3 L-265.5 188.5 L-265.1 181.6 L-265.0 174.8 L-265.2 168.8 L-265.8 162.9 L-266.8 157.2 L-268.1 151.4 L-269.7 145.8 L-271.5 140.1 L-273.6 134.6 L-275.9 129.0 L-278.4 123.5 L-281.0 118.0 L-283.7 112.5 L-286.5 107.1 L-289.4 101.6 L-292.2 96.2 L-295.0 90.7 L-297.8 85.2 L-300.5 79.7 L-303.1 74.2 L-305.5 68.6 L-307.8 63.0 L-309.9 57.3 L-311.7 51.6 L-313.2 45.8 L-314.4 40.0 L-93.0 0.0 L-90.6 1.9 L-88.2 3.8 L-85.6 5.5 L-82.9 7.0 L-80.1 8.5 L-77.2 9.9 L-74.1 11.1 L-71.0 12.3 L-67.7 13.4 L-64.2 14.3 L-60.7 15.2 L-57.0 16.0 L-53.1 16.7 L-49.1 17.3 L-45.0 17.9 L-40.6 18.4 L-36.2 18.8 L-31.5 19.1 L-26.7 19.4 L-21.7 19.6 L-16.6 19.8 L-11.2 19.9 L-5.7 20.0 Z"/>
<path class="fs" stroke="#c6c5c2" d="M0.0 649.8 L-335.0 649.8 L335.0 649.8 L0.0 649.8"/>
<path class="fl" fill="#f7f6f2" d="M-93.0 0.0 L-90.6 1.9 L-88.2 3.8 L-85.6 5.5 L-82.9 7.0 L-80.1 8.5 L-77.2 9.9 L-74.1 11.1 L-71.0 12.3 L-67.7 13.4 L-64.2 14.3 L-60.7 15.2 L-57.0 16.0 L-53.1 16.7 L-49.1 17.3 L-45.0 17.9 L-40.6 18.4 L-36.2 18.8 L-31.5 19.1 L-26.7 19.4 L-21.7 19.6 L-16.6 19.8 L-11.2 19.9 L-5.7 20.0 L0.0 20.0 L0.0 20.0 L5.7 20.0 L11.2 19.9 L16.6 19.8 L21.7 19.6 L26.7 19.4 L31.5 19.1 L36.2 18.8 L40.6 18.4 L45.0 17.9 L49.1 17.3 L53.1 16.7 L57.0 16.0 L60.7 15.2 L64.2 14.3 L67.7 13.4 L71.0 12.3 L74.1 11.1 L77.2 9.9 L80.1 8.5 L82.9 7.0 L85.6 5.5 L88.2 3.8 L90.6 1.9 L93.0 0.0 L83.5 -11.6 L81.4 -9.9 L79.6 -8.6 L77.6 -7.3 L75.6 -6.1 L73.4 -4.9 L71.1 -3.9 L68.7 -2.8 L66.1 -1.9 L63.3 -1.0 L60.4 -0.2 L57.3 0.6 L54.0 1.3 L50.6 1.9 L47.0 2.5 L43.1 3.0 L39.1 3.4 L34.9 3.8 L30.5 4.2 L26.0 4.4 L21.2 4.6 L16.2 4.8 L11.0 4.9 L5.6 5.0 L-0.1 5.0 L0.1 5.0 L-5.6 5.0 L-11.0 4.9 L-16.2 4.8 L-21.2 4.6 L-26.0 4.4 L-30.5 4.2 L-34.9 3.8 L-39.1 3.4 L-43.1 3.0 L-47.0 2.5 L-50.6 1.9 L-54.0 1.3 L-57.3 0.6 L-60.4 -0.2 L-63.3 -1.0 L-66.1 -1.9 L-68.7 -2.8 L-71.1 -3.9 L-73.4 -4.9 L-75.6 -6.1 L-77.6 -7.3 L-79.6 -8.6 L-81.4 -9.9 L-83.5 -11.6 Z"/>
<path class="fs" stroke="#c6c5c2" d="M-81.6 -13.9 L-79.6 -12.3 L-77.9 -11.0 L-76.1 -9.8 L-74.1 -8.7 L-72.1 -7.6 L-69.9 -6.6 L-67.6 -5.6 L-65.1 -4.7 L-62.5 -3.9 L-59.6 -3.1 L-56.6 -2.3 L-53.5 -1.7 L-50.1 -1.0 L-46.5 -0.5 L-42.8 0.0 L-38.8 0.5 L-34.7 0.8 L-30.3 1.2 L-25.8 1.4 L-21.1 1.6 L-16.1 1.8 L-10.9 1.9 L-5.6 2.0 L0.1 2.0 L-0.1 2.0 L5.6 2.0 L10.9 1.9 L16.1 1.8 L21.1 1.6 L25.8 1.4 L30.3 1.2 L34.7 0.8 L38.8 0.5 L42.8 0.0 L46.5 -0.5 L50.1 -1.0 L53.5 -1.7 L56.6 -2.3 L59.6 -3.1 L62.5 -3.9 L65.1 -4.7 L67.6 -5.6 L69.9 -6.6 L72.1 -7.6 L74.1 -8.7 L76.1 -9.8 L77.9 -11.0 L79.6 -12.3 L81.6 -13.9"/>
</g>
<text class="cap" x="215.0" y="236.0">BACK</text>
<text class="h" x="293.0" y="51.0">COLOURWAY</text>
<g transform="translate(293.0 56.0) scale(0.4)"><rect class="sw" x="0" y="0" width="35.0" height="22.5" rx="2" fill="#f7f6f2"/></g>
<text class="bb" x="310.0" y="59.2">BODY</text>
<text class="b" x="310.0" y="62.6">White</text>
<text class="s" x="310.0" y="65.6">default for a t-shirt</text>
<g transform="translate(293.0 69.0) scale(0.4)"><rect class="sw" x="0" y="0" width="35.0" height="22.5" rx="2" fill="#f7f6f2"/></g>
<text class="bb" x="310.0" y="72.2">SLEEVES</text>
<text class="b" x="310.0" y="75.6">White</text>
<text class="s" x="310.0" y="78.6">same as the body</text>
<g transform="translate(293.0 82.0) scale(0.4)"><rect class="sw" x="0" y="0" width="35.0" height="22.5" rx="2" fill="#f7f6f2"/></g>
<text class="bb" x="310.0" y="85.2">COLLAR</text>
<text class="b" x="310.0" y="88.6">White</text>
<text class="s" x="310.0" y="91.6">same as the body</text>
<g transform="translate(293.0 95.0) scale(0.4)"><rect class="sw" x="0" y="0" width="35.0" height="22.5" rx="2" fill="#c6c5c2"/></g>
<text class="bb" x="310.0" y="98.2">THREAD</text>
<text class="b" x="310.0" y="101.6">Light Grey</text>
<text class="s" x="310.0" y="104.6">tonal thread</text>
<text class="h" x="293.0" y="112.0">CONSTRUCTION</text>
<text class="b" x="293.0" y="117.5">sleeve width: bicep only</text>
<text class="s" x="293.0" y="120.7">← “widen the sleeves”</text>
<text class="b" x="293.0" y="124.9">body length: at hem</text>
<text class="s" x="293.0" y="128.1">← “crop it by 3 inches”</text>
<text class="b" x="293.0" y="132.3">body hem: hemmed</text>
<text class="s" x="293.0" y="135.5">← “make a boxy t shirt”</text>
<text class="b" x="293.0" y="139.7">sleeve finish: hemmed</text>
<text class="s" x="293.0" y="142.9">← “make a boxy t shirt”</text>
<text class="b" x="293.0" y="147.1">neck finish: self band</text>
<text class="s" x="293.0" y="150.3">← “make a boxy t shirt”</text>
<text class="ok" x="293.0" y="155.5">✓ 9/9 construction checks passed</text>
<text class="h" x="15.0" y="245.0">BILL OF MATERIALS</text>
<text class="bb" x="15.0" y="250.5">1.00 m</text>
<text class="b" x="37.0" y="250.5">jersey · White, 150 cm wide</text>
<text class="bb" x="15.0" y="255.3">1 spool</text>
<text class="b" x="37.0" y="255.3">polyester thread, Light Grey</text>
<text class="s" x="15.0" y="261.1">seam allowance 10 mm and hems 20 mm included in every piece</text>
<path class="rule" d="M15.0 269.1 L405.0 269.1"/>
<text class="h" x="15.0" y="274.1">CUTTING LAYOUT</text>
<g class="sheet" transform="translate(15.0 282.1) scale(0.11)">
<rect class="fabric" x="0.0" y="0.0" width="1500.0" height="996.5"/>
<!-- back  [block/t-shirt]  "make a boxy t shirt" -->
<g>
<path class="cut" style="fill:#f7f6f2" d="M1042.6 20.7 L1048.2 20.6 L1053.7 20.6 L1058.9 20.5 L1064.0 20.3 L1068.8 20.1 L1073.5 19.8 L1077.9 19.5 L1082.2 19.1 L1086.3 18.6 L1090.3 18.1 L1094.0 17.5 L1097.6 16.9 L1101.0 16.1 L1104.3 15.3 L1107.4 14.4 L1110.3 13.5 L1113.1 12.5 L1115.7 11.4 L1118.2 10.2 L1120.6 9.0 L1122.9 7.6 L1125.0 6.2 L1127.1 4.7 L1132.8 0.0 L1368.9 42.6 L1365.5 58.8 L1363.9 65.1 L1361.9 71.2 L1359.7 77.2 L1357.4 83.2 L1354.8 89.0 L1352.1 94.7 L1349.4 100.4 L1346.5 105.9 L1343.7 111.5 L1340.8 116.9 L1338.0 122.3 L1335.2 127.7 L1332.6 133.1 L1330.1 138.4 L1327.7 143.6 L1325.5 148.9 L1323.6 154.1 L1321.8 159.3 L1320.4 164.5 L1319.2 169.7 L1318.3 174.9 L1317.8 180.2 L1317.6 185.5 L1317.7 191.9 L1318.1 198.4 L1318.6 204.9 L1319.4 211.3 L1320.5 217.6 L1321.7 223.8 L1323.1 229.8 L1324.7 235.6 L1326.5 241.3 L1328.5 246.7 L1330.7 251.8 L1333.0 256.7 L1335.5 261.2 L1338.1 265.4 L1340.8 269.3 L1343.6 272.7 L1346.5 275.8 L1349.4 278.5 L1352.4 280.7 L1355.3 282.5 L1358.3 283.9 L1361.4 284.8 L1364.4 285.4 L1377.3 286.3 L1388.1 694.5 L1042.6 694.5 L697.1 694.5 L707.8 286.3 L720.8 285.4 L723.8 284.8 L726.8 283.9 L729.8 282.5 L732.8 280.7 L735.8 278.5 L738.7 275.8 L741.6 272.7 L744.4 269.3 L747.1 265.4 L749.7 261.2 L752.2 256.7 L754.5 251.8 L756.7 246.7 L758.6 241.3 L760.5 235.6 L762.1 229.8 L763.5 223.8 L764.7 217.6 L765.7 211.3 L766.5 204.9 L767.1 198.4 L767.5 191.9 L767.6 185.5 L767.4 180.2 L766.9 174.9 L766.0 169.7 L764.8 164.5 L763.4 159.3 L761.6 154.1 L759.7 148.9 L757.5 143.6 L755.1 138.4 L752.6 133.1 L749.9 127.7 L747.2 122.3 L744.4 116.9 L741.5 111.5 L738.7 105.9 L735.8 100.4 L733.1 94.7 L730.4 89.0 L727.8 83.2 L725.4 77.2 L723.3 71.2 L721.3 65.1 L719.7 58.8 L716.3 42.6 L952.3 0.0 L958.1 4.7 L960.2 6.2 L962.3 7.6 L964.6 9.0 L967.0 10.2 L969.5 11.4 L972.1 12.5 L974.9 13.5 L977.8 14.4 L980.9 15.3 L984.2 16.1 L987.6 16.9 L991.2 17.5 L994.9 18.1 L998.9 18.6 L1003.0 19.1 L1007.2 19.5 L1011.7 19.8 L1016.4 20.1 L1021.2 20.3 L1026.3 20.5 L1031.5 20.6 L1037.0 20.6 Z"/>
<path class="stitch" d="M1042.6 30.7 L1048.3 30.6 L1053.8 30.6 L1059.2 30.5 L1064.3 30.3 L1069.3 30.1 L1074.1 29.8 L1078.8 29.4 L1083.2 29.0 L1087.6 28.6 L1091.7 28.0 L1095.7 27.4 L1099.6 26.7 L1103.3 25.9 L1106.8 25.0 L1110.3 24.0 L1113.5 23.0 L1116.7 21.8 L1119.8 20.5 L1122.7 19.2 L1125.5 17.7 L1128.2 16.1 L1130.7 14.4 L1133.2 12.6 L1135.6 10.7 L1357.0 50.7 L1355.8 56.5 L1354.3 62.3 L1352.4 68.0 L1350.4 73.7 L1348.1 79.3 L1345.7 84.8 L1343.1 90.4 L1340.4 95.9 L1337.6 101.4 L1334.8 106.8 L1332.0 112.3 L1329.1 117.7 L1326.3 123.2 L1323.6 128.7 L1321.0 134.2 L1318.5 139.7 L1316.2 145.2 L1314.1 150.8 L1312.3 156.4 L1310.7 162.1 L1309.4 167.8 L1308.4 173.6 L1307.8 179.5 L1307.6 185.4 L1307.7 192.3 L1308.1 199.2 L1308.7 206.0 L1309.5 212.7 L1310.6 219.4 L1311.9 225.9 L1313.4 232.3 L1315.1 238.5 L1317.1 244.5 L1319.2 250.3 L1321.6 255.9 L1324.1 261.2 L1326.8 266.2 L1329.7 270.9 L1332.8 275.3 L1336.0 279.3 L1339.5 283.0 L1343.0 286.2 L1346.8 289.0 L1350.6 291.3 L1354.7 293.2 L1358.9 294.5 L1363.2 295.4 L1367.6 295.7 L1377.6 674.5 L1042.6 674.5 L707.6 674.5 L717.6 295.7 L722.0 295.4 L726.3 294.5 L730.5 293.2 L734.5 291.3 L738.4 289.0 L742.2 286.2 L745.7 283.0 L749.1 279.3 L752.4 275.3 L755.5 270.9 L758.4 266.2 L761.1 261.2 L763.6 255.9 L766.0 250.3 L768.1 244.5 L770.0 238.5 L771.8 232.3 L773.3 225.9 L774.6 219.4 L775.6 212.7 L776.5 206.0 L777.1 199.2 L777.5 192.3 L777.6 185.4 L777.4 179.5 L776.8 173.6 L775.8 167.8 L774.5 162.1 L772.9 156.4 L771.1 150.8 L769.0 145.2 L766.7 139.7 L764.2 134.2 L761.6 128.7 L758.9 123.2 L756.1 117.7 L753.2 112.3 L750.4 106.8 L747.6 101.4 L744.8 95.9 L742.1 90.4 L739.5 84.8 L737.1 79.3 L734.8 73.7 L732.7 68.0 L730.9 62.3 L729.4 56.5 L728.2 50.7 L949.6 10.7 L952.0 12.6 L954.4 14.4 L957.0 16.1 L959.7 17.7 L962.5 19.2 L965.4 20.5 L968.5 21.8 L971.6 23.0 L974.9 24.0 L978.4 25.0 L981.9 25.9 L985.6 26.7 L989.5 27.4 L993.5 28.0 L997.6 28.6 L1001.9 29.0 L1006.4 29.4 L1011.1 29.8 L1015.9 30.1 L1020.9 30.3 L1026.0 30.5 L1031.4 30.6 L1036.9 30.6 Z"/>
<path class="mark" d="M1307.6 183.9 L1317.6 183.7"/>
<path class="mark" d="M1307.6 186.9 L1317.6 186.7"/>
<path class="mark" d="M777.6 183.9 L767.6 183.7"/>
<path class="mark" d="M777.6 186.9 L767.6 186.7"/>
<path class="centre" d="M1042.6 674.5 L1042.6 30.7"/>
<path class="grain" d="M869.8 104.2 L869.8 590.3 M867.8 108.2 L869.8 104.2 L871.8 108.2 M867.8 586.3 L869.8 590.3 L871.8 586.3"/>
<rect class="lbg" x="1001.9" y="338.2" width="81.4" height="25" rx="2"/>
<text class="label" x="1042.6" y="347.2">BACK</text>
<text class="sub" x="1042.6" y="354.2">Cut 1 (unfolded) · jersey</text>
<text class="sub" x="1042.6" y="360.2">size M · block/t-shirt</text>
</g>
<!-- front  [block/t-shirt]  "make a boxy t shirt" -->
<g>
<path class="cut" style="fill:#f7f6f2" d="M345.5 96.9 L351.2 96.7 L356.8 96.1 L362.2 95.2 L367.5 93.9 L372.7 92.2 L377.8 90.2 L382.6 87.9 L387.3 85.3 L391.8 82.4 L396.2 79.3 L400.3 75.8 L404.1 72.1 L407.8 68.1 L411.2 63.9 L414.3 59.5 L417.2 54.9 L419.7 50.1 L422.0 45.1 L423.9 39.9 L425.5 34.6 L426.8 29.1 L427.8 23.5 L428.3 17.7 L428.9 0.0 L671.9 43.9 L668.3 60.3 L666.5 66.8 L664.2 73.1 L661.7 79.3 L658.8 85.3 L655.8 91.2 L652.6 96.9 L649.2 102.6 L645.8 108.1 L642.3 113.6 L638.8 119.0 L635.4 124.4 L632.0 129.7 L628.8 134.9 L625.7 140.2 L622.8 145.3 L620.2 150.5 L617.8 155.7 L615.7 160.8 L613.9 166.0 L612.5 171.1 L611.4 176.2 L610.8 181.4 L610.5 186.8 L610.7 193.1 L611.1 199.6 L611.7 206.0 L612.7 212.3 L613.8 218.5 L615.3 224.7 L616.9 230.6 L618.8 236.4 L620.9 242.0 L623.2 247.4 L625.7 252.5 L628.4 257.3 L631.2 261.9 L634.3 266.1 L637.4 269.9 L640.7 273.4 L644.1 276.5 L647.6 279.2 L651.2 281.5 L654.9 283.4 L658.7 284.9 L662.5 286.0 L666.4 286.7 L680.3 287.4 L691.1 695.7 L345.5 695.7 L0.0 695.7 L10.8 287.4 L24.6 286.7 L28.6 286.0 L32.4 284.9 L36.2 283.4 L39.8 281.5 L43.4 279.2 L46.9 276.5 L50.3 273.4 L53.6 269.9 L56.8 266.1 L59.8 261.9 L62.7 257.3 L65.4 252.5 L67.9 247.4 L70.2 242.0 L72.3 236.4 L74.2 230.6 L75.8 224.7 L77.2 218.5 L78.4 212.3 L79.3 206.0 L80.0 199.6 L80.4 193.1 L80.5 186.8 L80.3 181.4 L79.7 176.2 L78.6 171.1 L77.2 166.0 L75.4 160.8 L73.3 155.7 L70.9 150.5 L68.2 145.3 L65.4 140.2 L62.3 134.9 L59.0 129.7 L55.7 124.4 L52.2 119.0 L48.8 113.6 L45.3 108.1 L41.8 102.6 L38.5 96.9 L35.3 91.2 L32.2 85.3 L29.4 79.3 L26.8 73.1 L24.6 66.8 L22.7 60.3 L19.1 43.9 L262.1 0.0 L262.7 17.7 L263.3 23.5 L264.2 29.1 L265.5 34.6 L267.1 39.9 L269.1 45.1 L271.3 50.1 L273.9 54.9 L276.8 59.5 L279.9 63.9 L283.3 68.1 L286.9 72.1 L290.8 75.8 L294.9 79.3 L299.2 82.4 L303.7 85.3 L308.4 87.9 L313.3 90.2 L318.3 92.2 L323.5 93.9 L328.8 95.2 L334.3 96.1 L339.9 96.7 Z"/>
<path class="stitch" d="M345.5 106.9 L351.9 106.7 L358.2 106.0 L364.3 105.0 L370.3 103.5 L376.1 101.7 L381.7 99.4 L387.2 96.9 L392.5 93.9 L397.5 90.7 L402.4 87.1 L407.0 83.2 L411.3 79.1 L415.4 74.6 L419.2 70.0 L422.6 65.0 L425.8 59.8 L428.7 54.5 L431.2 48.9 L433.4 43.1 L435.2 37.2 L436.6 31.0 L437.7 24.8 L438.3 18.4 L438.5 11.9 L659.9 51.9 L658.6 57.9 L656.9 63.8 L654.9 69.5 L652.5 75.2 L649.9 80.9 L647.0 86.4 L643.9 91.9 L640.7 97.4 L637.3 102.8 L633.9 108.2 L630.4 113.6 L627.0 119.0 L623.6 124.4 L620.2 129.8 L617.0 135.2 L614.0 140.6 L611.2 146.1 L608.6 151.7 L606.3 157.3 L604.3 163.0 L602.7 168.7 L601.5 174.6 L600.8 180.6 L600.5 186.6 L600.7 193.5 L601.1 200.4 L601.8 207.2 L602.8 214.0 L604.1 220.6 L605.6 227.1 L607.3 233.5 L609.3 239.7 L611.6 245.8 L614.1 251.6 L616.8 257.1 L619.8 262.4 L623.0 267.5 L626.3 272.2 L629.9 276.5 L633.7 280.6 L637.7 284.2 L641.9 287.4 L646.2 290.2 L650.8 292.6 L655.5 294.4 L660.3 295.8 L665.4 296.6 L670.5 296.9 L680.5 675.7 L345.5 675.7 L10.5 675.7 L20.5 296.9 L25.7 296.6 L30.7 295.8 L35.6 294.4 L40.3 292.6 L44.8 290.2 L49.2 287.4 L53.4 284.2 L57.3 280.6 L61.1 276.5 L64.7 272.2 L68.1 267.5 L71.3 262.4 L74.2 257.1 L77.0 251.6 L79.5 245.8 L81.7 239.7 L83.7 233.5 L85.5 227.1 L87.0 220.6 L88.3 214.0 L89.2 207.2 L90.0 200.4 L90.4 193.5 L90.5 186.6 L90.3 180.6 L89.5 174.6 L88.3 168.7 L86.7 163.0 L84.8 157.3 L82.5 151.7 L79.9 146.1 L77.1 140.6 L74.0 135.2 L70.8 129.8 L67.5 124.4 L64.1 119.0 L60.6 113.6 L57.2 108.2 L53.8 102.8 L50.4 97.4 L47.2 91.9 L44.1 86.4 L41.2 80.9 L38.5 75.2 L36.2 69.5 L34.1 63.8 L32.4 57.9 L31.1 51.9 L252.5 11.9 L252.7 18.4 L253.4 24.8 L254.4 31.0 L255.9 37.2 L257.7 43.1 L259.8 48.9 L262.4 54.5 L265.2 59.8 L268.4 65.0 L271.9 70.0 L275.7 74.6 L279.8 79.1 L284.1 83.2 L288.7 87.1 L293.5 90.7 L298.6 93.9 L303.9 96.9 L309.3 99.4 L315.0 101.7 L320.8 103.5 L326.8 105.0 L332.9 106.0 L339.2 106.7 Z"/>
<path class="mark" d="M600.5 186.6 L610.5 187.1"/>
<path class="mark" d="M90.5 186.6 L80.5 187.1"/>
<path class="centre" d="M345.5 675.7 L345.5 106.9"/>
<path class="grain" d="M172.8 104.4 L172.8 591.3 M170.8 108.4 L172.8 104.4 L174.8 108.4 M170.8 587.3 L172.8 591.3 L174.8 587.3"/>
<rect class="lbg" x="304.8" y="338.8" width="81.4" height="25" rx="2"/>
<text class="label" x="345.5" y="347.8">FRONT</text>
<text class="sub" x="345.5" y="354.8">Cut 1 (unfolded) · jersey</text>
<text class="sub" x="345.5" y="360.8">size M · block/t-shirt</text>
</g>
<!-- sleeve  [block/t-shirt]  "make a boxy t shirt" -->
<g>
<path class="cut" style="fill:#f7f6f2" d="M697.1 842.4 L727.4 841.0 L740.6 839.1 L752.4 836.1 L763.0 832.1 L772.6 827.2 L781.4 821.5 L789.5 815.1 L797.1 808.0 L804.3 800.3 L811.2 792.2 L818.0 783.7 L824.7 775.0 L831.5 766.1 L838.6 757.2 L846.0 748.5 L854.0 740.0 L862.7 731.9 L872.2 724.4 L882.6 717.6 L894.1 711.8 L906.8 707.0 L920.7 703.4 L936.0 701.2 L952.7 700.5 L966.8 701.2 L980.4 703.5 L993.2 707.0 L1005.3 711.8 L1016.8 717.6 L1027.7 724.2 L1038.0 731.5 L1047.9 739.4 L1057.4 747.8 L1066.6 756.4 L1075.5 765.2 L1084.3 774.1 L1092.9 782.9 L1101.4 791.5 L1109.9 799.8 L1118.4 807.6 L1126.9 814.9 L1135.6 821.5 L1144.4 827.3 L1153.4 832.2 L1162.6 836.2 L1172.2 839.2 L1182.1 841.0 L1208.1 842.6 L1161.1 940.5 L744.1 940.5 Z"/>
<path class="stitch" d="M712.6 851.7 L728.3 851.0 L742.5 848.9 L755.4 845.6 L767.1 841.2 L777.6 835.9 L787.2 829.6 L796.0 822.7 L804.2 815.1 L811.8 807.0 L818.9 798.6 L825.8 789.9 L832.6 781.1 L839.4 772.3 L846.3 763.6 L853.5 755.2 L861.1 747.1 L869.2 739.5 L878.0 732.5 L887.6 726.3 L898.2 720.9 L909.8 716.5 L922.7 713.3 L936.9 711.2 L952.6 710.5 L965.8 711.2 L978.2 713.3 L990.0 716.5 L1001.2 720.9 L1011.9 726.3 L1022.2 732.5 L1032.0 739.5 L1041.5 747.1 L1050.7 755.2 L1059.7 763.6 L1068.5 772.3 L1077.1 781.1 L1085.7 789.9 L1094.3 798.6 L1103.0 807.0 L1111.7 815.1 L1120.7 822.7 L1129.8 829.6 L1139.2 835.9 L1149.0 841.2 L1159.2 845.6 L1169.8 848.9 L1180.9 851.0 L1192.6 851.7 L1159.6 920.5 L745.6 920.5 Z"/>
<path class="mark" d="M826.1 789.6 L818.2 783.5"/>
<path class="mark" d="M827.9 787.2 L820.0 781.1"/>
<path class="mark" d="M1074.4 778.3 L1081.5 771.3"/>
<path class="mark" d="M952.6 710.5 L953.2 700.5"/>
<path class="grain" d="M952.6 736.5 L952.6 904.5 M950.6 740.5 L952.6 736.5 L954.6 740.5 M950.6 900.5 L952.6 904.5 L954.6 900.5"/>
<rect class="lbg" x="927.8" y="811.5" width="49.5" height="25" rx="2"/>
<text class="label" x="952.6" y="820.5">SLEEVE</text>
<text class="sub" x="952.6" y="827.5">Cut 2 · jersey</text>
<text class="sub" x="952.6" y="833.5">size M · block/t-shirt</text>
</g>
<!-- sleeve  [block/t-shirt]  "make a boxy t shirt" -->
<g>
<path class="cut" style="fill:#f7f6f2" d="M511.0 843.6 L480.7 842.3 L467.5 840.3 L455.7 837.3 L445.0 833.3 L435.4 828.4 L426.7 822.7 L418.5 816.3 L411.0 809.2 L403.8 801.6 L396.9 793.5 L390.1 785.0 L383.4 776.2 L376.6 767.4 L369.5 758.5 L362.0 749.7 L354.1 741.2 L345.4 733.2 L335.9 725.6 L325.5 718.9 L313.9 713.0 L301.3 708.2 L287.3 704.7 L272.1 702.5 L255.4 701.7 L241.2 702.5 L227.7 704.7 L214.9 708.3 L202.8 713.0 L191.3 718.8 L180.4 725.4 L170.0 732.8 L160.1 740.7 L150.6 749.0 L141.5 757.6 L132.5 766.5 L123.8 775.3 L115.2 784.1 L106.7 792.7 L98.2 801.0 L89.7 808.8 L81.1 816.1 L72.5 822.7 L63.7 828.5 L54.7 833.5 L45.4 837.5 L35.9 840.4 L25.9 842.3 L0.0 843.9 L47.0 941.7 L463.9 941.7 Z"/>
<path class="stitch" d="M495.4 852.9 L479.7 852.2 L465.5 850.2 L452.6 846.9 L441.0 842.5 L430.4 837.1 L420.8 830.9 L412.0 823.9 L403.9 816.3 L396.3 808.3 L389.1 799.8 L382.2 791.1 L375.4 782.3 L368.7 773.5 L361.8 764.8 L354.6 756.4 L347.0 748.3 L338.9 740.7 L330.1 733.8 L320.5 727.5 L309.9 722.2 L298.2 717.8 L285.4 714.5 L271.2 712.4 L255.4 711.7 L242.3 712.4 L229.9 714.5 L218.1 717.8 L206.8 722.2 L196.1 727.5 L185.9 733.8 L176.0 740.7 L166.6 748.3 L157.4 756.4 L148.4 764.8 L139.6 773.5 L130.9 782.3 L122.3 791.1 L113.7 799.8 L105.1 808.3 L96.3 816.3 L87.4 823.9 L78.3 830.9 L68.8 837.1 L59.1 842.5 L48.9 846.9 L38.3 850.2 L27.1 852.2 L15.4 852.9 L48.4 921.7 L462.4 921.7 Z"/>
<path class="mark" d="M382.0 790.8 L389.9 784.7"/>
<path class="mark" d="M380.1 788.4 L388.1 782.3"/>
<path class="mark" d="M133.7 779.5 L126.6 772.5"/>
<path class="mark" d="M255.4 711.7 L254.9 701.7"/>
<path class="grain" d="M255.5 737.7 L255.5 905.7 M253.5 741.7 L255.5 737.7 L257.5 741.7 M253.5 901.7 L255.5 905.7 L257.5 901.7"/>
<rect class="lbg" x="230.8" y="812.7" width="49.5" height="25" rx="2"/>
<text class="label" x="255.5" y="821.7">SLEEVE</text>
<text class="sub" x="255.5" y="828.7">Cut 2 · jersey</text>
<text class="sub" x="255.5" y="834.7">size M · block/t-shirt</text>
</g>
<!-- neckband  [neck_finish/self_band]  "make a boxy t shirt" -->
<g>
<path class="cut" style="fill:#f7f6f2" d="M517.0 946.5 L967.7 946.5 L967.7 996.5 L517.0 996.5 Z"/>
<path class="stitch" d="M527.0 956.5 L957.7 956.5 L957.7 986.5 L527.0 986.5 Z"/>
<path class="dash" d="M527.0 971.5 L957.7 971.5"/>
<path class="grain" d="M742.4 954.0 L742.4 989.0 M740.4 958.0 L742.4 954.0 L744.4 958.0 M740.4 985.0 L742.4 989.0 L744.4 985.0"/>
<rect class="lbg" x="714.6" y="962.5" width="55.6" height="25" rx="2"/>
<text class="label" x="742.4" y="971.5">NECKBAND</text>
<text class="sub" x="742.4" y="978.5">Cut 1 · jersey</text>
<text class="sub" x="742.4" y="984.5">size M · neck_finish/self_band</text>
</g>
</g>
<text class="s" x="15.0" y="280.7">jersey · White · 1.00 m</text>
<text class="s" x="15.0" y="401.7">Aras · drafted from body measurements by hand-written rules · same sentence, same rules.toml, same sheet</text>
</svg>
