<?xml version="1.0" encoding="UTF-8"?>
<svg xmlns="http://www.w3.org/2000/svg" width="420.0mm" height="453.9mm" viewBox="0 0 420.0 453.9">
<style>
  text { font-family: Helvetica, Arial, sans-serif; fill: #1d1d1d; }
  .title { font-size: 11px; font-weight: bold; letter-spacing: 0.2px; }
  .sub { font-size: 3.6px; fill: #555; }
  .quote { font-size: 3.4px; fill: #555; font-style: italic; }
  .h { font-size: 3.4px; font-weight: bold; letter-spacing: 0.6px; fill: #1d1d1d; }
  .b { font-size: 3.2px; }
  .bb { font-size: 3.2px; font-weight: bold; }
  .s { font-size: 2.6px; fill: #6b6b6b; }
  .ok { font-size: 3.2px; fill: #2e7d4f; font-weight: bold; }
  .warn { font-size: 3.0px; fill: #a15c00; }
  .cap { font-size: 3.2px; font-weight: bold; text-anchor: middle; letter-spacing: 0.8px; fill: #555; }
  .rule { stroke: #d6d6d6; stroke-width: 0.3; }
  .sw { stroke: #1d1d1d; stroke-width: 0.8; }
  .fl { stroke: #232323; stroke-width: 1.8; stroke-linejoin: round; }
  .fs { fill: none; stroke-width: 1.1; stroke-dasharray: 6 4; }
  .rb { fill: none; stroke-width: 0.9; }
  .ds { fill: none; stroke-width: 6; stroke-linecap: round; }
  .fabric { fill: #f1f4f8; stroke: #8a9bb0; stroke-width: 2; }
  .rib { fill: #f6f1f8; }
  .cut { fill: #fffdf7; stroke: #1d1d1d; stroke-width: 1.4; }
  .stitch { display: none; }
  .mark, .dash, .centre, .fold, .grain, .label, .lbg { display: none; }
  .sheet .sub { display: none; }
</style>
<defs>
<clipPath id="pc0"><path d="M0.0 90.0 L6.0 89.8 L11.9 89.2 L17.7 88.2 L23.4 86.8 L28.9 85.0 L34.3 82.9 L39.4 80.5 L44.4 77.7 L49.2 74.6 L53.8 71.2 L58.1 67.6 L62.2 63.6 L66.1 59.4 L69.7 55.0 L73.0 50.3 L76.0 45.4 L78.7 40.3 L81.1 35.0 L83.1 29.6 L84.9 23.9 L86.2 18.1 L87.2 12.2 L87.8 6.2 L88.0 0.0 L220.6 45.0 L219.1 49.4 L217.6 53.9 L216.2 58.3 L214.9 62.8 L213.6 67.3 L212.3 71.8 L211.1 76.4 L209.9 80.9 L208.8 85.5 L207.7 90.1 L206.7 94.7 L205.8 99.3 L204.9 103.9 L204.1 108.5 L203.3 113.1 L202.7 117.8 L202.1 122.4 L201.5 127.0 L201.1 131.7 L200.7 136.4 L200.4 141.0 L200.2 145.7 L200.0 150.3 L200.0 155.0 L200.1 160.6 L200.6 166.2 L201.3 171.8 L202.3 177.3 L203.5 182.7 L205.0 188.0 L206.8 193.3 L208.8 198.3 L211.1 203.3 L213.6 208.0 L216.3 212.5 L219.2 216.9 L222.4 221.0 L225.8 224.8 L229.4 228.4 L233.2 231.7 L237.2 234.6 L241.3 237.3 L245.7 239.5 L250.2 241.5 L254.9 243.0 L259.8 244.1 L264.8 244.8 L270.0 245.0 L269.8 256.2 L269.2 266.7 L268.3 276.5 L267.0 285.8 L265.5 294.6 L263.8 303.0 L261.8 311.0 L259.6 318.6 L257.3 326.1 L255.0 333.3 L252.5 340.4 L250.0 347.5 L247.5 354.6 L245.0 361.7 L242.7 368.9 L240.4 376.4 L238.2 384.0 L236.2 392.0 L234.5 400.4 L233.0 409.2 L231.7 418.5 L230.8 428.3 L230.2 438.8 L230.0 450.0 L230.2 460.9 L230.9 471.1 L231.9 480.7 L233.3 489.8 L235.0 498.4 L237.0 506.6 L239.3 514.4 L241.7 521.9 L244.2 529.1 L246.9 536.2 L249.7 543.1 L252.5 550.0 L255.3 556.9 L258.1 563.8 L260.8 570.9 L263.3 578.1 L265.7 585.6 L268.0 593.4 L270.0 601.6 L271.7 610.2 L273.1 619.3 L274.1 628.9 L274.8 639.1 L275.0 650.0 L275.0 1046.8 L0.0 1046.8 L-275.0 1046.8 L-275.0 650.0 L-274.8 639.1 L-274.1 628.9 L-273.1 619.3 L-271.7 610.2 L-270.0 601.6 L-268.0 593.4 L-265.7 585.6 L-263.3 578.1 L-260.8 570.9 L-258.1 563.8 L-255.3 556.9 L-252.5 550.0 L-249.7 543.1 L-246.9 536.2 L-244.2 529.1 L-241.7 521.9 L-239.3 514.4 L-237.0 506.6 L-235.0 498.4 L-233.3 489.8 L-231.9 480.7 L-230.9 471.1 L-230.2 460.9 L-230.0 450.0 L-230.2 438.8 L-230.8 428.3 L-231.7 418.5 L-233.0 409.2 L-234.5 400.4 L-236.2 392.0 L-238.2 384.0 L-240.4 376.4 L-242.7 368.9 L-245.0 361.7 L-247.5 354.6 L-250.0 347.5 L-252.5 340.4 L-255.0 333.3 L-257.3 326.1 L-259.6 318.6 L-261.8 311.0 L-263.8 303.0 L-265.5 294.6 L-267.0 285.8 L-268.3 276.5 L-269.2 266.7 L-269.8 256.2 L-270.0 245.0 L-264.8 244.8 L-259.8 244.1 L-254.9 243.0 L-250.2 241.5 L-245.7 239.5 L-241.3 237.3 L-237.2 234.6 L-233.2 231.7 L-229.4 228.4 L-225.8 224.8 L-222.4 221.0 L-219.2 216.9 L-216.3 212.5 L-213.6 208.0 L-211.1 203.3 L-208.8 198.3 L-206.8 193.3 L-205.0 188.0 L-203.5 182.7 L-202.3 177.3 L-201.3 171.8 L-200.6 166.2 L-200.1 160.6 L-200.0 155.0 L-200.0 150.3 L-200.2 145.7 L-200.4 141.0 L-200.7 136.4 L-201.1 131.7 L-201.5 127.0 L-202.1 122.4 L-202.7 117.8 L-203.3 113.1 L-204.1 108.5 L-204.9 103.9 L-205.8 99.3 L-206.7 94.7 L-207.7 90.1 L-208.8 85.5 L-209.9 80.9 L-211.1 76.4 L-212.3 71.8 L-213.6 67.3 L-214.9 62.8 L-216.2 58.3 L-217.6 53.9 L-219.1 49.4 L-220.6 45.0 L-88.0 0.0 L-87.8 6.2 L-87.2 12.2 L-86.2 18.1 L-84.9 23.9 L-83.1 29.6 L-81.1 35.0 L-78.7 40.3 L-76.0 45.4 L-73.0 50.3 L-69.7 55.0 L-66.1 59.4 L-62.2 63.6 L-58.1 67.6 L-53.8 71.2 L-49.2 74.6 L-44.4 77.7 L-39.4 80.5 L-34.3 82.9 L-28.9 85.0 L-23.4 86.8 L-17.7 88.2 L-11.9 89.2 L-6.0 89.8 Z"/></clipPath>
<clipPath id="pc1"><path d="M0.0 1046.8 L-275.0 1046.8 L-275.0 650.0 L-274.8 639.1 L-274.1 628.9 L-273.1 619.3 L-271.7 610.2 L-270.0 601.6 L-268.0 593.4 L-265.7 585.6 L-263.3 578.1 L-260.8 570.9 L-258.1 563.8 L-255.3 556.9 L-252.5 550.0 L-249.7 543.1 L-246.9 536.2 L-244.2 529.1 L-241.7 521.9 L-239.3 514.4 L-237.0 506.6 L-235.0 498.4 L-233.3 489.8 L-231.9 480.7 L-230.9 471.1 L-230.2 460.9 L-230.0 450.0 L-230.2 438.8 L-230.8 428.3 L-231.7 418.5 L-233.0 409.2 L-234.5 400.4 L-236.2 392.0 L-238.2 384.0 L-240.4 376.4 L-242.7 368.9 L-245.0 361.7 L-247.5 354.6 L-250.0 347.5 L-252.5 340.4 L-255.0 333.3 L-257.3 326.1 L-259.6 318.6 L-261.8 311.0 L-263.8 303.0 L-265.5 294.6 L-267.0 285.8 L-268.3 276.5 L-269.2 266.7 L-269.8 256.2 L-270.0 245.0 L-265.6 244.8 L-261.3 244.1 L-257.1 243.0 L-253.1 241.5 L-249.2 239.5 L-245.4 237.3 L-241.9 234.6 L-238.4 231.7 L-235.2 228.4 L-232.1 224.8 L-229.2 221.0 L-226.5 216.9 L-224.0 212.5 L-221.6 208.0 L-219.5 203.3 L-217.6 198.3 L-215.8 193.3 L-214.3 188.0 L-213.0 182.7 L-211.9 177.3 L-211.1 171.8 L-210.5 166.2 L-210.1 160.6 L-210.0 155.0 L-210.0 150.4 L-210.0 145.8 L-210.0 141.1 L-210.0 136.5 L-210.0 131.8 L-210.0 127.2 L-210.0 122.5 L-210.1 117.9 L-210.2 113.2 L-210.4 108.6 L-210.6 103.9 L-210.8 99.3 L-211.2 94.6 L-211.6 90.0 L-212.0 85.4 L-212.6 80.8 L-213.2 76.3 L-213.9 71.7 L-214.7 67.2 L-215.7 62.7 L-216.7 58.2 L-217.9 53.8 L-219.2 49.4 L-220.6 45.0 L-88.0 0.0 L-85.8 1.9 L-83.4 3.8 L-81.0 5.5 L-78.4 7.0 L-75.8 8.5 L-73.0 9.9 L-70.1 11.1 L-67.1 12.3 L-64.0 13.4 L-60.8 14.3 L-57.4 15.2 L-53.9 16.0 L-50.3 16.7 L-46.5 17.3 L-42.5 17.9 L-38.5 18.4 L-34.2 18.8 L-29.8 19.1 L-25.3 19.4 L-20.6 19.6 L-15.7 19.8 L-10.6 19.9 L-5.4 20.0 L0.0 20.0 L0.0 20.0 L5.4 20.0 L10.6 19.9 L15.7 19.8 L20.6 19.6 L25.3 19.4 L29.8 19.1 L34.2 18.8 L38.5 18.4 L42.5 17.9 L46.5 17.3 L50.3 16.7 L53.9 16.0 L57.4 15.2 L60.8 14.3 L64.0 13.4 L67.1 12.3 L70.1 11.1 L73.0 9.9 L75.8 8.5 L78.4 7.0 L81.0 5.5 L83.4 3.8 L85.8 1.9 L88.0 0.0 L220.6 45.0 L219.2 49.4 L217.9 53.8 L216.7 58.2 L215.7 62.7 L214.7 67.2 L213.9 71.7 L213.2 76.3 L212.6 80.8 L212.0 85.4 L211.6 90.0 L211.2 94.6 L210.8 99.3 L210.6 103.9 L210.4 108.6 L210.2 113.2 L210.1 117.9 L210.0 122.5 L210.0 127.2 L210.0 131.8 L210.0 136.5 L210.0 141.1 L210.0 145.8 L210.0 150.4 L210.0 155.0 L210.1 160.6 L210.5 166.2 L211.1 171.8 L211.9 177.3 L213.0 182.7 L214.3 188.0 L215.8 193.3 L217.6 198.3 L219.5 203.3 L221.6 208.0 L224.0 212.5 L226.5 216.9 L229.2 221.0 L232.1 224.8 L235.2 228.4 L238.4 231.7 L241.9 234.6 L245.4 237.3 L249.2 239.5 L253.1 241.5 L257.1 243.0 L261.3 244.1 L265.6 244.8 L270.0 245.0 L269.8 256.2 L269.2 266.7 L268.3 276.5 L267.0 285.8 L265.5 294.6 L263.8 303.0 L261.8 311.0 L259.6 318.6 L257.3 326.1 L255.0 333.3 L252.5 340.4 L250.0 347.5 L247.5 354.6 L245.0 361.7 L242.7 368.9 L240.4 376.4 L238.2 384.0 L236.2 392.0 L234.5 400.4 L233.0 409.2 L231.7 418.5 L230.8 428.3 L230.2 438.8 L230.0 450.0 L230.2 460.9 L230.9 471.1 L231.9 480.7 L233.3 489.8 L235.0 498.4 L237.0 506.6 L239.3 514.4 L241.7 521.9 L244.2 529.1 L246.9 536.2 L249.7 543.1 L252.5 550.0 L255.3 556.9 L258.1 563.8 L260.8 570.9 L263.3 578.1 L265.7 585.6 L268.0 593.4 L270.0 601.6 L271.7 610.2 L273.1 619.3 L274.1 628.9 L274.8 639.1 L275.0 650.0 L275.0 1046.8 L0.0 1046.8 Z"/></clipPath>
</defs>
<!-- Aras: "make a red velvet dress" -->
<rect x="0" y="0" width="420.0" height="453.9" fill="#ffffff"/>
<text class="title" x="15.0" y="24.0">Red Velvet Dress</text>
<text class="sub" x="15.0" y="31.0">ARS-DR-8280   ·   size M   ·   regular fit   ·   velvet</text>
<text class="quote" x="15.0" y="37.0">“make a red velvet dress”</text>
<path class="rule" d="M15.0 42.0 L405.0 42.0"/>
<g transform="translate(79.0 49.0) scale(0.1720)">
<path class="fl" fill="#871b20" d="M-88.0 0.0 L-85.8 1.9 L-83.4 3.8 L-81.0 5.5 L-78.4 7.0 L-75.8 8.5 L-73.0 9.9 L-70.1 11.1 L-67.1 12.3 L-64.0 13.4 L-60.8 14.3 L-57.4 15.2 L-53.9 16.0 L-50.3 16.7 L-46.5 17.3 L-42.5 17.9 L-38.5 18.4 L-34.2 18.8 L-29.8 19.1 L-25.3 19.4 L-20.6 19.6 L-15.7 19.8 L-10.6 19.9 L-5.4 20.0 L0.0 20.0 L0.0 20.0 L5.4 20.0 L10.6 19.9 L15.7 19.8 L20.6 19.6 L25.3 19.4 L29.8 19.1 L34.2 18.8 L38.5 18.4 L42.5 17.9 L46.5 17.3 L50.3 16.7 L53.9 16.0 L57.4 15.2 L60.8 14.3 L64.0 13.4 L67.1 12.3 L70.1 11.1 L73.0 9.9 L75.8 8.5 L78.4 7.0 L81.0 5.5 L83.4 3.8 L85.8 1.9 L88.0 0.0 L88.0 0.0 L87.8 6.2 L87.2 12.2 L86.2 18.1 L84.9 23.9 L83.1 29.6 L81.1 35.0 L78.7 40.3 L76.0 45.4 L73.0 50.3 L69.7 55.0 L66.1 59.4 L62.2 63.6 L58.1 67.6 L53.8 71.2 L49.2 74.6 L44.4 77.7 L39.4 80.5 L34.3 82.9 L28.9 85.0 L23.4 86.8 L17.7 88.2 L11.9 89.2 L6.0 89.8 L0.0 90.0 L0.0 90.0 L-6.0 89.8 L-11.9 89.2 L-17.7 88.2 L-23.4 86.8 L-28.9 85.0 L-34.3 82.9 L-39.4 80.5 L-44.4 77.7 L-49.2 74.6 L-53.8 71.2 L-58.1 67.6 L-62.2 63.6 L-66.1 59.4 L-69.7 55.0 L-73.0 50.3 L-76.0 45.4 L-78.7 40.3 L-81.1 35.0 L-83.1 29.6 L-84.9 23.9 L-86.2 18.1 L-87.2 12.2 L-87.8 6.2 L-88.0 0.0 Z"/>
<path class="fl" fill="#c1272d" d="M0.0 90.0 L6.0 89.8 L11.9 89.2 L17.7 88.2 L23.4 86.8 L28.9 85.0 L34.3 82.9 L39.4 80.5 L44.4 77.7 L49.2 74.6 L53.8 71.2 L58.1 67.6 L62.2 63.6 L66.1 59.4 L69.7 55.0 L73.0 50.3 L76.0 45.4 L78.7 40.3 L81.1 35.0 L83.1 29.6 L84.9 23.9 L86.2 18.1 L87.2 12.2 L87.8 6.2 L88.0 0.0 L220.6 45.0 L219.1 49.4 L217.6 53.9 L216.2 58.3 L214.9 62.8 L213.6 67.3 L212.3 71.8 L211.1 76.4 L209.9 80.9 L208.8 85.5 L207.7 90.1 L206.7 94.7 L205.8 99.3 L204.9 103.9 L204.1 108.5 L203.3 113.1 L202.7 117.8 L202.1 122.4 L201.5 127.0 L201.1 131.7 L200.7 136.4 L200.4 141.0 L200.2 145.7 L200.0 150.3 L200.0 155.0 L200.1 160.6 L200.6 166.2 L201.3 171.8 L202.3 177.3 L203.5 182.7 L205.0 188.0 L206.8 193.3 L208.8 198.3 L211.1 203.3 L213.6 208.0 L216.3 212.5 L219.2 216.9 L222.4 221.0 L225.8 224.8 L229.4 228.4 L233.2 231.7 L237.2 234.6 L241.3 237.3 L245.7 239.5 L250.2 241.5 L254.9 243.0 L259.8 244.1 L264.8 244.8 L270.0 245.0 L269.8 256.2 L269.2 266.7 L268.3 276.5 L267.0 285.8 L265.5 294.6 L263.8 303.0 L261.8 311.0 L259.6 318.6 L257.3 326.1 L255.0 333.3 L252.5 340.4 L250.0 347.5 L247.5 354.6 L245.0 361.7 L242.7 368.9 L240.4 376.4 L238.2 384.0 L236.2 392.0 L234.5 400.4 L233.0 409.2 L231.7 418.5 L230.8 428.3 L230.2 438.8 L230.0 450.0 L230.2 460.9 L230.9 471.1 L231.9 480.7 L233.3 489.8 L235.0 498.4 L237.0 506.6 L239.3 514.4 L241.7 521.9 L244.2 529.1 L246.9 536.2 L249.7 543.1 L252.5 550.0 L255.3 556.9 L258.1 563.8 L260.8 570.9 L263.3 578.1 L265.7 585.6 L268.0 593.4 L270.0 601.6 L271.7 610.2 L273.1 619.3 L274.1 628.9 L274.8 639.1 L275.0 650.0 L275.0 1046.8 L0.0 1046.8 L-275.0 1046.8 L-275.0 650.0 L-274.8 639.1 L-274.1 628.9 L-273.1 619.3 L-271.7 610.2 L-270.0 601.6 L-268.0 593.4 L-265.7 585.6 L-263.3 578.1 L-260.8 570.9 L-258.1 563.8 L-255.3 556.9 L-252.5 550.0 L-249.7 543.1 L-246.9 536.2 L-244.2 529.1 L-241.7 521.9 L-239.3 514.4 L-237.0 506.6 L-235.0 498.4 L-233.3 489.8 L-231.9 480.7 L-230.9 471.1 L-230.2 460.9 L-230.0 450.0 L-230.2 438.8 L-230.8 428.3 L-231.7 418.5 L-233.0 409.2 L-234.5 400.4 L-236.2 392.0 L-238.2 384.0 L-240.4 376.4 L-242.7 368.9 L-245.0 361.7 L-247.5 354.6 L-250.0 347.5 L-252.5 340.4 L-255.0 333.3 L-257.3 326.1 L-259.6 318.6 L-261.8 311.0 L-263.8 303.0 L-265.5 294.6 L-267.0 285.8 L-268.3 276.5 L-269.2 266.7 L-269.8 256.2 L-270.0 245.0 L-264.8 244.8 L-259.8 244.1 L-254.9 243.0 L-250.2 241.5 L-245.7 239.5 L-241.3 237.3 L-237.2 234.6 L-233.2 231.7 L-229.4 228.4 L-225.8 224.8 L-222.4 221.0 L-219.2 216.9 L-216.3 212.5 L-213.6 208.0 L-211.1 203.3 L-208.8 198.3 L-206.8 193.3 L-205.0 188.0 L-203.5 182.7 L-202.3 177.3 L-201.3 171.8 L-200.6 166.2 L-200.1 160.6 L-200.0 155.0 L-200.0 150.3 L-200.2 145.7 L-200.4 141.0 L-200.7 136.4 L-201.1 131.7 L-201.5 127.0 L-202.1 122.4 L-202.7 117.8 L-203.3 113.1 L-204.1 108.5 L-204.9 103.9 L-205.8 99.3 L-206.7 94.7 L-207.7 90.1 L-208.8 85.5 L-209.9 80.9 L-211.1 76.4 L-212.3 71.8 L-213.6 67.3 L-214.9 62.8 L-216.2 58.3 L-217.6 53.9 L-219.1 49.4 L-220.6 45.0 L-88.0 0.0 L-87.8 6.2 L-87.2 12.2 L-86.2 18.1 L-84.9 23.9 L-83.1 29.6 L-81.1 35.0 L-78.7 40.3 L-76.0 45.4 L-73.0 50.3 L-69.7 55.0 L-66.1 59.4 L-62.2 63.6 L-58.1 67.6 L-53.8 71.2 L-49.2 74.6 L-44.4 77.7 L-39.4 80.5 L-34.3 82.9 L-28.9 85.0 L-23.4 86.8 L-17.7 88.2 L-11.9 89.2 L-6.0 89.8 Z"/>
<defs><linearGradient id="pc0-sheen" x1="0" y1="0" x2="1" y2="0"><stop offset="0" stop-color="#000" stop-opacity="0.28"/><stop offset="0.3" stop-color="#fff" stop-opacity="0.16"/><stop offset="0.5" stop-color="#fff" stop-opacity="0"/><stop offset="0.72" stop-color="#000" stop-opacity="0.22"/><stop offset="0.88" stop-color="#fff" stop-opacity="0.1"/><stop offset="1" stop-color="#000" stop-opacity="0.3"/></linearGradient></defs>
<rect clip-path="url(#pc0)" x="-275.0" y="0.0" width="550.0" height="1046.8" fill="url(#pc0-sheen)"/>
<path class="fs" stroke="#9a1f24" d="M0.0 1032.8 L-275.0 1032.8 L275.0 1032.8 L0.0 1032.8"/>
</g>
<text class="cap" x="79.0" y="236.0">FRONT</text>
<g transform="translate(215.0 49.0) scale(0.1720)">
<path class="fl" fill="#c1272d" d="M0.0 20.0 L-5.4 20.0 L-10.6 19.9 L-15.7 19.8 L-20.6 19.6 L-25.3 19.4 L-29.8 19.1 L-34.2 18.8 L-38.5 18.4 L-42.5 17.9 L-46.5 17.3 L-50.3 16.7 L-53.9 16.0 L-57.4 15.2 L-60.8 14.3 L-64.0 13.4 L-67.1 12.3 L-70.1 11.1 L-73.0 9.9 L-75.8 8.5 L-78.4 7.0 L-81.0 5.5 L-83.4 3.8 L-85.8 1.9 L-88.0 0.0 L-220.6 45.0 L-219.2 49.4 L-217.9 53.8 L-216.7 58.2 L-215.7 62.7 L-214.7 67.2 L-213.9 71.7 L-213.2 76.3 L-212.6 80.8 L-212.0 85.4 L-211.6 90.0 L-211.2 94.6 L-210.8 99.3 L-210.6 103.9 L-210.4 108.6 L-210.2 113.2 L-210.1 117.9 L-210.0 122.5 L-210.0 127.2 L-210.0 131.8 L-210.0 136.5 L-210.0 141.1 L-210.0 145.8 L-210.0 150.4 L-210.0 155.0 L-210.1 160.6 L-210.5 166.2 L-211.1 171.8 L-211.9 177.3 L-213.0 182.7 L-214.3 188.0 L-215.8 193.3 L-217.6 198.3 L-219.5 203.3 L-221.6 208.0 L-224.0 212.5 L-226.5 216.9 L-229.2 221.0 L-232.1 224.8 L-235.2 228.4 L-238.4 231.7 L-241.9 234.6 L-245.4 237.3 L-249.2 239.5 L-253.1 241.5 L-257.1 243.0 L-261.3 244.1 L-265.6 244.8 L-270.0 245.0 L-269.8 256.2 L-269.2 266.7 L-268.3 276.5 L-267.0 285.8 L-265.5 294.6 L-263.8 303.0 L-261.8 311.0 L-259.6 318.6 L-257.3 326.1 L-255.0 333.3 L-252.5 340.4 L-250.0 347.5 L-247.5 354.6 L-245.0 361.7 L-242.7 368.9 L-240.4 376.4 L-238.2 384.0 L-236.2 392.0 L-234.5 400.4 L-233.0 409.2 L-231.7 418.5 L-230.8 428.3 L-230.2 438.8 L-230.0 450.0 L-230.2 460.9 L-230.9 471.1 L-231.9 480.7 L-233.3 489.8 L-235.0 498.4 L-237.0 506.6 L-239.3 514.4 L-241.7 521.9 L-244.2 529.1 L-246.9 536.2 L-249.7 543.1 L-252.5 550.0 L-255.3 556.9 L-258.1 563.8 L-260.8 570.9 L-263.3 578.1 L-265.7 585.6 L-268.0 593.4 L-270.0 601.6 L-271.7 610.2 L-273.1 619.3 L-274.1 628.9 L-274.8 639.1 L-275.0 650.0 L-275.0 1046.8 L0.0 1046.8 Z"/>
<path class="fl" fill="#c1272d" d="M0.0 20.0 L5.4 20.0 L10.6 19.9 L15.7 19.8 L20.6 19.6 L25.3 19.4 L29.8 19.1 L34.2 18.8 L38.5 18.4 L42.5 17.9 L46.5 17.3 L50.3 16.7 L53.9 16.0 L57.4 15.2 L60.8 14.3 L64.0 13.4 L67.1 12.3 L70.1 11.1 L73.0 9.9 L75.8 8.5 L78.4 7.0 L81.0 5.5 L83.4 3.8 L85.8 1.9 L88.0 0.0 L220.6 45.0 L219.2 49.4 L217.9 53.8 L216.7 58.2 L215.7 62.7 L214.7 67.2 L213.9 71.7 L213.2 76.3 L212.6 80.8 L212.0 85.4 L211.6 90.0 L211.2 94.6 L210.8 99.3 L210.6 103.9 L210.4 108.6 L210.2 113.2 L210.1 117.9 L210.0 122.5 L210.0 127.2 L210.0 131.8 L210.0 136.5 L210.0 141.1 L210.0 145.8 L210.0 150.4 L210.0 155.0 L210.1 160.6 L210.5 166.2 L211.1 171.8 L211.9 177.3 L213.0 182.7 L214.3 188.0 L215.8 193.3 L217.6 198.3 L219.5 203.3 L221.6 208.0 L224.0 212.5 L226.5 216.9 L229.2 221.0 L232.1 224.8 L235.2 228.4 L238.4 231.7 L241.9 234.6 L245.4 237.3 L249.2 239.5 L253.1 241.5 L257.1 243.0 L261.3 244.1 L265.6 244.8 L270.0 245.0 L269.8 256.2 L269.2 266.7 L268.3 276.5 L267.0 285.8 L265.5 294.6 L263.8 303.0 L261.8 311.0 L259.6 318.6 L257.3 326.1 L255.0 333.3 L252.5 340.4 L250.0 347.5 L247.5 354.6 L245.0 361.7 L242.7 368.9 L240.4 376.4 L238.2 384.0 L236.2 392.0 L234.5 400.4 L233.0 409.2 L231.7 418.5 L230.8 428.3 L230.2 438.8 L230.0 450.0 L230.2 460.9 L230.9 471.1 L231.9 480.7 L233.3 489.8 L235.0 498.4 L237.0 506.6 L239.3 514.4 L241.7 521.9 L244.2 529.1 L246.9 536.2 L249.7 543.1 L252.5 550.0 L255.3 556.9 L258.1 563.8 L260.8 570.9 L263.3 578.1 L265.7 585.6 L268.0 593.4 L270.0 601.6 L271.7 610.2 L273.1 619.3 L274.1 628.9 L274.8 639.1 L275.0 650.0 L275.0 1046.8 L0.0 1046.8 Z"/>
<defs><linearGradient id="pc1-sheen" x1="0" y1="0" x2="1" y2="0"><stop offset="0" stop-color="#000" stop-opacity="0.28"/><stop offset="0.3" stop-color="#fff" stop-opacity="0.16"/><stop offset="0.5" stop-color="#fff" stop-opacity="0"/><stop offset="0.72" stop-color="#000" stop-opacity="0.22"/><stop offset="0.88" stop-color="#fff" stop-opacity="0.1"/><stop offset="1" stop-color="#000" stop-opacity="0.3"/></linearGradient></defs>
<rect clip-path="url(#pc1)" x="-275.0" y="0.0" width="550.0" height="1046.8" fill="url(#pc1-sheen)"/>
<path class="fl" fill="none" stroke-width="2" d="M0.0 20.0 L0.0 650.0"/>
<circle class="fl" cx="0" cy="26.0" r="3" fill="#9a9b9d"/>
<path class="fs" stroke="#9a1f24" d="M0.0 1032.8 L-275.0 1032.8 L275.0 1032.8 L0.0 1032.8"/>
</g>
<text class="cap" x="215.0" y="236.0">BACK</text>
<text class="h" x="293.0" y="51.0">COLOURWAY</text>
<g transform="translate(293.0 56.0) scale(0.4)"><rect class="sw" x="0" y="0" width="35.0" height="22.5" rx="2" fill="#c1272d"/></g>
<text class="bb" x="310.0" y="59.2">BODY</text>
<text class="b" x="310.0" y="62.6">Red</text>
<text class="s" x="310.0" y="65.6">&quot;make a red velvet dress&quot;</text>
<g transform="translate(293.0 69.0) scale(0.4)"><rect class="sw" x="0" y="0" width="35.0" height="22.5" rx="2" fill="#9a1f24"/></g>
<text class="bb" x="310.0" y="72.2">THREAD</text>
<text class="b" x="310.0" y="75.6">Dark Red</text>
<text class="s" x="310.0" y="78.6">tonal thread</text>
<text class="h" x="293.0" y="86.0">CONSTRUCTION</text>
<text class="b" x="293.0" y="91.5">body hem: hemmed</text>
<text class="s" x="293.0" y="94.7">← “make a red velvet dress”</text>
<text class="b" x="293.0" y="98.9">skirt: shift</text>
<text class="s" x="293.0" y="102.1">← “make a red velvet dress”</text>
<text class="b" x="293.0" y="106.3">neckline: round</text>
<text class="s" x="293.0" y="109.5">← “make a red velvet dress”</text>
<text class="b" x="293.0" y="113.7">back: closed</text>
<text class="s" x="293.0" y="116.9">← “make a red velvet dress”</text>
<text class="b" x="293.0" y="121.1">closure: back zip</text>
<text class="s" x="293.0" y="124.3">← “make a red velvet dress”</text>
<text class="b" x="293.0" y="128.5">armhole finish: facing</text>
<text class="s" x="293.0" y="131.7">← “make a red velvet dress”</text>
<text class="b" x="293.0" y="135.9">neck finish: facing</text>
<text class="s" x="293.0" y="139.1">← “make a red velvet dress”</text>
<text class="ok" x="293.0" y="144.3">✓ 9/9 construction checks passed</text>
<text class="s" x="293.0" y="148.8">note: velvet has a nap: every piece is cut the same way up (the layout only mirrors pairs, it never turns a piece)</text>
<text class="h" x="15.0" y="245.0">BILL OF MATERIALS</text>
<text class="bb" x="15.0" y="250.5">1.29 m</text>
<text class="b" x="37.0" y="250.5">velvet · Red, 140 cm wide</text>
<text class="bb" x="15.0" y="255.3">1</text>
<text class="b" x="37.0" y="255.3">invisible zip, 65 cm, Red</text>
<text class="bb" x="15.0" y="260.1">1</text>
<text class="b" x="37.0" y="260.1">hook and eye at the neck, Red</text>
<text class="bb" x="15.0" y="264.9">—</text>
<text class="b" x="37.0" y="264.9">fusible interfacing for front armhole facing, back armhole facing, front neck facing, back neck facing</text>
<text class="bb" x="15.0" y="269.7">1 spool</text>
<text class="b" x="37.0" y="269.7">polyester thread, Dark Red</text>
<text class="s" x="15.0" y="275.5">seam allowance 15 mm and hems 40 mm included in every piece</text>
<path class="rule" d="M15.0 283.5 L405.0 283.5"/>
<text class="h" x="15.0" y="288.5">CUTTING LAYOUT</text>
<g class="sheet" transform="translate(15.0 296.5) scale(0.11)">
<rect class="fabric" x="0.0" y="0.0" width="1400.0" height="1285.4"/>
<!-- back  [block/dress]  "make a red velvet dress" -->
<g>
<path class="cut" style="fill:#c1272d" d="M586.0 22.0 L606.3 21.9 L611.4 21.9 L616.3 21.8 L621.0 21.6 L625.5 21.4 L629.8 21.1 L633.9 20.8 L637.9 20.4 L641.6 20.0 L645.2 19.5 L648.6 18.9 L651.8 18.3 L654.9 17.6 L657.7 16.8 L660.5 16.0 L663.0 15.2 L665.4 14.2 L667.7 13.2 L669.8 12.2 L671.8 11.1 L673.7 9.9 L675.5 8.6 L677.3 7.3 L685.7 0.0 L840.4 52.5 L834.5 70.7 L833.3 74.7 L832.3 78.8 L831.3 82.9 L830.5 87.0 L829.7 91.2 L829.0 95.4 L828.4 99.7 L827.9 104.0 L827.5 108.4 L827.1 112.8 L826.8 117.2 L826.6 121.6 L826.4 126.1 L826.2 130.6 L826.1 135.1 L826.0 139.7 L826.0 144.2 L826.0 148.8 L826.0 153.4 L826.0 158.1 L826.0 162.7 L826.0 167.3 L826.0 171.8 L826.1 176.9 L826.4 181.9 L827.0 186.8 L827.7 191.7 L828.7 196.5 L829.8 201.1 L831.1 205.7 L832.6 210.1 L834.3 214.4 L836.1 218.4 L838.1 222.3 L840.2 225.9 L842.5 229.3 L844.8 232.4 L847.2 235.2 L849.7 237.7 L852.2 239.9 L854.8 241.8 L857.4 243.4 L860.0 244.6 L862.7 245.6 L865.4 246.4 L868.1 246.8 L886.3 247.7 L885.8 273.7 L885.2 284.7 L884.2 295.2 L882.9 305.0 L881.2 314.4 L879.4 323.3 L877.3 331.7 L875.0 339.8 L872.6 347.6 L870.2 355.1 L867.7 362.4 L865.1 369.5 L862.7 376.5 L860.3 383.4 L857.9 390.4 L855.8 397.5 L853.7 404.8 L851.9 412.3 L850.2 420.2 L848.8 428.4 L847.6 437.2 L846.7 446.4 L846.2 456.3 L846.0 466.9 L846.2 477.2 L846.8 486.8 L847.8 495.7 L849.1 504.2 L850.7 512.1 L852.5 519.7 L854.6 527.0 L856.9 534.0 L859.3 540.9 L861.9 547.7 L864.6 554.5 L867.4 561.3 L870.2 568.2 L873.1 575.3 L875.8 582.7 L878.5 590.3 L881.1 598.2 L883.5 606.6 L885.6 615.3 L887.4 624.5 L888.9 634.3 L890.1 644.5 L890.8 655.4 L891.0 666.8 L891.0 1103.7 L586.0 1103.7 Z"/>
<path class="stitch" d="M601.0 37.0 L606.4 36.9 L611.6 36.9 L616.7 36.8 L621.6 36.6 L626.3 36.4 L630.8 36.1 L635.2 35.7 L639.5 35.3 L643.5 34.9 L647.5 34.3 L651.3 33.7 L654.9 33.0 L658.4 32.2 L661.8 31.3 L665.0 30.3 L668.1 29.3 L671.1 28.1 L674.0 26.8 L676.8 25.5 L679.4 24.0 L682.0 22.4 L684.4 20.7 L686.8 18.9 L689.0 17.0 L821.6 62.0 L820.2 66.3 L818.9 70.7 L817.7 75.2 L816.7 79.7 L815.7 84.2 L814.9 88.7 L814.2 93.2 L813.6 97.8 L813.0 102.4 L812.6 107.0 L812.2 111.6 L811.8 116.2 L811.6 120.9 L811.4 125.5 L811.2 130.2 L811.1 134.8 L811.0 139.5 L811.0 144.1 L811.0 148.8 L811.0 153.4 L811.0 158.1 L811.0 162.7 L811.0 167.3 L811.0 172.0 L811.1 177.6 L811.5 183.2 L812.1 188.7 L812.9 194.3 L814.0 199.7 L815.3 205.0 L816.8 210.2 L818.6 215.3 L820.5 220.2 L822.6 225.0 L825.0 229.5 L827.5 233.8 L830.2 237.9 L833.1 241.8 L836.2 245.4 L839.4 248.6 L842.9 251.6 L846.4 254.2 L850.2 256.5 L854.1 258.4 L858.1 259.9 L862.3 261.1 L866.6 261.7 L871.0 262.0 L870.8 273.1 L870.2 283.6 L869.3 293.5 L868.0 302.8 L866.5 311.6 L864.8 319.9 L862.8 327.9 L860.6 335.6 L858.3 343.0 L856.0 350.3 L853.5 357.4 L851.0 364.5 L848.5 371.5 L846.0 378.6 L843.7 385.9 L841.4 393.3 L839.2 401.0 L837.2 409.0 L835.5 417.4 L834.0 426.2 L832.7 435.5 L831.8 445.3 L831.2 455.8 L831.0 467.0 L831.2 477.9 L831.9 488.1 L832.9 497.7 L834.3 506.8 L836.0 515.4 L838.0 523.5 L840.3 531.3 L842.7 538.8 L845.2 546.1 L847.9 553.1 L850.7 560.1 L853.5 567.0 L856.3 573.8 L859.1 580.8 L861.8 587.9 L864.3 595.1 L866.7 602.6 L869.0 610.4 L871.0 618.6 L872.7 627.1 L874.1 636.2 L875.1 645.8 L875.8 656.1 L876.0 667.0 L876.0 1063.7 L601.0 1063.7 Z"/>
<path class="mark" d="M831.0 467.0 L846.0 467.2"/>
<path class="dash" d="M601.0 37.0 L601.0 667.0"/>
<path class="grain" d="M738.5 165.6 L738.5 938.2 M736.5 169.6 L738.5 165.6 L740.5 169.6 M736.5 934.2 L738.5 938.2 L740.5 934.2"/>
<rect class="lbg" x="713.8" y="542.9" width="49.5" height="25" rx="2"/>
<text class="label" x="738.5" y="551.9">BACK</text>
<text class="sub" x="738.5" y="558.9">Cut 2 · velvet</text>
<text class="sub" x="738.5" y="564.9">size M · block/dress</text>
</g>
<!-- back  [block/dress]  "make a red velvet dress" -->
<g>
<path class="cut" style="fill:#c1272d" d="M1202.0 22.0 L1181.7 21.9 L1176.6 21.9 L1171.7 21.8 L1167.0 21.6 L1162.5 21.4 L1158.2 21.1 L1154.1 20.8 L1150.1 20.4 L1146.4 20.0 L1142.8 19.5 L1139.4 18.9 L1136.2 18.3 L1133.1 17.6 L1130.3 16.8 L1127.5 16.0 L1125.0 15.2 L1122.6 14.2 L1120.3 13.2 L1118.2 12.2 L1116.2 11.1 L1114.3 9.9 L1112.5 8.6 L1110.7 7.3 L1102.3 0.0 L947.6 52.5 L953.5 70.7 L954.7 74.7 L955.7 78.8 L956.7 82.9 L957.5 87.0 L958.3 91.2 L959.0 95.4 L959.6 99.7 L960.1 104.0 L960.5 108.4 L960.9 112.8 L961.2 117.2 L961.4 121.6 L961.6 126.1 L961.8 130.6 L961.9 135.1 L962.0 139.7 L962.0 144.2 L962.0 148.8 L962.0 153.4 L962.0 158.1 L962.0 162.7 L962.0 167.3 L962.0 171.8 L961.9 176.9 L961.6 181.9 L961.0 186.8 L960.3 191.7 L959.3 196.5 L958.2 201.1 L956.9 205.7 L955.4 210.1 L953.7 214.4 L951.9 218.4 L949.9 222.3 L947.8 225.9 L945.5 229.3 L943.2 232.4 L940.8 235.2 L938.3 237.7 L935.8 239.9 L933.2 241.8 L930.6 243.4 L928.0 244.6 L925.3 245.6 L922.6 246.4 L919.9 246.8 L901.7 247.7 L902.2 273.7 L902.8 284.7 L903.8 295.2 L905.1 305.0 L906.8 314.4 L908.6 323.3 L910.7 331.7 L913.0 339.8 L915.4 347.6 L917.8 355.1 L920.3 362.4 L922.9 369.5 L925.3 376.5 L927.7 383.4 L930.1 390.4 L932.2 397.5 L934.3 404.8 L936.1 412.3 L937.8 420.2 L939.2 428.4 L940.4 437.2 L941.3 446.4 L941.8 456.3 L942.0 466.9 L941.8 477.2 L941.2 486.8 L940.2 495.7 L938.9 504.2 L937.3 512.1 L935.5 519.7 L933.4 527.0 L931.1 534.0 L928.7 540.9 L926.1 547.7 L923.4 554.5 L920.6 561.3 L917.8 568.2 L914.9 575.3 L912.2 582.7 L909.5 590.3 L906.9 598.2 L904.5 606.6 L902.4 615.3 L900.6 624.5 L899.1 634.3 L897.9 644.5 L897.2 655.4 L897.0 666.8 L897.0 1103.7 L1202.0 1103.7 Z"/>
<path class="stitch" d="M1187.0 37.0 L1181.6 36.9 L1176.4 36.9 L1171.3 36.8 L1166.4 36.6 L1161.7 36.4 L1157.2 36.1 L1152.8 35.7 L1148.5 35.3 L1144.5 34.9 L1140.5 34.3 L1136.7 33.7 L1133.1 33.0 L1129.6 32.2 L1126.2 31.3 L1123.0 30.3 L1119.9 29.3 L1116.9 28.1 L1114.0 26.8 L1111.2 25.5 L1108.6 24.0 L1106.0 22.4 L1103.6 20.7 L1101.2 18.9 L1099.0 17.0 L966.4 62.0 L967.8 66.3 L969.1 70.7 L970.3 75.2 L971.3 79.7 L972.3 84.2 L973.1 88.7 L973.8 93.2 L974.4 97.8 L975.0 102.4 L975.4 107.0 L975.8 111.6 L976.2 116.2 L976.4 120.9 L976.6 125.5 L976.8 130.2 L976.9 134.8 L977.0 139.5 L977.0 144.1 L977.0 148.8 L977.0 153.4 L977.0 158.1 L977.0 162.7 L977.0 167.3 L977.0 172.0 L976.9 177.6 L976.5 183.2 L975.9 188.7 L975.1 194.3 L974.0 199.7 L972.7 205.0 L971.2 210.2 L969.4 215.3 L967.5 220.2 L965.4 225.0 L963.0 229.5 L960.5 233.8 L957.8 237.9 L954.9 241.8 L951.8 245.4 L948.6 248.6 L945.1 251.6 L941.6 254.2 L937.8 256.5 L933.9 258.4 L929.9 259.9 L925.7 261.1 L921.4 261.7 L917.0 262.0 L917.2 273.1 L917.8 283.6 L918.7 293.5 L920.0 302.8 L921.5 311.6 L923.2 319.9 L925.2 327.9 L927.4 335.6 L929.7 343.0 L932.0 350.3 L934.5 357.4 L937.0 364.5 L939.5 371.5 L942.0 378.6 L944.3 385.9 L946.6 393.3 L948.8 401.0 L950.8 409.0 L952.5 417.4 L954.0 426.2 L955.3 435.5 L956.2 445.3 L956.8 455.8 L957.0 467.0 L956.8 477.9 L956.1 488.1 L955.1 497.7 L953.7 506.8 L952.0 515.4 L950.0 523.5 L947.7 531.3 L945.3 538.8 L942.8 546.1 L940.1 553.1 L937.3 560.1 L934.5 567.0 L931.7 573.8 L928.9 580.8 L926.2 587.9 L923.7 595.1 L921.3 602.6 L919.0 610.4 L917.0 618.6 L915.3 627.1 L913.9 636.2 L912.9 645.8 L912.2 656.1 L912.0 667.0 L912.0 1063.7 L1187.0 1063.7 Z"/>
<path class="mark" d="M957.0 467.0 L942.0 467.2"/>
<path class="dash" d="M1187.0 37.0 L1187.0 667.0"/>
<path class="grain" d="M1049.5 165.6 L1049.5 938.2 M1047.5 169.6 L1049.5 165.6 L1051.5 169.6 M1047.5 934.2 L1049.5 938.2 L1051.5 934.2"/>
<rect class="lbg" x="1024.8" y="542.9" width="49.5" height="25" rx="2"/>
<text class="label" x="1049.5" y="551.9">BACK</text>
<text class="sub" x="1049.5" y="558.9">Cut 2 · velvet</text>
<text class="sub" x="1049.5" y="564.9">size M · block/dress</text>
</g>
<!-- front  [block/dress]  "make a red velvet dress" -->
<g>
<path class="cut" style="fill:#c1272d" d="M290.0 95.7 L295.0 95.5 L299.9 95.0 L304.7 94.2 L309.3 93.0 L313.9 91.6 L318.3 89.9 L322.6 87.8 L326.7 85.5 L330.7 83.0 L334.5 80.2 L338.1 77.1 L341.5 73.9 L344.7 70.4 L347.7 66.7 L350.4 62.8 L353.0 58.7 L355.2 54.4 L357.2 50.0 L358.9 45.4 L360.4 40.7 L361.5 35.9 L362.3 30.9 L362.8 25.9 L363.7 0.0 L529.5 56.3 L523.3 74.8 L521.9 79.1 L520.6 83.5 L519.3 87.8 L518.0 92.2 L516.8 96.5 L515.6 100.9 L514.5 105.3 L513.4 109.7 L512.4 114.1 L511.4 118.5 L510.5 122.9 L509.7 127.3 L508.9 131.7 L508.2 136.1 L507.5 140.5 L507.0 144.9 L506.4 149.3 L506.0 153.7 L505.7 158.1 L505.4 162.5 L505.2 166.9 L505.0 171.3 L505.0 175.6 L505.1 180.6 L505.5 185.4 L506.1 190.2 L507.0 195.0 L508.1 199.7 L509.4 204.3 L510.9 208.8 L512.6 213.1 L514.5 217.3 L516.6 221.3 L518.9 225.2 L521.4 228.8 L524.0 232.1 L526.7 235.2 L529.6 238.1 L532.6 240.7 L535.7 243.0 L538.8 245.0 L542.1 246.7 L545.5 248.1 L548.9 249.2 L552.5 250.0 L556.2 250.5 L575.3 251.4 L574.8 277.4 L574.2 288.5 L573.2 298.9 L571.9 308.8 L570.2 318.1 L568.4 327.0 L566.3 335.5 L564.0 343.6 L561.6 351.3 L559.2 358.8 L556.7 366.1 L554.1 373.2 L551.7 380.2 L549.3 387.2 L546.9 394.2 L544.8 401.3 L542.7 408.6 L540.9 416.1 L539.2 423.9 L537.8 432.2 L536.6 440.9 L535.7 450.2 L535.2 460.1 L535.0 470.7 L535.2 481.0 L535.8 490.5 L536.8 499.5 L538.1 507.9 L539.7 515.9 L541.5 523.4 L543.6 530.7 L545.9 537.7 L548.3 544.6 L550.9 551.4 L553.6 558.2 L556.4 565.0 L559.2 572.0 L562.1 579.1 L564.8 586.4 L567.5 594.0 L570.1 602.0 L572.5 610.3 L574.6 619.1 L576.4 628.3 L577.9 638.0 L579.1 648.3 L579.8 659.2 L580.0 670.5 L580.0 1107.5 L290.0 1107.5 L0.0 1107.5 L0.0 670.5 L0.2 659.2 L0.9 648.3 L2.1 638.0 L3.6 628.3 L5.4 619.1 L7.5 610.3 L9.9 602.0 L12.5 594.0 L15.2 586.4 L17.9 579.1 L20.8 572.0 L23.6 565.0 L26.4 558.2 L29.1 551.4 L31.7 544.6 L34.1 537.7 L36.4 530.7 L38.5 523.4 L40.3 515.9 L41.9 507.9 L43.2 499.5 L44.2 490.5 L44.8 481.0 L45.0 470.7 L44.8 460.1 L44.3 450.2 L43.4 440.9 L42.2 432.2 L40.8 423.9 L39.1 416.1 L37.3 408.6 L35.2 401.3 L33.1 394.2 L30.7 387.2 L28.3 380.2 L25.9 373.2 L23.3 366.1 L20.8 358.8 L18.4 351.3 L16.0 343.6 L13.7 335.5 L11.6 327.0 L9.8 318.1 L8.1 308.8 L6.8 298.9 L5.8 288.5 L5.2 277.4 L4.7 251.4 L23.8 250.5 L27.5 250.0 L31.1 249.2 L34.5 248.1 L37.9 246.7 L41.2 245.0 L44.3 243.0 L47.4 240.7 L50.4 238.1 L53.3 235.2 L56.0 232.1 L58.6 228.8 L61.1 225.2 L63.4 221.3 L65.5 217.3 L67.4 213.1 L69.1 208.8 L70.6 204.3 L71.9 199.7 L73.0 195.0 L73.9 190.2 L74.5 185.4 L74.9 180.6 L75.0 175.6 L75.0 171.3 L74.8 166.9 L74.6 162.5 L74.3 158.1 L74.0 153.7 L73.6 149.3 L73.0 144.9 L72.5 140.5 L71.8 136.1 L71.1 131.7 L70.3 127.3 L69.5 122.9 L68.6 118.5 L67.6 114.1 L66.6 109.7 L65.5 105.3 L64.4 100.9 L63.2 96.5 L62.0 92.2 L60.7 87.8 L59.4 83.5 L58.1 79.1 L56.7 74.8 L50.5 56.3 L216.3 0.0 L217.2 25.9 L217.7 30.9 L218.5 35.9 L219.6 40.7 L221.1 45.4 L222.8 50.0 L224.8 54.4 L227.0 58.7 L229.6 62.8 L232.3 66.7 L235.3 70.4 L238.5 73.9 L241.9 77.1 L245.5 80.2 L249.3 83.0 L253.3 85.5 L257.4 87.8 L261.7 89.9 L266.1 91.6 L270.7 93.0 L275.3 94.2 L280.1 95.0 L285.0 95.5 Z"/>
<path class="stitch" d="M290.0 110.7 L296.0 110.5 L301.9 109.9 L307.7 108.9 L313.4 107.5 L318.9 105.7 L324.3 103.6 L329.4 101.2 L334.4 98.4 L339.2 95.3 L343.8 92.0 L348.1 88.3 L352.2 84.3 L356.1 80.1 L359.7 75.7 L363.0 71.0 L366.0 66.1 L368.7 61.0 L371.1 55.7 L373.1 50.3 L374.9 44.6 L376.2 38.8 L377.2 32.9 L377.8 26.9 L378.0 20.7 L510.6 65.7 L509.1 70.1 L507.6 74.6 L506.2 79.0 L504.9 83.5 L503.6 88.0 L502.3 92.5 L501.1 97.1 L499.9 101.6 L498.8 106.2 L497.7 110.8 L496.7 115.4 L495.8 120.0 L494.9 124.6 L494.1 129.2 L493.3 133.8 L492.7 138.5 L492.1 143.1 L491.5 147.7 L491.1 152.4 L490.7 157.1 L490.4 161.7 L490.2 166.4 L490.0 171.0 L490.0 175.7 L490.1 181.3 L490.6 186.9 L491.3 192.5 L492.3 198.0 L493.5 203.4 L495.0 208.8 L496.8 214.0 L498.8 219.0 L501.1 224.0 L503.6 228.7 L506.3 233.2 L509.2 237.6 L512.4 241.7 L515.8 245.5 L519.4 249.1 L523.2 252.4 L527.2 255.3 L531.3 258.0 L535.7 260.3 L540.2 262.2 L544.9 263.7 L549.8 264.8 L554.8 265.5 L560.0 265.7 L559.8 276.9 L559.2 287.4 L558.3 297.2 L557.0 306.5 L555.5 315.3 L553.8 323.7 L551.8 331.7 L549.6 339.4 L547.3 346.8 L545.0 354.0 L542.5 361.1 L540.0 368.2 L537.5 375.3 L535.0 382.4 L532.7 389.6 L530.4 397.1 L528.2 404.7 L526.2 412.7 L524.5 421.1 L523.0 429.9 L521.7 439.2 L520.8 449.1 L520.2 459.5 L520.0 470.7 L520.2 481.6 L520.9 491.8 L521.9 501.4 L523.3 510.5 L525.0 519.1 L527.0 527.3 L529.3 535.1 L531.7 542.6 L534.2 549.8 L536.9 556.9 L539.7 563.8 L542.5 570.7 L545.3 577.6 L548.1 584.5 L550.8 591.6 L553.3 598.9 L555.7 606.3 L558.0 614.1 L560.0 622.3 L561.7 630.9 L563.1 640.0 L564.1 649.6 L564.8 659.8 L565.0 670.7 L565.0 1067.5 L290.0 1067.5 L15.0 1067.5 L15.0 670.7 L15.2 659.8 L15.9 649.6 L16.9 640.0 L18.3 630.9 L20.0 622.3 L22.0 614.1 L24.3 606.3 L26.7 598.9 L29.2 591.6 L31.9 584.5 L34.7 577.6 L37.5 570.7 L40.3 563.8 L43.1 556.9 L45.8 549.8 L48.3 542.6 L50.7 535.1 L53.0 527.3 L55.0 519.1 L56.7 510.5 L58.1 501.4 L59.1 491.8 L59.8 481.6 L60.0 470.7 L59.8 459.5 L59.2 449.1 L58.3 439.2 L57.0 429.9 L55.5 421.1 L53.8 412.7 L51.8 404.7 L49.6 397.1 L47.3 389.6 L45.0 382.4 L42.5 375.3 L40.0 368.2 L37.5 361.1 L35.0 354.0 L32.7 346.8 L30.4 339.4 L28.2 331.7 L26.2 323.7 L24.5 315.3 L23.0 306.5 L21.7 297.2 L20.8 287.4 L20.2 276.9 L20.0 265.7 L25.2 265.5 L30.2 264.8 L35.1 263.7 L39.8 262.2 L44.3 260.3 L48.7 258.0 L52.8 255.3 L56.8 252.4 L60.6 249.1 L64.2 245.5 L67.6 241.7 L70.8 237.6 L73.7 233.2 L76.4 228.7 L78.9 224.0 L81.2 219.0 L83.2 214.0 L85.0 208.8 L86.5 203.4 L87.7 198.0 L88.7 192.5 L89.4 186.9 L89.9 181.3 L90.0 175.7 L90.0 171.0 L89.8 166.4 L89.6 161.7 L89.3 157.1 L88.9 152.4 L88.5 147.7 L87.9 143.1 L87.3 138.5 L86.7 133.8 L85.9 129.2 L85.1 124.6 L84.2 120.0 L83.3 115.4 L82.3 110.8 L81.2 106.2 L80.1 101.6 L78.9 97.1 L77.7 92.5 L76.4 88.0 L75.1 83.5 L73.8 79.0 L72.4 74.6 L70.9 70.1 L69.4 65.7 L202.0 20.7 L202.2 26.9 L202.8 32.9 L203.8 38.8 L205.1 44.6 L206.9 50.3 L208.9 55.7 L211.3 61.0 L214.0 66.1 L217.0 71.0 L220.3 75.7 L223.9 80.1 L227.8 84.3 L231.9 88.3 L236.2 92.0 L240.8 95.3 L245.6 98.4 L250.6 101.2 L255.7 103.6 L261.1 105.7 L266.6 107.5 L272.3 108.9 L278.1 109.9 L284.0 110.5 Z"/>
<path class="mark" d="M520.0 470.7 L535.0 471.0"/>
<path class="mark" d="M60.0 470.7 L45.0 471.0"/>
<path class="centre" d="M290.0 1067.5 L290.0 110.7"/>
<path class="grain" d="M145.0 166.1 L145.0 941.3 M143.0 170.1 L145.0 166.1 L147.0 170.1 M143.0 937.3 L145.0 941.3 L147.0 937.3"/>
<rect class="lbg" x="249.3" y="544.7" width="81.4" height="25" rx="2"/>
<text class="label" x="290.0" y="553.7">FRONT</text>
<text class="sub" x="290.0" y="560.7">Cut 1 (unfolded) · velvet</text>
<text class="sub" x="290.0" y="566.7">size M · block/dress</text>
</g>
<!-- front armhole facing  [armhole_finish/facing]  "make a red velvet dress" -->
<g>
<path class="cut" style="fill:#c1272d" d="M1312.5 637.4 L1306.3 655.9 L1304.9 660.3 L1303.6 664.6 L1302.3 668.9 L1301.0 673.3 L1299.8 677.6 L1298.6 682.0 L1297.5 686.4 L1296.4 690.8 L1295.4 695.2 L1294.4 699.6 L1293.5 704.0 L1292.7 708.4 L1291.9 712.8 L1291.2 717.2 L1290.5 721.6 L1289.9 726.0 L1289.4 730.5 L1289.0 734.9 L1288.7 739.3 L1288.4 743.7 L1288.2 748.1 L1288.0 752.4 L1288.0 756.7 L1288.1 761.7 L1288.5 766.5 L1289.1 771.3 L1290.0 776.1 L1291.1 780.8 L1292.4 785.4 L1293.9 789.9 L1295.6 794.2 L1297.5 798.4 L1299.6 802.5 L1301.9 806.3 L1304.4 809.9 L1307.0 813.2 L1309.7 816.4 L1312.6 819.2 L1315.6 821.8 L1318.7 824.1 L1321.8 826.1 L1325.1 827.8 L1328.5 829.2 L1331.9 830.3 L1335.5 831.1 L1339.2 831.6 L1359.7 832.6 L1350.9 911.2 L1332.1 911.4 L1321.2 909.9 L1310.7 907.5 L1300.6 904.2 L1291.0 900.2 L1281.9 895.4 L1273.4 890.1 L1265.5 884.2 L1258.2 877.9 L1251.5 871.2 L1245.3 864.2 L1239.7 856.9 L1234.5 849.4 L1229.9 841.7 L1225.8 833.8 L1222.1 825.7 L1218.8 817.5 L1216.0 809.2 L1213.6 800.7 L1211.6 792.1 L1210.0 783.4 L1208.9 774.7 L1208.2 765.8 L1208.0 757.4 L1208.1 750.9 L1208.2 745.1 L1208.5 739.2 L1208.9 733.5 L1209.3 727.7 L1209.9 722.0 L1210.5 716.3 L1211.3 710.7 L1212.1 705.0 L1213.0 699.5 L1214.0 694.0 L1215.0 688.5 L1216.1 683.0 L1217.3 677.6 L1218.6 672.3 L1219.9 666.9 L1221.2 661.7 L1222.6 656.4 L1224.1 651.2 L1225.6 646.1 L1227.1 641.0 L1228.7 635.9 L1230.4 630.9 L1236.8 611.7 Z"/>
<path class="stitch" d="M1293.6 646.8 L1292.1 651.2 L1290.6 655.7 L1289.2 660.2 L1287.9 664.6 L1286.6 669.1 L1285.3 673.7 L1284.1 678.2 L1282.9 682.7 L1281.8 687.3 L1280.7 691.9 L1279.7 696.5 L1278.8 701.1 L1277.9 705.7 L1277.1 710.3 L1276.3 714.9 L1275.7 719.6 L1275.1 724.2 L1274.5 728.9 L1274.1 733.5 L1273.7 738.2 L1273.4 742.8 L1273.2 747.5 L1273.0 752.2 L1273.0 756.8 L1273.1 762.4 L1273.6 768.0 L1274.3 773.6 L1275.3 779.1 L1276.5 784.5 L1278.0 789.9 L1279.8 795.1 L1281.8 800.2 L1284.1 805.1 L1286.6 809.8 L1289.3 814.4 L1292.2 818.7 L1295.4 822.8 L1298.8 826.6 L1302.4 830.2 L1306.2 833.5 L1310.2 836.5 L1314.3 839.1 L1318.7 841.4 L1323.2 843.3 L1327.9 844.8 L1332.8 845.9 L1337.8 846.6 L1343.0 846.8 L1336.4 906.3 L1332.5 906.3 L1322.1 904.9 L1312.0 902.6 L1302.3 899.5 L1293.1 895.6 L1284.4 891.1 L1276.2 885.9 L1268.6 880.3 L1261.6 874.2 L1255.1 867.8 L1249.1 861.0 L1243.7 854.0 L1238.8 846.7 L1234.3 839.2 L1230.2 831.6 L1226.7 823.8 L1223.5 815.8 L1220.7 807.7 L1218.4 799.5 L1216.5 791.1 L1215.0 782.7 L1213.9 774.1 L1213.2 765.5 L1213.0 757.3 L1213.1 751.0 L1213.2 745.3 L1213.5 739.5 L1213.8 733.8 L1214.3 728.1 L1214.9 722.5 L1215.5 716.9 L1216.2 711.3 L1217.0 705.8 L1217.9 700.3 L1218.9 694.9 L1219.9 689.4 L1221.0 684.1 L1222.2 678.7 L1223.4 673.4 L1224.7 668.2 L1226.1 662.9 L1227.4 657.8 L1228.9 652.6 L1230.4 647.5 L1231.9 642.5 L1233.5 637.4 L1235.1 632.5 L1236.8 627.5 Z"/>
<path class="grain" d="M1283.8 656.6 L1283.8 866.4 M1281.8 660.6 L1283.8 656.6 L1285.8 660.6 M1281.8 862.4 L1283.8 866.4 L1285.8 862.4"/>
<rect class="lbg" x="1218.8" y="752.5" width="130.0" height="25" rx="2"/>
<text class="label" x="1283.8" y="761.5">FRONT ARMHOLE FACING</text>
<text class="sub" x="1283.8" y="768.5">Cut 2 · velvet</text>
<text class="sub" x="1283.8" y="774.5">size M · armhole_finish/facing</text>
</g>
<!-- front armhole facing  [armhole_finish/facing]  "make a red velvet dress" -->
<g>
<path class="cut" style="fill:#c1272d" d="M1255.1 943.1 L1261.3 961.6 L1262.7 965.9 L1264.1 970.2 L1265.4 974.6 L1266.7 978.9 L1267.9 983.3 L1269.1 987.7 L1270.2 992.0 L1271.3 996.4 L1272.3 1000.8 L1273.3 1005.2 L1274.2 1009.6 L1275.0 1014.0 L1275.8 1018.5 L1276.5 1022.9 L1277.2 1027.3 L1277.7 1031.7 L1278.2 1036.1 L1278.7 1040.5 L1279.0 1044.9 L1279.3 1049.3 L1279.5 1053.7 L1279.6 1058.1 L1279.7 1062.3 L1279.6 1067.3 L1279.2 1072.2 L1278.6 1077.0 L1277.7 1081.8 L1276.6 1086.5 L1275.3 1091.1 L1273.8 1095.5 L1272.1 1099.9 L1270.1 1104.1 L1268.0 1108.1 L1265.7 1111.9 L1263.3 1115.5 L1260.7 1118.9 L1257.9 1122.0 L1255.1 1124.9 L1252.1 1127.4 L1249.0 1129.7 L1245.8 1131.7 L1242.6 1133.4 L1239.2 1134.9 L1235.8 1136.0 L1232.2 1136.8 L1228.5 1137.3 L1208.0 1138.2 L1216.8 1216.8 L1235.5 1217.0 L1246.5 1215.5 L1257.0 1213.1 L1267.1 1209.9 L1276.7 1205.8 L1285.8 1201.1 L1294.3 1195.7 L1302.2 1189.8 L1309.5 1183.5 L1316.2 1176.8 L1322.4 1169.8 L1328.0 1162.6 L1333.1 1155.0 L1337.8 1147.3 L1341.9 1139.4 L1345.6 1131.4 L1348.9 1123.2 L1351.7 1114.8 L1354.1 1106.4 L1356.1 1097.8 L1357.7 1089.1 L1358.8 1080.3 L1359.5 1071.4 L1359.7 1063.0 L1359.6 1056.6 L1359.5 1050.7 L1359.2 1044.9 L1358.8 1039.1 L1358.4 1033.3 L1357.8 1027.6 L1357.1 1021.9 L1356.4 1016.3 L1355.6 1010.7 L1354.7 1005.1 L1353.7 999.6 L1352.7 994.1 L1351.5 988.7 L1350.4 983.3 L1349.1 977.9 L1347.8 972.6 L1346.5 967.3 L1345.1 962.1 L1343.6 956.9 L1342.1 951.7 L1340.5 946.6 L1339.0 941.6 L1337.3 936.6 L1330.9 917.4 Z"/>
<path class="stitch" d="M1274.1 952.5 L1275.6 956.9 L1277.0 961.3 L1278.4 965.8 L1279.8 970.3 L1281.1 974.8 L1282.4 979.3 L1283.6 983.8 L1284.8 988.4 L1285.9 993.0 L1286.9 997.5 L1288.0 1002.1 L1288.9 1006.7 L1289.8 1011.3 L1290.6 1016.0 L1291.3 1020.6 L1292.0 1025.2 L1292.6 1029.9 L1293.2 1034.5 L1293.6 1039.2 L1294.0 1043.8 L1294.3 1048.5 L1294.5 1053.1 L1294.6 1057.8 L1294.7 1062.5 L1294.5 1068.1 L1294.1 1073.7 L1293.4 1079.3 L1292.4 1084.8 L1291.2 1090.2 L1289.7 1095.5 L1287.9 1100.7 L1285.9 1105.8 L1283.6 1110.7 L1281.1 1115.5 L1278.4 1120.0 L1275.4 1124.3 L1272.3 1128.4 L1268.9 1132.3 L1265.3 1135.9 L1261.5 1139.1 L1257.5 1142.1 L1253.3 1144.7 L1249.0 1147.0 L1244.5 1148.9 L1239.7 1150.4 L1234.9 1151.6 L1229.9 1152.2 L1224.7 1152.5 L1231.3 1212.0 L1235.2 1212.0 L1245.6 1210.6 L1255.7 1208.3 L1265.4 1205.2 L1274.6 1201.3 L1283.3 1196.7 L1291.5 1191.6 L1299.1 1185.9 L1306.1 1179.8 L1312.6 1173.4 L1318.5 1166.6 L1324.0 1159.6 L1328.9 1152.3 L1333.4 1144.9 L1337.4 1137.2 L1341.0 1129.4 L1344.2 1121.4 L1346.9 1113.3 L1349.3 1105.1 L1351.2 1096.8 L1352.7 1088.3 L1353.8 1079.8 L1354.5 1071.2 L1354.7 1063.0 L1354.6 1056.7 L1354.5 1050.9 L1354.2 1045.2 L1353.8 1039.5 L1353.4 1033.8 L1352.8 1028.2 L1352.2 1022.6 L1351.4 1017.0 L1350.6 1011.5 L1349.7 1006.0 L1348.8 1000.5 L1347.8 995.1 L1346.7 989.7 L1345.5 984.4 L1344.3 979.1 L1343.0 973.8 L1341.6 968.6 L1340.2 963.4 L1338.8 958.3 L1337.3 953.2 L1335.8 948.1 L1334.2 943.1 L1332.6 938.1 L1330.9 933.2 Z"/>
<path class="grain" d="M1283.8 962.3 L1283.8 1172.1 M1281.8 966.3 L1283.8 962.3 L1285.8 966.3 M1281.8 1168.1 L1283.8 1172.1 L1285.8 1168.1"/>
<rect class="lbg" x="1218.8" y="1058.2" width="130.0" height="25" rx="2"/>
<text class="label" x="1283.8" y="1067.2">FRONT ARMHOLE FACING</text>
<text class="sub" x="1283.8" y="1074.2">Cut 2 · velvet</text>
<text class="sub" x="1283.8" y="1080.2">size M · armhole_finish/facing</text>
</g>
<!-- back armhole facing  [armhole_finish/facing]  "make a red velvet dress" -->
<g>
<path class="cut" style="fill:#c1272d" d="M1302.4 25.7 L1296.5 43.9 L1295.4 47.9 L1294.3 52.0 L1293.4 56.1 L1292.5 60.2 L1291.8 64.4 L1291.1 68.6 L1290.5 72.9 L1290.0 77.2 L1289.5 81.6 L1289.2 86.0 L1288.9 90.4 L1288.6 94.8 L1288.4 99.3 L1288.3 103.8 L1288.1 108.3 L1288.1 112.9 L1288.0 117.5 L1288.0 122.0 L1288.0 126.6 L1288.0 131.3 L1288.0 135.9 L1288.0 140.5 L1288.0 145.0 L1288.2 150.1 L1288.5 155.1 L1289.0 160.0 L1289.8 164.9 L1290.7 169.7 L1291.8 174.3 L1293.2 178.9 L1294.7 183.3 L1296.4 187.6 L1298.2 191.6 L1300.2 195.5 L1302.3 199.1 L1304.5 202.5 L1306.8 205.6 L1309.3 208.4 L1311.7 210.9 L1314.3 213.1 L1316.8 215.0 L1319.4 216.6 L1322.1 217.8 L1324.7 218.8 L1327.4 219.6 L1330.2 220.0 L1349.7 221.0 L1340.9 299.9 L1321.9 299.6 L1310.8 297.9 L1300.3 295.0 L1290.3 291.3 L1280.9 286.7 L1272.2 281.4 L1264.3 275.6 L1257.1 269.3 L1250.5 262.7 L1244.6 255.8 L1239.2 248.7 L1234.4 241.4 L1230.0 234.0 L1226.1 226.4 L1222.6 218.7 L1219.6 210.9 L1216.9 203.0 L1214.5 195.0 L1212.6 186.9 L1211.0 178.7 L1209.7 170.4 L1208.8 162.1 L1208.2 153.6 L1208.0 145.9 L1208.0 140.7 L1208.0 136.1 L1208.0 131.4 L1208.0 126.7 L1208.0 121.8 L1208.0 116.9 L1208.1 111.8 L1208.2 106.7 L1208.3 101.5 L1208.5 96.2 L1208.7 90.8 L1209.0 85.4 L1209.4 79.8 L1209.9 74.2 L1210.5 68.5 L1211.1 62.7 L1211.9 56.9 L1212.9 51.0 L1214.0 45.0 L1215.2 38.9 L1216.6 32.8 L1218.3 26.7 L1220.1 20.5 L1226.7 0.0 Z"/>
<path class="stitch" d="M1283.6 35.2 L1282.2 39.5 L1280.9 44.0 L1279.8 48.4 L1278.7 52.9 L1277.8 57.4 L1277.0 61.9 L1276.2 66.4 L1275.6 71.0 L1275.1 75.6 L1274.6 80.2 L1274.2 84.8 L1273.9 89.4 L1273.6 94.1 L1273.4 98.7 L1273.3 103.4 L1273.1 108.0 L1273.1 112.7 L1273.0 117.3 L1273.0 122.0 L1273.0 126.7 L1273.0 131.3 L1273.0 135.9 L1273.0 140.6 L1273.0 145.2 L1273.2 150.8 L1273.5 156.4 L1274.1 162.0 L1275.0 167.5 L1276.1 172.9 L1277.4 178.2 L1278.9 183.4 L1280.6 188.5 L1282.5 193.4 L1284.7 198.2 L1287.0 202.7 L1289.5 207.0 L1292.3 211.1 L1295.2 215.0 L1298.2 218.6 L1301.5 221.8 L1304.9 224.8 L1308.5 227.4 L1312.2 229.7 L1316.1 231.6 L1320.1 233.1 L1324.3 234.3 L1328.6 234.9 L1333.0 235.2 L1326.4 294.7 L1322.4 294.6 L1311.9 293.0 L1301.8 290.3 L1292.2 286.7 L1283.3 282.3 L1275.0 277.2 L1267.4 271.7 L1260.5 265.6 L1254.2 259.3 L1248.5 252.7 L1243.3 245.8 L1238.6 238.8 L1234.4 231.6 L1230.6 224.2 L1227.3 216.8 L1224.3 209.2 L1221.6 201.5 L1219.4 193.7 L1217.5 185.8 L1215.9 177.8 L1214.7 169.8 L1213.8 161.6 L1213.2 153.4 L1213.0 145.9 L1213.0 140.7 L1213.0 136.1 L1213.0 131.4 L1213.0 126.7 L1213.0 121.8 L1213.0 116.9 L1213.1 111.9 L1213.2 106.8 L1213.3 101.6 L1213.5 96.4 L1213.7 91.1 L1214.0 85.7 L1214.4 80.2 L1214.9 74.6 L1215.4 69.0 L1216.1 63.4 L1216.9 57.6 L1217.8 51.8 L1218.9 45.9 L1220.1 40.0 L1221.5 34.0 L1223.1 28.0 L1224.8 22.0 L1226.8 15.9 Z"/>
<path class="grain" d="M1278.9 45.0 L1278.9 254.9 M1276.9 49.0 L1278.9 45.0 L1280.9 49.0 M1276.9 250.9 L1278.9 254.9 L1280.9 250.9"/>
<rect class="lbg" x="1217.0" y="140.9" width="123.8" height="25" rx="2"/>
<text class="label" x="1278.9" y="149.9">BACK ARMHOLE FACING</text>
<text class="sub" x="1278.9" y="156.9">Cut 2 · velvet</text>
<text class="sub" x="1278.9" y="162.9">size M · armhole_finish/facing</text>
</g>
<!-- back armhole facing  [armhole_finish/facing]  "make a red velvet dress" -->
<g>
<path class="cut" style="fill:#c1272d" d="M1255.3 331.6 L1261.2 349.8 L1262.3 353.8 L1263.4 357.8 L1264.3 361.9 L1265.2 366.1 L1266.0 370.3 L1266.6 374.5 L1267.2 378.8 L1267.7 383.1 L1268.2 387.4 L1268.5 391.8 L1268.9 396.2 L1269.1 400.7 L1269.3 405.2 L1269.5 409.7 L1269.6 414.2 L1269.6 418.7 L1269.7 423.3 L1269.7 427.9 L1269.7 432.5 L1269.7 437.1 L1269.7 441.7 L1269.7 446.4 L1269.7 450.8 L1269.6 456.0 L1269.2 460.9 L1268.7 465.9 L1267.9 470.7 L1267.0 475.5 L1265.9 480.2 L1264.5 484.8 L1263.0 489.2 L1261.4 493.4 L1259.5 497.5 L1257.5 501.3 L1255.4 505.0 L1253.2 508.3 L1250.9 511.4 L1248.5 514.2 L1246.0 516.7 L1243.4 518.9 L1240.9 520.8 L1238.3 522.4 L1235.6 523.7 L1233.0 524.7 L1230.3 525.4 L1227.5 525.9 L1208.0 526.9 L1216.8 605.7 L1235.8 605.5 L1246.9 603.7 L1257.4 600.9 L1267.5 597.1 L1276.8 592.5 L1285.5 587.2 L1293.4 581.4 L1300.6 575.1 L1307.2 568.5 L1313.1 561.7 L1318.5 554.5 L1323.3 547.3 L1327.7 539.8 L1331.6 532.3 L1335.1 524.6 L1338.1 516.7 L1340.8 508.8 L1343.2 500.8 L1345.1 492.7 L1346.7 484.5 L1348.0 476.3 L1348.9 467.9 L1349.5 459.5 L1349.7 451.8 L1349.7 446.5 L1349.7 442.0 L1349.7 437.3 L1349.7 432.5 L1349.7 427.7 L1349.7 422.7 L1349.6 417.7 L1349.5 412.6 L1349.4 407.3 L1349.2 402.0 L1349.0 396.7 L1348.7 391.2 L1348.3 385.7 L1347.8 380.0 L1347.3 374.3 L1346.6 368.6 L1345.8 362.7 L1344.8 356.8 L1343.7 350.8 L1342.5 344.8 L1341.1 338.7 L1339.5 332.5 L1337.7 326.3 L1331.0 305.9 Z"/>
<path class="stitch" d="M1274.1 341.0 L1275.5 345.4 L1276.8 349.8 L1278.0 354.3 L1279.0 358.7 L1279.9 363.2 L1280.7 367.7 L1281.5 372.3 L1282.1 376.9 L1282.6 381.4 L1283.1 386.0 L1283.5 390.7 L1283.8 395.3 L1284.1 399.9 L1284.3 404.6 L1284.4 409.2 L1284.6 413.9 L1284.6 418.5 L1284.7 423.2 L1284.7 427.9 L1284.7 432.5 L1284.7 437.1 L1284.7 441.8 L1284.7 446.4 L1284.7 451.0 L1284.5 456.6 L1284.2 462.2 L1283.6 467.8 L1282.7 473.3 L1281.7 478.7 L1280.4 484.1 L1278.8 489.3 L1277.1 494.4 L1275.2 499.3 L1273.0 504.0 L1270.7 508.6 L1268.2 512.9 L1265.5 517.0 L1262.6 520.8 L1259.5 524.4 L1256.2 527.7 L1252.8 530.7 L1249.2 533.3 L1245.5 535.6 L1241.6 537.5 L1237.6 539.0 L1233.4 540.1 L1229.1 540.8 L1224.7 541.0 L1231.3 600.5 L1235.4 600.5 L1245.8 598.8 L1255.9 596.1 L1265.5 592.5 L1274.4 588.1 L1282.7 583.1 L1290.3 577.5 L1297.2 571.5 L1303.5 565.1 L1309.3 558.5 L1314.4 551.7 L1319.1 544.6 L1323.3 537.4 L1327.1 530.1 L1330.5 522.6 L1333.4 515.0 L1336.1 507.3 L1338.3 499.5 L1340.2 491.6 L1341.8 483.7 L1343.1 475.6 L1343.9 467.5 L1344.5 459.3 L1344.7 451.7 L1344.7 446.5 L1344.7 442.0 L1344.7 437.3 L1344.7 432.5 L1344.7 427.7 L1344.7 422.8 L1344.6 417.7 L1344.5 412.7 L1344.4 407.5 L1344.2 402.2 L1344.0 396.9 L1343.7 391.5 L1343.3 386.0 L1342.9 380.5 L1342.3 374.9 L1341.6 369.2 L1340.8 363.5 L1339.9 357.6 L1338.8 351.8 L1337.6 345.9 L1336.2 339.9 L1334.6 333.9 L1332.9 327.8 L1330.9 321.7 Z"/>
<path class="grain" d="M1278.9 350.8 L1278.9 560.7 M1276.9 354.8 L1278.9 350.8 L1280.9 354.8 M1276.9 556.7 L1278.9 560.7 L1280.9 556.7"/>
<rect class="lbg" x="1217.0" y="446.8" width="123.8" height="25" rx="2"/>
<text class="label" x="1278.9" y="455.8">BACK ARMHOLE FACING</text>
<text class="sub" x="1278.9" y="462.8">Cut 2 · velvet</text>
<text class="sub" x="1278.9" y="468.8">size M · armhole_finish/facing</text>
</g>
<!-- front neck facing  [neck_finish/facing]  "make a red velvet dress" -->
<g>
<path class="cut" style="fill:#c1272d" d="M738.6 1205.4 L743.6 1205.2 L748.5 1204.7 L753.3 1203.9 L758.0 1202.8 L762.5 1201.3 L766.9 1199.6 L771.2 1197.5 L775.3 1195.3 L779.3 1192.7 L783.1 1189.9 L786.7 1186.8 L790.1 1183.6 L793.3 1180.1 L796.3 1176.4 L799.1 1172.5 L801.6 1168.4 L803.9 1164.1 L805.9 1159.7 L807.6 1155.1 L809.0 1150.4 L810.1 1145.6 L811.0 1140.7 L811.5 1135.6 L812.3 1109.7 L883.2 1133.8 L881.5 1139.0 L891.3 1141.0 L890.3 1151.2 L888.6 1161.3 L886.3 1171.2 L883.3 1180.9 L879.8 1190.3 L875.7 1199.4 L871.0 1208.1 L865.9 1216.6 L860.2 1224.6 L854.0 1232.3 L847.3 1239.5 L840.3 1246.3 L832.7 1252.7 L824.8 1258.5 L816.5 1263.9 L807.8 1268.7 L798.7 1273.0 L789.3 1276.7 L779.6 1279.8 L769.7 1282.2 L759.5 1284.0 L749.1 1285.1 L738.6 1285.4 L728.1 1285.1 L717.8 1284.0 L707.6 1282.2 L697.7 1279.8 L688.0 1276.7 L678.6 1273.0 L669.5 1268.7 L660.8 1263.9 L652.5 1258.5 L644.6 1252.7 L637.0 1246.3 L629.9 1239.5 L623.3 1232.3 L617.1 1224.6 L611.4 1216.6 L606.2 1208.1 L601.6 1199.4 L597.5 1190.3 L594.0 1180.9 L591.0 1171.2 L588.7 1161.3 L587.0 1151.2 L586.0 1141.0 L595.8 1139.0 L594.1 1133.8 L665.0 1109.7 L665.8 1135.6 L666.3 1140.7 L667.1 1145.6 L668.3 1150.4 L669.7 1155.1 L671.4 1159.7 L673.4 1164.1 L675.7 1168.4 L678.2 1172.5 L681.0 1176.4 L683.9 1180.1 L687.1 1183.6 L690.6 1186.8 L694.2 1189.9 L698.0 1192.7 L701.9 1195.3 L706.1 1197.5 L710.3 1199.6 L714.8 1201.3 L719.3 1202.8 L724.0 1203.9 L728.8 1204.7 L733.7 1205.2 Z"/>
<path class="stitch" d="M738.6 1220.4 L744.7 1220.2 L750.6 1219.6 L756.4 1218.6 L762.0 1217.2 L767.5 1215.4 L772.9 1213.3 L778.1 1210.9 L783.1 1208.1 L787.8 1205.0 L792.4 1201.7 L796.8 1198.0 L800.9 1194.1 L804.7 1189.9 L808.3 1185.4 L811.6 1180.7 L814.6 1175.8 L817.3 1170.7 L819.7 1165.4 L821.8 1160.0 L823.5 1154.3 L824.9 1148.6 L825.8 1142.6 L826.4 1136.6 L826.6 1130.4 L883.5 1149.7 L886.3 1140.5 L885.3 1150.5 L883.7 1160.3 L881.4 1169.9 L878.6 1179.3 L875.2 1188.4 L871.2 1197.2 L866.7 1205.7 L861.7 1213.8 L856.2 1221.6 L850.2 1229.0 L843.8 1236.0 L836.9 1242.6 L829.6 1248.7 L821.9 1254.4 L813.9 1259.6 L805.5 1264.3 L796.7 1268.4 L787.6 1272.0 L778.3 1275.0 L768.7 1277.3 L758.8 1279.0 L748.8 1280.1 L738.6 1280.4 L728.5 1280.1 L718.5 1279.0 L708.6 1277.3 L699.0 1275.0 L689.6 1272.0 L680.6 1268.4 L671.8 1264.3 L663.4 1259.6 L655.3 1254.4 L647.7 1248.7 L640.4 1242.6 L633.5 1236.0 L627.1 1229.0 L621.1 1221.6 L615.6 1213.8 L610.6 1205.7 L606.1 1197.2 L602.1 1188.4 L598.7 1179.3 L595.8 1169.9 L593.6 1160.3 L592.0 1150.5 L591.0 1140.5 L593.8 1149.7 L650.6 1130.4 L650.8 1136.6 L651.4 1142.6 L652.4 1148.6 L653.8 1154.3 L655.5 1160.0 L657.6 1165.4 L659.9 1170.7 L662.7 1175.8 L665.7 1180.7 L669.0 1185.4 L672.6 1189.9 L676.4 1194.1 L680.5 1198.0 L684.9 1201.7 L689.4 1205.0 L694.2 1208.1 L699.2 1210.9 L704.4 1213.3 L709.7 1215.4 L715.2 1217.2 L720.9 1218.6 L726.7 1219.6 L732.6 1220.2 Z"/>
<path class="centre" d="M738.6 1280.4 L738.6 1220.4"/>
<path class="grain" d="M662.3 1136.1 L662.3 1259.1 M660.3 1140.1 L662.3 1136.1 L664.3 1140.1 M660.3 1255.1 L662.3 1259.1 L664.3 1255.1"/>
<rect class="lbg" x="682.9" y="1188.6" width="111.4" height="25" rx="2"/>
<text class="label" x="738.6" y="1197.6">FRONT NECK FACING</text>
<text class="sub" x="738.6" y="1204.6">Cut 1 (unfolded) · velvet</text>
<text class="sub" x="738.6" y="1210.6">size M · neck_finish/facing</text>
</g>
<!-- back neck facing  [neck_finish/facing]  "make a red velvet dress" -->
<g>
<path class="cut" style="fill:#c1272d" d="M897.3 1131.7 L917.6 1131.7 L922.7 1131.6 L927.5 1131.5 L932.2 1131.3 L936.8 1131.1 L941.1 1130.8 L945.2 1130.5 L949.1 1130.1 L952.9 1129.7 L956.5 1129.2 L959.9 1128.6 L963.1 1128.0 L966.1 1127.3 L969.0 1126.6 L971.7 1125.7 L974.3 1124.9 L976.7 1123.9 L979.0 1122.9 L981.1 1121.9 L983.1 1120.8 L985.0 1119.6 L986.8 1118.3 L988.5 1117.0 L997.0 1109.7 L1071.3 1134.9 L1039.7 1178.6 L1034.2 1182.8 L1029.0 1186.4 L1023.7 1189.7 L1018.3 1192.7 L1012.8 1195.5 L1007.2 1197.9 L1001.7 1200.0 L996.1 1201.9 L990.6 1203.6 L985.1 1205.0 L979.6 1206.3 L974.1 1207.4 L968.6 1208.3 L963.1 1209.0 L957.7 1209.7 L952.2 1210.2 L946.7 1210.6 L941.1 1211.0 L935.5 1211.2 L929.8 1211.4 L924.1 1211.6 L918.2 1211.6 L897.3 1211.7 Z"/>
<path class="stitch" d="M912.3 1146.7 L917.7 1146.7 L922.9 1146.6 L928.0 1146.5 L932.9 1146.3 L937.6 1146.1 L942.1 1145.8 L946.5 1145.5 L950.7 1145.0 L954.8 1144.6 L958.8 1144.0 L962.5 1143.4 L966.2 1142.7 L969.7 1141.9 L973.1 1141.0 L976.3 1140.0 L979.4 1139.0 L982.4 1137.8 L985.3 1136.5 L988.1 1135.2 L990.7 1133.7 L993.3 1132.1 L995.7 1130.4 L998.0 1128.6 L1000.3 1126.7 L1057.1 1146.0 L1036.0 1175.0 L1031.2 1178.8 L1026.3 1182.2 L1021.1 1185.4 L1015.9 1188.3 L1010.6 1190.9 L1005.3 1193.3 L1000.0 1195.3 L994.6 1197.2 L989.2 1198.8 L983.9 1200.2 L978.5 1201.4 L973.2 1202.4 L967.8 1203.3 L962.5 1204.1 L957.1 1204.7 L951.8 1205.2 L946.3 1205.7 L940.8 1206.0 L935.3 1206.3 L929.7 1206.4 L924.0 1206.6 L918.2 1206.6 L912.3 1206.7 Z"/>
<path class="grain" d="M984.3 1125.0 L984.3 1196.4 M982.3 1129.0 L984.3 1125.0 L986.3 1129.0 M982.3 1192.4 L984.3 1196.4 L986.3 1192.4"/>
<rect class="lbg" x="931.7" y="1151.7" width="105.2" height="25" rx="2"/>
<text class="label" x="984.3" y="1160.7">BACK NECK FACING</text>
<text class="sub" x="984.3" y="1167.7">Cut 2 · velvet</text>
<text class="sub" x="984.3" y="1173.7">size M · neck_finish/facing</text>
</g>
<!-- back neck facing  [neck_finish/facing]  "make a red velvet dress" -->
<g>
<path class="cut" style="fill:#c1272d" d="M174.0 1135.5 L153.7 1135.4 L148.6 1135.3 L143.7 1135.2 L139.0 1135.1 L134.5 1134.8 L130.2 1134.6 L126.1 1134.3 L122.1 1133.9 L118.4 1133.4 L114.8 1132.9 L111.4 1132.4 L108.2 1131.7 L105.1 1131.0 L102.2 1130.3 L99.5 1129.5 L97.0 1128.6 L94.6 1127.7 L92.3 1126.7 L90.2 1125.6 L88.2 1124.5 L86.3 1123.3 L84.5 1122.1 L82.7 1120.7 L74.3 1113.5 L0.0 1138.7 L31.6 1182.3 L37.1 1186.5 L42.3 1190.2 L47.6 1193.5 L53.0 1196.5 L58.5 1199.2 L64.0 1201.6 L69.6 1203.8 L75.2 1205.7 L80.7 1207.3 L86.2 1208.8 L91.7 1210.0 L97.2 1211.1 L102.7 1212.0 L108.1 1212.8 L113.6 1213.4 L119.1 1213.9 L124.6 1214.4 L130.1 1214.7 L135.8 1215.0 L141.4 1215.2 L147.2 1215.3 L153.0 1215.4 L174.0 1215.5 Z"/>
<path class="stitch" d="M159.0 1150.4 L153.6 1150.4 L148.3 1150.3 L143.3 1150.2 L138.4 1150.0 L133.7 1149.8 L129.1 1149.5 L124.8 1149.2 L120.5 1148.8 L116.4 1148.3 L112.5 1147.8 L108.7 1147.1 L105.1 1146.4 L101.6 1145.6 L98.2 1144.7 L95.0 1143.8 L91.8 1142.7 L88.8 1141.6 L86.0 1140.3 L83.2 1138.9 L80.6 1137.5 L78.0 1135.9 L75.6 1134.2 L73.2 1132.4 L71.0 1130.4 L14.2 1149.7 L35.2 1178.8 L40.0 1182.5 L45.0 1186.0 L50.1 1189.2 L55.3 1192.1 L60.6 1194.7 L66.0 1197.0 L71.3 1199.1 L76.7 1200.9 L82.0 1202.5 L87.4 1203.9 L92.7 1205.1 L98.1 1206.2 L103.4 1207.1 L108.8 1207.8 L114.1 1208.4 L119.5 1209.0 L124.9 1209.4 L130.4 1209.7 L136.0 1210.0 L141.6 1210.2 L147.3 1210.3 L153.1 1210.4 L159.0 1210.4 Z"/>
<path class="grain" d="M87.0 1128.8 L87.0 1200.2 M85.0 1132.8 L87.0 1128.8 L89.0 1132.8 M85.0 1196.2 L87.0 1200.2 L89.0 1196.2"/>
<rect class="lbg" x="34.4" y="1155.5" width="105.2" height="25" rx="2"/>
<text class="label" x="87.0" y="1164.5">BACK NECK FACING</text>
<text class="sub" x="87.0" y="1171.5">Cut 2 · velvet</text>
<text class="sub" x="87.0" y="1177.5">size M · neck_finish/facing</text>
</g>
</g>
<text class="s" x="15.0" y="295.1">velvet · Red · 1.29 m</text>
<text class="s" x="15.0" y="447.9">Aras · drafted from body measurements by hand-written rules · same sentence, same rules.toml, same sheet</text>
</svg>
