<?xml version="1.0" encoding="UTF-8"?>
<svg xmlns="http://www.w3.org/2000/svg" width="420.0mm" height="573.1mm" viewBox="0 0 420.0 573.1">
<style>
  text { font-family: Helvetica, Arial, sans-serif; fill: #1d1d1d; }
  .title { font-size: 11px; font-weight: bold; letter-spacing: 0.2px; }
  .sub { font-size: 3.6px; fill: #555; }
  .quote { font-size: 3.4px; fill: #555; font-style: italic; }
  .h { font-size: 3.4px; font-weight: bold; letter-spacing: 0.6px; fill: #1d1d1d; }
  .b { font-size: 3.2px; }
  .bb { font-size: 3.2px; font-weight: bold; }
  .s { font-size: 2.6px; fill: #6b6b6b; }
  .ok { font-size: 3.2px; fill: #2e7d4f; font-weight: bold; }
  .warn { font-size: 3.0px; fill: #a15c00; }
  .cap { font-size: 3.2px; font-weight: bold; text-anchor: middle; letter-spacing: 0.8px; fill: #555; }
  .rule { stroke: #d6d6d6; stroke-width: 0.3; }
  .sw { stroke: #1d1d1d; stroke-width: 0.8; }
  .fl { stroke: #232323; stroke-width: 1.8; stroke-linejoin: round; }
  .fs { fill: none; stroke-width: 1.1; stroke-dasharray: 6 4; }
  .rb { fill: none; stroke-width: 0.9; }
  .ds { fill: none; stroke-width: 6; stroke-linecap: round; }
  .fabric { fill: #f1f4f8; stroke: #8a9bb0; stroke-width: 2; }
  .rib { fill: #f6f1f8; }
  .cut { fill: #fffdf7; stroke: #1d1d1d; stroke-width: 1.4; }
  .stitch { display: none; }
  .mark, .dash, .centre, .fold, .grain, .label, .lbg { display: none; }
  .sheet .sub { display: none; }
</style>
<defs>
</defs>
<!-- Aras: "make baggy olive pants with an elastic waist" -->
<rect x="0" y="0" width="420.0" height="573.1" fill="#ffffff"/>
<text class="title" x="15.0" y="24.0">Olive Baggy Pants</text>
<text class="sub" x="15.0" y="31.0">ARS-PT-1304   ·   size M   ·   baggy fit   ·   twill</text>
<text class="quote" x="15.0" y="37.0">“make baggy olive pants with an elastic waist”</text>
<path class="rule" d="M15.0 42.0 L405.0 42.0"/>
<g transform="translate(79.0 54.5) scale(0.1565)">
<path class="fl" fill="#6b6b3a" d="M0.0 0.0 L-310.0 0.0 L-369.0 200.0 L-387.0 660.0 L-387.0 1115.0 L-27.0 1115.0 L-27.0 660.0 L-5.0 305.0 L0.0 275.0 Z"/>
<path class="fl" fill="#6b6b3a" d="M0.0 0.0 L310.0 0.0 L369.0 200.0 L387.0 660.0 L387.0 1115.0 L27.0 1115.0 L27.0 660.0 L5.0 305.0 L0.0 275.0 Z"/>
<path class="fs" stroke="#56562e" d="M-30.0 1085.0 L-384.0 1085.0"/>
<path class="fs" stroke="#56562e" d="M30.0 1085.0 L384.0 1085.0"/>
<path class="fl" fill="#6b6b3a" d="M-310.0 0.0 L310.0 0.0 L310.0 -35.0 L-310.0 -35.0 Z"/>
<path class="rb" stroke="#4b4b29" d="M-302.0 -30.0 L-300.0 -5.0 M-291.0 -30.0 L-289.0 -5.0 M-280.0 -30.0 L-278.0 -5.0 M-269.0 -30.0 L-267.0 -5.0 M-258.0 -30.0 L-256.0 -5.0 M-247.0 -30.0 L-245.0 -5.0 M-236.0 -30.0 L-234.0 -5.0 M-225.0 -30.0 L-223.0 -5.0 M-214.0 -30.0 L-212.0 -5.0 M-203.0 -30.0 L-201.0 -5.0 M-192.0 -30.0 L-190.0 -5.0 M-181.0 -30.0 L-179.0 -5.0 M-170.0 -30.0 L-168.0 -5.0 M-159.0 -30.0 L-157.0 -5.0 M-148.0 -30.0 L-146.0 -5.0 M-137.0 -30.0 L-135.0 -5.0 M-126.0 -30.0 L-124.0 -5.0 M-115.0 -30.0 L-113.0 -5.0 M-104.0 -30.0 L-102.0 -5.0 M-93.0 -30.0 L-91.0 -5.0 M-82.0 -30.0 L-80.0 -5.0 M-71.0 -30.0 L-69.0 -5.0 M-60.0 -30.0 L-58.0 -5.0 M-49.0 -30.0 L-47.0 -5.0 M-38.0 -30.0 L-36.0 -5.0 M-27.0 -30.0 L-25.0 -5.0 M-16.0 -30.0 L-14.0 -5.0 M-5.0 -30.0 L-3.0 -5.0 M6.0 -30.0 L8.0 -5.0 M17.0 -30.0 L19.0 -5.0 M28.0 -30.0 L30.0 -5.0 M39.0 -30.0 L41.0 -5.0 M50.0 -30.0 L52.0 -5.0 M61.0 -30.0 L63.0 -5.0 M72.0 -30.0 L74.0 -5.0 M83.0 -30.0 L85.0 -5.0 M94.0 -30.0 L96.0 -5.0 M105.0 -30.0 L107.0 -5.0 M116.0 -30.0 L118.0 -5.0 M127.0 -30.0 L129.0 -5.0 M138.0 -30.0 L140.0 -5.0 M149.0 -30.0 L151.0 -5.0 M160.0 -30.0 L162.0 -5.0 M171.0 -30.0 L173.0 -5.0 M182.0 -30.0 L184.0 -5.0 M193.0 -30.0 L195.0 -5.0 M204.0 -30.0 L206.0 -5.0 M215.0 -30.0 L217.0 -5.0 M226.0 -30.0 L228.0 -5.0 M237.0 -30.0 L239.0 -5.0 M248.0 -30.0 L250.0 -5.0 M259.0 -30.0 L261.0 -5.0 M270.0 -30.0 L272.0 -5.0 M281.0 -30.0 L283.0 -5.0 M292.0 -30.0 L294.0 -5.0 M303.0 -30.0 L305.0 -5.0"/>
<path class="ds" stroke="#f0ece1" d="M-6.0 -17.5 L-22.0 110.0"/>
<path class="ds" stroke="#f0ece1" d="M6.0 -17.5 L22.0 110.0"/>
</g>
<text class="cap" x="79.0" y="236.0">FRONT</text>
<g transform="translate(215.0 54.5) scale(0.1565)">
<path class="fl" fill="#6b6b3a" d="M0.0 0.0 L-310.0 0.0 L-369.0 200.0 L-387.0 660.0 L-387.0 1115.0 L-27.0 1115.0 L-27.0 660.0 L-5.0 305.0 L0.0 275.0 Z"/>
<path class="fl" fill="#6b6b3a" d="M0.0 0.0 L310.0 0.0 L369.0 200.0 L387.0 660.0 L387.0 1115.0 L27.0 1115.0 L27.0 660.0 L5.0 305.0 L0.0 275.0 Z"/>
<path class="fs" stroke="#56562e" d="M-30.0 1085.0 L-384.0 1085.0"/>
<path class="fs" stroke="#56562e" d="M30.0 1085.0 L384.0 1085.0"/>
<path class="fl" fill="#6b6b3a" d="M-310.0 0.0 L310.0 0.0 L310.0 -35.0 L-310.0 -35.0 Z"/>
<path class="rb" stroke="#4b4b29" d="M-302.0 -30.0 L-300.0 -5.0 M-291.0 -30.0 L-289.0 -5.0 M-280.0 -30.0 L-278.0 -5.0 M-269.0 -30.0 L-267.0 -5.0 M-258.0 -30.0 L-256.0 -5.0 M-247.0 -30.0 L-245.0 -5.0 M-236.0 -30.0 L-234.0 -5.0 M-225.0 -30.0 L-223.0 -5.0 M-214.0 -30.0 L-212.0 -5.0 M-203.0 -30.0 L-201.0 -5.0 M-192.0 -30.0 L-190.0 -5.0 M-181.0 -30.0 L-179.0 -5.0 M-170.0 -30.0 L-168.0 -5.0 M-159.0 -30.0 L-157.0 -5.0 M-148.0 -30.0 L-146.0 -5.0 M-137.0 -30.0 L-135.0 -5.0 M-126.0 -30.0 L-124.0 -5.0 M-115.0 -30.0 L-113.0 -5.0 M-104.0 -30.0 L-102.0 -5.0 M-93.0 -30.0 L-91.0 -5.0 M-82.0 -30.0 L-80.0 -5.0 M-71.0 -30.0 L-69.0 -5.0 M-60.0 -30.0 L-58.0 -5.0 M-49.0 -30.0 L-47.0 -5.0 M-38.0 -30.0 L-36.0 -5.0 M-27.0 -30.0 L-25.0 -5.0 M-16.0 -30.0 L-14.0 -5.0 M-5.0 -30.0 L-3.0 -5.0 M6.0 -30.0 L8.0 -5.0 M17.0 -30.0 L19.0 -5.0 M28.0 -30.0 L30.0 -5.0 M39.0 -30.0 L41.0 -5.0 M50.0 -30.0 L52.0 -5.0 M61.0 -30.0 L63.0 -5.0 M72.0 -30.0 L74.0 -5.0 M83.0 -30.0 L85.0 -5.0 M94.0 -30.0 L96.0 -5.0 M105.0 -30.0 L107.0 -5.0 M116.0 -30.0 L118.0 -5.0 M127.0 -30.0 L129.0 -5.0 M138.0 -30.0 L140.0 -5.0 M149.0 -30.0 L151.0 -5.0 M160.0 -30.0 L162.0 -5.0 M171.0 -30.0 L173.0 -5.0 M182.0 -30.0 L184.0 -5.0 M193.0 -30.0 L195.0 -5.0 M204.0 -30.0 L206.0 -5.0 M215.0 -30.0 L217.0 -5.0 M226.0 -30.0 L228.0 -5.0 M237.0 -30.0 L239.0 -5.0 M248.0 -30.0 L250.0 -5.0 M259.0 -30.0 L261.0 -5.0 M270.0 -30.0 L272.0 -5.0 M281.0 -30.0 L283.0 -5.0 M292.0 -30.0 L294.0 -5.0 M303.0 -30.0 L305.0 -5.0"/>
<path class="fl" fill="none" d="M0.0 -35.0 L0.0 275.0"/>
</g>
<text class="cap" x="215.0" y="236.0">BACK</text>
<text class="h" x="293.0" y="51.0">COLOURWAY</text>
<g transform="translate(293.0 56.0) scale(0.4)"><rect class="sw" x="0" y="0" width="35.0" height="22.5" rx="2" fill="#6b6b3a"/></g>
<text class="bb" x="310.0" y="59.2">BODY</text>
<text class="b" x="310.0" y="62.6">Olive</text>
<text class="s" x="310.0" y="65.6">&quot;make baggy olive pants with an elastic waist&quot;</text>
<g transform="translate(293.0 69.0) scale(0.4)"><rect class="sw" x="0" y="0" width="35.0" height="22.5" rx="2" fill="#56562e"/></g>
<text class="bb" x="310.0" y="72.2">THREAD</text>
<text class="b" x="310.0" y="75.6">Dark Olive</text>
<text class="s" x="310.0" y="78.6">tonal thread</text>
<text class="h" x="293.0" y="86.0">CONSTRUCTION</text>
<text class="b" x="293.0" y="91.5">waist: elastic</text>
<text class="s" x="293.0" y="94.7">← “make baggy olive pants with an elastic waist”</text>
<text class="ok" x="293.0" y="99.9">✓ 6/6 construction checks passed</text>
<text class="s" x="293.0" y="104.4">note: cut 77.4 cm of 30 mm elastic for the casing</text>
<text class="h" x="15.0" y="245.0">BILL OF MATERIALS</text>
<text class="bb" x="15.0" y="250.5">2.46 m</text>
<text class="b" x="37.0" y="250.5">twill · Olive, 150 cm wide</text>
<text class="bb" x="15.0" y="255.3">78 cm</text>
<text class="b" x="37.0" y="255.3">elastic, 30 mm</text>
<text class="bb" x="15.0" y="260.1">1 spool</text>
<text class="b" x="37.0" y="260.1">polyester thread, Dark Olive</text>
<text class="s" x="15.0" y="265.9">seam allowance 15 mm and hems 40 mm included in every piece</text>
<path class="rule" d="M15.0 273.9 L405.0 273.9"/>
<text class="h" x="15.0" y="278.9">CUTTING LAYOUT</text>
<g class="sheet" transform="translate(15.0 286.9) scale(0.11)">
<rect class="fabric" x="0.0" y="0.0" width="1500.0" height="2456.0"/>
<!-- front  [block/pants]  "make baggy olive pants with an elastic waist" -->
<g>
<path class="cut" style="fill:#6b6b3a" d="M961.8 0.0 L1291.8 0.0 L1291.8 269.8 L1292.0 276.5 L1292.4 282.8 L1293.1 289.0 L1294.1 295.1 L1295.3 300.9 L1296.8 306.6 L1298.6 312.0 L1300.5 317.2 L1302.7 322.2 L1305.1 326.9 L1307.6 331.3 L1310.4 335.4 L1313.3 339.3 L1316.4 342.8 L1319.6 346.0 L1322.9 348.9 L1326.4 351.4 L1330.0 353.6 L1333.7 355.5 L1337.5 357.1 L1341.5 358.3 L1345.6 359.2 L1349.9 359.8 L1369.7 360.6 L1368.9 390.9 L1368.4 406.3 L1367.7 421.5 L1367.0 436.6 L1366.1 451.6 L1365.2 466.4 L1364.2 481.1 L1363.2 495.7 L1362.1 510.3 L1361.1 524.8 L1360.0 539.2 L1358.9 553.6 L1357.8 568.0 L1356.8 582.4 L1355.8 596.8 L1354.8 611.3 L1353.9 625.8 L1353.1 640.4 L1352.4 655.0 L1351.8 669.8 L1351.3 684.6 L1350.9 699.6 L1350.7 714.7 L1350.6 730.0 L1350.6 1225.0 L980.6 1225.0 L980.6 730.0 L980.5 710.1 L980.2 690.5 L979.8 671.0 L979.2 651.7 L978.5 632.6 L977.7 613.5 L976.8 594.6 L975.8 575.8 L974.7 557.0 L973.6 538.3 L972.4 519.6 L971.3 500.9 L970.1 482.2 L968.9 463.5 L967.8 444.7 L966.7 425.9 L965.7 406.9 L964.8 387.8 L964.0 368.6 L963.2 349.3 L962.7 329.8 L962.2 310.1 L961.9 290.1 L961.8 270.0 L961.8 260.1 L961.8 250.4 L961.8 240.9 L961.8 231.6 L961.8 222.4 L961.8 213.4 L961.8 204.6 L961.8 195.9 L961.8 187.4 L961.8 179.0 L961.8 170.7 L961.8 162.5 L961.8 154.4 L961.8 146.4 L961.8 138.6 L961.8 130.7 L961.8 123.0 L961.8 115.3 L961.8 107.7 L961.8 100.1 L961.8 92.5 L961.8 85.0 L961.8 77.5 Z"/>
<path class="stitch" d="M976.8 70.0 L1276.8 70.0 L1276.8 270.0 L1277.0 277.2 L1277.5 284.2 L1278.3 291.1 L1279.4 297.8 L1280.7 304.4 L1282.4 310.8 L1284.4 316.9 L1286.6 322.9 L1289.1 328.6 L1291.9 334.1 L1294.9 339.3 L1298.2 344.2 L1301.7 348.8 L1305.4 353.0 L1309.4 357.0 L1313.6 360.6 L1318.0 363.9 L1322.6 366.7 L1327.4 369.2 L1332.5 371.2 L1337.7 372.9 L1343.1 374.0 L1348.6 374.8 L1354.3 375.0 L1353.9 390.4 L1353.4 405.7 L1352.7 420.8 L1352.0 435.8 L1351.1 450.7 L1350.2 465.4 L1349.3 480.1 L1348.2 494.6 L1347.2 509.2 L1346.1 523.6 L1345.0 538.1 L1343.9 552.5 L1342.8 566.9 L1341.8 581.4 L1340.8 595.8 L1339.8 610.4 L1338.9 624.9 L1338.1 639.6 L1337.4 654.3 L1336.8 669.2 L1336.3 684.2 L1335.9 699.3 L1335.7 714.6 L1335.6 730.0 L1335.6 1185.0 L995.6 1185.0 L995.6 730.0 L995.5 710.0 L995.2 690.2 L994.8 670.6 L994.2 651.2 L993.5 632.0 L992.7 612.8 L991.7 593.9 L990.7 575.0 L989.7 556.2 L988.5 537.4 L987.4 518.7 L986.2 500.0 L985.1 481.3 L983.9 462.6 L982.8 443.8 L981.7 425.0 L980.7 406.1 L979.8 387.2 L979.0 368.0 L978.2 348.8 L977.7 329.4 L977.2 309.8 L976.9 290.0 L976.8 270.0 L976.8 260.1 L976.8 250.4 L976.8 240.9 L976.8 231.6 L976.8 222.4 L976.8 213.4 L976.8 204.6 L976.8 195.9 L976.8 187.4 L976.8 179.0 L976.8 170.7 L976.8 162.5 L976.8 154.4 L976.8 146.4 L976.8 138.6 L976.8 130.7 L976.8 123.0 L976.8 115.3 L976.8 107.7 L976.8 100.1 L976.8 92.5 L976.8 85.0 L976.8 77.5 Z"/>
<path class="mark" d="M1335.6 729.9 L1350.6 730.0"/>
<path class="mark" d="M995.6 730.0 L980.6 730.0"/>
<path class="grain" d="M1165.8 183.8 L1165.8 1041.2 M1163.8 187.8 L1165.8 183.8 L1167.8 187.8 M1163.8 1037.2 L1165.8 1041.2 L1167.8 1037.2"/>
<rect class="lbg" x="1142.5" y="603.5" width="46.6" height="25" rx="2"/>
<text class="label" x="1165.8" y="612.5">FRONT</text>
<text class="sub" x="1165.8" y="619.5">Cut 2 · twill</text>
<text class="sub" x="1165.8" y="625.5">size M · block/pants</text>
</g>
<!-- front  [block/pants]  "make baggy olive pants with an elastic waist" -->
<g>
<path class="cut" style="fill:#6b6b3a" d="M1369.7 1231.0 L1039.7 1231.0 L1039.7 1500.8 L1039.6 1507.5 L1039.2 1513.8 L1038.5 1520.0 L1037.5 1526.1 L1036.2 1531.9 L1034.8 1537.6 L1033.0 1543.0 L1031.1 1548.2 L1028.9 1553.2 L1026.5 1557.9 L1024.0 1562.3 L1021.2 1566.4 L1018.3 1570.3 L1015.2 1573.8 L1012.0 1577.0 L1008.7 1579.9 L1005.2 1582.4 L1001.6 1584.6 L997.9 1586.5 L994.0 1588.1 L990.1 1589.3 L986.0 1590.2 L981.7 1590.8 L961.8 1591.6 L962.7 1621.9 L963.2 1637.3 L963.9 1652.5 L964.6 1667.6 L965.5 1682.6 L966.4 1697.4 L967.4 1712.1 L968.4 1726.7 L969.5 1741.3 L970.5 1755.8 L971.6 1770.2 L972.7 1784.6 L973.8 1799.0 L974.8 1813.4 L975.8 1827.8 L976.8 1842.3 L977.7 1856.8 L978.5 1871.4 L979.2 1886.0 L979.8 1900.8 L980.3 1915.6 L980.7 1930.6 L980.9 1945.7 L981.0 1961.0 L981.0 2456.0 L1351.0 2456.0 L1351.0 1961.0 L1351.1 1941.1 L1351.4 1921.5 L1351.8 1902.0 L1352.4 1882.7 L1353.1 1863.6 L1353.9 1844.5 L1354.8 1825.6 L1355.8 1806.8 L1356.9 1788.0 L1358.0 1769.3 L1359.2 1750.6 L1360.3 1731.9 L1361.5 1713.2 L1362.7 1694.5 L1363.8 1675.7 L1364.9 1656.9 L1365.9 1637.9 L1366.8 1618.8 L1367.6 1599.6 L1368.3 1580.3 L1368.9 1560.8 L1369.4 1541.1 L1369.6 1521.1 L1369.7 1501.0 L1369.7 1491.1 L1369.7 1481.4 L1369.7 1471.9 L1369.7 1462.6 L1369.7 1453.4 L1369.7 1444.4 L1369.7 1435.6 L1369.7 1426.9 L1369.7 1418.4 L1369.7 1410.0 L1369.7 1401.7 L1369.7 1393.5 L1369.7 1385.4 L1369.7 1377.4 L1369.7 1369.6 L1369.7 1361.7 L1369.7 1354.0 L1369.7 1346.3 L1369.7 1338.7 L1369.7 1331.1 L1369.7 1323.5 L1369.7 1316.0 L1369.7 1308.5 Z"/>
<path class="stitch" d="M1354.7 1301.0 L1054.7 1301.0 L1054.7 1501.0 L1054.6 1508.2 L1054.1 1515.2 L1053.3 1522.1 L1052.2 1528.8 L1050.8 1535.4 L1049.2 1541.8 L1047.2 1547.9 L1045.0 1553.9 L1042.5 1559.6 L1039.7 1565.1 L1036.7 1570.3 L1033.4 1575.2 L1029.9 1579.8 L1026.2 1584.0 L1022.2 1588.0 L1018.0 1591.6 L1013.6 1594.9 L1009.0 1597.7 L1004.1 1600.2 L999.1 1602.2 L993.9 1603.9 L988.5 1605.0 L983.0 1605.8 L977.2 1606.0 L977.7 1621.4 L978.2 1636.7 L978.9 1651.8 L979.6 1666.8 L980.4 1681.7 L981.4 1696.4 L982.3 1711.1 L983.4 1725.6 L984.4 1740.2 L985.5 1754.6 L986.6 1769.1 L987.7 1783.5 L988.7 1797.9 L989.8 1812.4 L990.8 1826.8 L991.8 1841.4 L992.6 1855.9 L993.5 1870.6 L994.2 1885.3 L994.8 1900.2 L995.3 1915.2 L995.7 1930.3 L995.9 1945.6 L996.0 1961.0 L996.0 2416.0 L1336.0 2416.0 L1336.0 1961.0 L1336.1 1941.0 L1336.4 1921.2 L1336.8 1901.6 L1337.4 1882.2 L1338.1 1863.0 L1338.9 1843.8 L1339.8 1824.9 L1340.9 1806.0 L1341.9 1787.2 L1343.0 1768.4 L1344.2 1749.7 L1345.4 1731.0 L1346.5 1712.3 L1347.7 1693.6 L1348.8 1674.8 L1349.9 1656.0 L1350.9 1637.1 L1351.8 1618.2 L1352.6 1599.0 L1353.4 1579.8 L1353.9 1560.4 L1354.4 1540.8 L1354.6 1521.0 L1354.7 1501.0 L1354.7 1491.1 L1354.7 1481.4 L1354.7 1471.9 L1354.7 1462.6 L1354.7 1453.4 L1354.7 1444.4 L1354.7 1435.6 L1354.7 1426.9 L1354.7 1418.4 L1354.7 1410.0 L1354.7 1401.7 L1354.7 1393.5 L1354.7 1385.4 L1354.7 1377.4 L1354.7 1369.6 L1354.7 1361.7 L1354.7 1354.0 L1354.7 1346.3 L1354.7 1338.7 L1354.7 1331.1 L1354.7 1323.5 L1354.7 1316.0 L1354.7 1308.5 Z"/>
<path class="mark" d="M996.0 1960.9 L981.0 1961.0"/>
<path class="mark" d="M1336.0 1961.0 L1351.0 1961.0"/>
<path class="grain" d="M1165.8 1414.8 L1165.8 2272.2 M1163.8 1418.8 L1165.8 1414.8 L1167.8 1418.8 M1163.8 2268.2 L1165.8 2272.2 L1167.8 2268.2"/>
<rect class="lbg" x="1142.5" y="1834.5" width="46.6" height="25" rx="2"/>
<text class="label" x="1165.8" y="1843.5">FRONT</text>
<text class="sub" x="1165.8" y="1850.5">Cut 2 · twill</text>
<text class="sub" x="1165.8" y="1856.5">size M · block/pants</text>
</g>
<!-- back  [block/pants]  "make baggy olive pants with an elastic waist" -->
<g>
<path class="cut" style="fill:#6b6b3a" d="M0.0 33.0 L350.0 0.0 L350.0 301.4 L350.2 307.2 L350.9 312.7 L351.9 318.3 L353.4 324.0 L355.3 329.7 L357.6 335.3 L360.3 340.9 L363.4 346.4 L366.9 351.8 L370.8 357.0 L375.1 362.1 L379.7 366.9 L384.6 371.5 L389.9 375.9 L395.5 379.9 L401.4 383.7 L407.6 387.1 L414.1 390.1 L420.9 392.7 L428.0 394.9 L435.3 396.7 L442.9 398.0 L450.8 398.8 L474.9 399.6 L473.0 430.2 L471.8 445.5 L470.3 460.5 L468.6 475.4 L466.7 490.2 L464.6 504.8 L462.4 519.3 L460.1 533.7 L457.7 547.9 L455.3 562.2 L452.9 576.3 L450.4 590.4 L448.0 604.5 L445.7 618.6 L443.5 632.6 L441.3 646.7 L439.4 660.8 L437.6 675.0 L436.0 689.2 L434.6 703.5 L433.5 717.8 L432.7 732.3 L432.2 747.0 L432.0 761.8 L432.0 1256.7 L22.0 1256.7 L22.0 761.8 L21.9 741.9 L21.6 722.2 L21.1 702.8 L20.4 683.5 L19.5 664.4 L18.6 645.4 L17.5 626.5 L16.3 607.7 L15.1 588.9 L13.8 570.2 L12.4 551.5 L11.0 532.8 L9.7 514.1 L8.3 495.4 L7.0 476.6 L5.7 457.7 L4.5 438.8 L3.5 419.7 L2.5 400.5 L1.6 381.1 L1.0 361.6 L0.4 341.8 L0.1 321.9 L0.0 301.8 L0.0 291.8 L0.0 282.1 L0.0 272.6 L0.0 263.3 L0.0 254.2 L0.0 245.2 L0.0 236.4 L0.0 227.7 L0.0 219.1 L0.0 210.7 L0.0 202.5 L0.0 194.3 L0.0 186.2 L0.0 178.3 L0.0 170.4 L0.0 162.6 L0.0 154.8 L0.0 147.2 L0.0 139.5 L0.0 132.0 L0.0 124.4 L0.0 116.9 L0.0 109.4 Z"/>
<path class="stitch" d="M15.0 101.9 L335.0 71.7 L335.0 301.7 L335.3 308.3 L336.0 315.0 L337.3 321.6 L339.0 328.3 L341.2 334.9 L343.9 341.4 L347.0 347.9 L350.6 354.2 L354.6 360.3 L359.0 366.3 L363.9 372.1 L369.1 377.6 L374.7 382.8 L380.7 387.8 L387.1 392.4 L393.8 396.6 L400.8 400.5 L408.2 403.9 L416.0 406.9 L424.0 409.4 L432.3 411.4 L440.9 412.8 L449.8 413.7 L459.0 414.1 L458.1 429.2 L456.9 444.1 L455.4 458.9 L453.7 473.6 L451.8 488.2 L449.8 502.6 L447.6 517.0 L445.3 531.2 L442.9 545.5 L440.5 559.6 L438.1 573.8 L435.6 587.9 L433.2 602.0 L430.9 616.2 L428.6 630.3 L426.5 644.5 L424.5 658.8 L422.7 673.2 L421.1 687.6 L419.7 702.2 L418.5 716.8 L417.7 731.6 L417.2 746.6 L417.0 761.7 L417.0 1216.7 L37.0 1216.7 L37.0 761.7 L36.9 741.7 L36.6 721.9 L36.1 702.3 L35.4 682.9 L34.5 663.7 L33.6 644.6 L32.5 625.6 L31.3 606.7 L30.0 587.9 L28.7 569.1 L27.4 550.4 L26.0 531.7 L24.6 513.0 L23.3 494.3 L22.0 475.6 L20.7 456.8 L19.5 437.9 L18.4 418.9 L17.5 399.8 L16.6 380.5 L15.9 361.1 L15.4 341.5 L15.1 321.7 L15.0 301.7 L15.0 291.8 L15.0 282.1 L15.0 272.6 L15.0 263.3 L15.0 254.2 L15.0 245.2 L15.0 236.4 L15.0 227.7 L15.0 219.1 L15.0 210.7 L15.0 202.5 L15.0 194.3 L15.0 186.2 L15.0 178.3 L15.0 170.4 L15.0 162.6 L15.0 154.8 L15.0 147.2 L15.0 139.5 L15.0 132.0 L15.0 124.4 L15.0 116.9 L15.0 109.4 Z"/>
<path class="mark" d="M417.0 760.0 L432.0 760.1"/>
<path class="mark" d="M417.0 763.0 L432.0 763.1"/>
<path class="mark" d="M37.0 763.2 L22.0 763.2"/>
<path class="mark" d="M37.0 760.2 L22.0 760.2"/>
<path class="grain" d="M237.5 188.5 L237.5 1068.2 M235.5 192.5 L237.5 188.5 L239.5 192.5 M235.5 1064.2 L237.5 1068.2 L239.5 1064.2"/>
<rect class="lbg" x="214.2" y="619.4" width="46.6" height="25" rx="2"/>
<text class="label" x="237.5" y="628.4">BACK</text>
<text class="sub" x="237.5" y="635.4">Cut 2 · twill</text>
<text class="sub" x="237.5" y="641.4">size M · block/pants</text>
</g>
<!-- back  [block/pants]  "make baggy olive pants with an elastic waist" -->
<g>
<path class="cut" style="fill:#6b6b3a" d="M955.8 33.0 L605.8 0.0 L605.8 301.4 L605.6 307.2 L605.0 312.7 L603.9 318.3 L602.4 324.0 L600.5 329.7 L598.2 335.3 L595.5 340.9 L592.4 346.4 L588.9 351.8 L585.0 357.0 L580.8 362.1 L576.2 366.9 L571.2 371.5 L566.0 375.9 L560.4 379.9 L554.5 383.7 L548.2 387.1 L541.7 390.1 L534.9 392.7 L527.9 394.9 L520.5 396.7 L512.9 398.0 L505.0 398.8 L480.9 399.6 L482.8 430.2 L484.1 445.5 L485.5 460.5 L487.3 475.4 L489.2 490.2 L491.2 504.8 L493.4 519.3 L495.7 533.7 L498.1 547.9 L500.5 562.2 L503.0 576.3 L505.4 590.4 L507.8 604.5 L510.2 618.6 L512.4 632.6 L514.5 646.7 L516.5 660.8 L518.3 675.0 L519.9 689.2 L521.2 703.5 L522.3 717.8 L523.2 732.3 L523.7 747.0 L523.8 761.8 L523.8 1256.7 L933.8 1256.7 L933.8 761.8 L934.0 741.9 L934.3 722.2 L934.8 702.8 L935.5 683.5 L936.3 664.4 L937.3 645.4 L938.3 626.5 L939.5 607.7 L940.8 588.9 L942.1 570.2 L943.4 551.5 L944.8 532.8 L946.2 514.1 L947.5 495.4 L948.9 476.6 L950.1 457.7 L951.3 438.8 L952.4 419.7 L953.4 400.5 L954.2 381.1 L954.9 361.6 L955.4 341.8 L955.7 321.9 L955.8 301.8 L955.8 291.8 L955.8 282.1 L955.8 272.6 L955.8 263.3 L955.8 254.2 L955.8 245.2 L955.8 236.4 L955.8 227.7 L955.8 219.1 L955.8 210.7 L955.8 202.5 L955.8 194.3 L955.8 186.2 L955.8 178.3 L955.8 170.4 L955.8 162.6 L955.8 154.8 L955.8 147.2 L955.8 139.5 L955.8 132.0 L955.8 124.4 L955.8 116.9 L955.8 109.4 Z"/>
<path class="stitch" d="M940.8 101.9 L620.8 71.7 L620.8 301.7 L620.6 308.3 L619.8 315.0 L618.6 321.6 L616.8 328.3 L614.6 334.9 L611.9 341.4 L608.8 347.9 L605.2 354.2 L601.2 360.3 L596.8 366.3 L592.0 372.1 L586.7 377.6 L581.1 382.8 L575.1 387.8 L568.8 392.4 L562.1 396.6 L555.0 400.5 L547.6 403.9 L539.9 406.9 L531.9 409.4 L523.5 411.4 L514.9 412.8 L506.0 413.7 L496.8 414.1 L497.8 429.2 L499.0 444.1 L500.5 458.9 L502.1 473.6 L504.0 488.2 L506.1 502.6 L508.2 517.0 L510.5 531.2 L512.9 545.5 L515.3 559.6 L517.8 573.8 L520.2 587.9 L522.6 602.0 L525.0 616.2 L527.2 630.3 L529.4 644.5 L531.4 658.8 L533.2 673.2 L534.8 687.6 L536.2 702.2 L537.3 716.8 L538.1 731.6 L538.7 746.6 L538.8 761.7 L538.8 1216.7 L918.8 1216.7 L918.8 761.7 L919.0 741.7 L919.3 721.9 L919.8 702.3 L920.5 682.9 L921.3 663.7 L922.3 644.6 L923.4 625.6 L924.6 606.7 L925.8 587.9 L927.1 569.1 L928.5 550.4 L929.8 531.7 L931.2 513.0 L932.6 494.3 L933.9 475.6 L935.1 456.8 L936.3 437.9 L937.4 418.9 L938.4 399.8 L939.2 380.5 L939.9 361.1 L940.4 341.5 L940.7 321.7 L940.8 301.7 L940.8 291.8 L940.8 282.1 L940.8 272.6 L940.8 263.3 L940.8 254.2 L940.8 245.2 L940.8 236.4 L940.8 227.7 L940.8 219.1 L940.8 210.7 L940.8 202.5 L940.8 194.3 L940.8 186.2 L940.8 178.3 L940.8 170.4 L940.8 162.6 L940.8 154.8 L940.8 147.2 L940.8 139.5 L940.8 132.0 L940.8 124.4 L940.8 116.9 L940.8 109.4 Z"/>
<path class="mark" d="M538.8 760.0 L523.8 760.1"/>
<path class="mark" d="M538.9 763.0 L523.9 763.1"/>
<path class="mark" d="M918.8 763.2 L933.8 763.2"/>
<path class="mark" d="M918.8 760.2 L933.8 760.2"/>
<path class="grain" d="M718.4 188.5 L718.4 1068.2 M716.4 192.5 L718.4 188.5 L720.4 192.5 M716.4 1064.2 L718.4 1068.2 L720.4 1064.2"/>
<rect class="lbg" x="695.1" y="619.4" width="46.6" height="25" rx="2"/>
<text class="label" x="718.4" y="628.4">BACK</text>
<text class="sub" x="718.4" y="635.4">Cut 2 · twill</text>
<text class="sub" x="718.4" y="641.4">size M · block/pants</text>
</g>
</g>
<text class="s" x="15.0" y="285.5">twill · Olive · 2.46 m</text>
<text class="s" x="15.0" y="567.1">Aras · drafted from body measurements by hand-written rules · same sentence, same rules.toml, same sheet</text>
</svg>
