<?xml version="1.0" encoding="UTF-8"?>
<svg xmlns="http://www.w3.org/2000/svg" width="1540.0mm" height="2652.3mm" viewBox="0 0 1540.0 2652.3">
<style>
  .fabric { fill: #f1f4f8; stroke: #8a9bb0; stroke-width: 0.8; }
  .rib { fill: #f6f1f8; }
  .cut { fill: #fffdf7; stroke: #1d1d1d; stroke-width: 0.7; }
  .stitch { fill: none; stroke: #7c7c7c; stroke-width: 0.4; stroke-dasharray: 4 2; }
  .mark { fill: none; stroke: #1d1d1d; stroke-width: 0.5; }
  .dash { fill: none; stroke: #1d1d1d; stroke-width: 0.4; stroke-dasharray: 2 2; }
  .centre { fill: none; stroke: #b04a3a; stroke-width: 0.4; stroke-dasharray: 8 2 2 2; }
  .fold { fill: none; stroke: #b04a3a; stroke-width: 1.2; }
  .grain { fill: none; stroke: #2b5d8a; stroke-width: 0.6; }
  text { font-family: Helvetica, Arial, sans-serif; fill: #1d1d1d; }
  .h1 { font-size: 11px; font-weight: bold; }
  .small { font-size: 4.5px; fill: #555; }
  .label { font-size: 9px; font-weight: bold; text-anchor: middle; }
  .sub { font-size: 5px; text-anchor: middle; fill: #333; }
  .lbg { fill: #ffffff; fill-opacity: 0.85; stroke: none; }
</style>
<!-- Aras: "make an oversized black hoodie with white sleeves, a grey hood and rib cuffs" -->
<rect x="0" y="0" width="1540.0" height="2652.3" fill="#ffffff"/>
<text class="h1" x="20.0" y="30.0">Aras · oversized hoodie · size M</text>
<text class="small" x="20.0" y="38.0">"make an oversized black hoodie with white sleeves, a grey hood and rib cuffs"</text>
<text class="small" x="20.0" y="44.0">body_hem = rib_band   &lt;- &quot;make an oversized black hoodie with white sleeves&quot;</text>
<text class="small" x="20.0" y="50.0">sleeve_finish = rib_cuff   &lt;- &quot;rib cuffs&quot;</text>
<text class="small" x="20.0" y="56.0">hood = three_piece   &lt;- &quot;a grey hood&quot;</text>
<text class="small" x="20.0" y="62.0">hood_lining = single   &lt;- &quot;a grey hood&quot;</text>
<text class="small" x="20.0" y="68.0">pocket = kangaroo   &lt;- &quot;make an oversized black hoodie with white sleeves&quot;</text>
<text class="small" x="20.0" y="74.0">seam allowance 10 mm, hem 25 mm included · every seam checked: 12 checks passed</text>
<text class="small" x="20.0" y="92.0">fleece · Black · 150 cm wide · 0.95 m long · single layer, right side up, selvedges left and right</text>
<rect class="fabric" x="20.0" y="98.0" width="1500.0" height="946.7"/>
<!-- back  [block/hoodie]  "make an oversized black hoodie with white sleeves" -->
<g>
<path class="cut" style="fill:#1f1f21" d="M1080.6 123.7 L1086.9 123.7 L1092.9 123.6 L1098.7 123.4 L1104.3 123.2 L1109.6 123.0 L1114.8 122.6 L1119.8 122.2 L1124.5 121.7 L1129.1 121.1 L1133.4 120.5 L1137.6 119.7 L1141.5 118.9 L1145.3 118.0 L1148.9 117.0 L1152.3 115.9 L1155.6 114.7 L1158.7 113.4 L1161.6 112.1 L1164.4 110.6 L1167.1 109.0 L1169.6 107.3 L1172.1 105.5 L1174.4 103.6 L1180.5 98.0 L1432.1 140.5 L1428.7 157.5 L1426.8 164.5 L1424.6 171.3 L1422.0 178.0 L1419.2 184.5 L1416.2 191.0 L1413.0 197.3 L1409.6 203.5 L1406.2 209.6 L1402.7 215.7 L1399.2 221.7 L1395.8 227.6 L1392.4 233.5 L1389.1 239.4 L1386.0 245.2 L1383.1 251.0 L1380.4 256.8 L1378.0 262.6 L1375.9 268.3 L1374.1 274.0 L1372.6 279.8 L1371.5 285.5 L1370.9 291.3 L1370.6 297.3 L1370.7 304.4 L1371.1 311.7 L1371.7 318.9 L1372.5 326.0 L1373.5 333.0 L1374.8 339.9 L1376.2 346.6 L1377.8 353.1 L1379.7 359.3 L1381.7 365.4 L1383.9 371.1 L1386.2 376.5 L1388.7 381.6 L1391.3 386.3 L1394.1 390.6 L1396.9 394.5 L1399.8 397.9 L1402.8 400.8 L1405.8 403.3 L1408.7 405.2 L1411.7 406.8 L1414.6 407.8 L1417.6 408.4 L1430.6 409.4 L1430.6 793.7 L1080.6 793.7 L730.6 793.7 L730.6 409.4 L743.7 408.4 L746.6 407.8 L749.6 406.8 L752.5 405.2 L755.5 403.3 L758.5 400.8 L761.4 397.9 L764.3 394.5 L767.2 390.6 L769.9 386.3 L772.6 381.6 L775.0 376.5 L777.4 371.1 L779.6 365.4 L781.6 359.3 L783.4 353.1 L785.1 346.6 L786.5 339.9 L787.7 333.0 L788.8 326.0 L789.6 318.9 L790.2 311.7 L790.5 304.4 L790.6 297.3 L790.4 291.3 L789.7 285.5 L788.7 279.8 L787.2 274.0 L785.4 268.3 L783.3 262.6 L780.8 256.8 L778.1 251.0 L775.2 245.2 L772.1 239.4 L768.9 233.5 L765.5 227.6 L762.0 221.7 L758.5 215.7 L755.1 209.6 L751.6 203.5 L748.3 197.3 L745.1 191.0 L742.0 184.5 L739.2 178.0 L736.7 171.3 L734.4 164.5 L732.6 157.5 L729.1 140.5 L980.8 98.0 L986.8 103.6 L989.2 105.5 L991.6 107.3 L994.2 109.0 L996.8 110.6 L999.6 112.1 L1002.6 113.4 L1005.7 114.7 L1008.9 115.9 L1012.3 117.0 L1015.9 118.0 L1019.7 118.9 L1023.7 119.7 L1027.9 120.5 L1032.2 121.1 L1036.8 121.7 L1041.5 122.2 L1046.5 122.6 L1051.6 123.0 L1057.0 123.2 L1062.6 123.4 L1068.4 123.6 L1074.4 123.7 Z"/>
<path class="stitch" d="M1080.6 133.7 L1087.0 133.7 L1093.1 133.6 L1099.0 133.4 L1104.7 133.2 L1110.2 132.9 L1115.6 132.6 L1120.7 132.2 L1125.6 131.6 L1130.4 131.0 L1135.0 130.3 L1139.4 129.6 L1143.7 128.7 L1147.8 127.7 L1151.8 126.6 L1155.6 125.4 L1159.2 124.0 L1162.7 122.6 L1166.1 121.0 L1169.3 119.3 L1172.4 117.5 L1175.4 115.5 L1178.3 113.4 L1181.0 111.1 L1183.6 108.7 L1420.3 148.7 L1418.9 155.2 L1417.2 161.6 L1415.2 168.0 L1412.8 174.2 L1410.1 180.4 L1407.2 186.6 L1404.1 192.7 L1400.9 198.7 L1397.5 204.7 L1394.1 210.7 L1390.6 216.7 L1387.1 222.6 L1383.7 228.6 L1380.4 234.6 L1377.2 240.6 L1374.1 246.7 L1371.3 252.7 L1368.7 258.9 L1366.4 265.1 L1364.4 271.3 L1362.8 277.6 L1361.6 284.1 L1360.9 290.6 L1360.6 297.2 L1360.8 304.8 L1361.1 312.3 L1361.7 319.8 L1362.6 327.3 L1363.6 334.6 L1364.9 341.8 L1366.5 348.8 L1368.2 355.7 L1370.1 362.3 L1372.3 368.7 L1374.6 374.9 L1377.1 380.7 L1379.8 386.2 L1382.7 391.4 L1385.8 396.3 L1389.1 400.7 L1392.5 404.7 L1396.1 408.2 L1399.8 411.3 L1403.7 413.9 L1407.7 415.9 L1411.9 417.4 L1416.2 418.4 L1420.6 418.7 L1420.6 768.7 L1080.6 768.7 L740.6 768.7 L740.6 418.7 L745.1 418.4 L749.4 417.4 L753.5 415.9 L757.6 413.9 L761.5 411.3 L765.2 408.2 L768.8 404.7 L772.2 400.7 L775.4 396.3 L778.5 391.4 L781.4 386.2 L784.1 380.7 L786.7 374.9 L789.0 368.7 L791.1 362.3 L793.1 355.7 L794.8 348.8 L796.3 341.8 L797.6 334.6 L798.7 327.3 L799.5 319.8 L800.1 312.3 L800.5 304.8 L800.6 297.2 L800.4 290.6 L799.6 284.1 L798.4 277.6 L796.8 271.3 L794.9 265.1 L792.6 258.9 L790.0 252.7 L787.1 246.7 L784.1 240.6 L780.9 234.6 L777.6 228.6 L774.1 222.6 L770.7 216.7 L767.2 210.7 L763.8 204.7 L760.4 198.7 L757.1 192.7 L754.1 186.6 L751.2 180.4 L748.5 174.2 L746.1 168.0 L744.0 161.6 L742.3 155.2 L741.0 148.7 L977.6 108.7 L980.3 111.1 L983.0 113.4 L985.9 115.5 L988.8 117.5 L991.9 119.3 L995.2 121.0 L998.5 122.6 L1002.0 124.0 L1005.7 125.4 L1009.5 126.6 L1013.4 127.7 L1017.5 128.7 L1021.8 129.6 L1026.2 130.3 L1030.8 131.0 L1035.6 131.6 L1040.6 132.2 L1045.7 132.6 L1051.0 132.9 L1056.5 133.2 L1062.3 133.4 L1068.2 133.6 L1074.3 133.7 Z"/>
<path class="mark" d="M1360.6 295.7 L1370.6 295.5"/>
<path class="mark" d="M1360.7 298.7 L1370.7 298.5"/>
<path class="mark" d="M800.7 295.7 L790.7 295.5"/>
<path class="mark" d="M800.6 298.7 L790.6 298.5"/>
<path class="centre" d="M1080.6 768.7 L1080.6 133.7"/>
<path class="grain" d="M904.9 202.4 L904.9 689.3 M902.9 206.4 L904.9 202.4 L906.9 206.4 M902.9 685.3 L904.9 689.3 L906.9 685.3"/>
<rect class="lbg" x="1039.9" y="436.8" width="81.4" height="25" rx="2"/>
<text class="label" x="1080.6" y="445.8">BACK</text>
<text class="sub" x="1080.6" y="452.8">Cut 1 (unfolded) · fleece</text>
<text class="sub" x="1080.6" y="458.8">size M · block/hoodie</text>
</g>
<!-- front  [block/hoodie]  "make an oversized black hoodie with white sleeves" -->
<g>
<path class="cut" style="fill:#1f1f21" d="M371.6 204.8 L377.9 204.5 L384.2 203.9 L390.3 202.8 L396.2 201.4 L402.1 199.5 L407.7 197.3 L413.2 194.8 L418.4 191.8 L423.5 188.6 L428.3 185.0 L432.9 181.2 L437.3 177.0 L441.3 172.6 L445.1 167.9 L448.6 162.9 L451.8 157.8 L454.7 152.4 L457.2 146.8 L459.4 141.0 L461.2 135.1 L462.7 129.0 L463.7 122.7 L464.3 116.3 L464.9 98.0 L723.1 141.6 L719.5 158.9 L717.4 166.1 L714.9 173.1 L712.0 179.9 L708.7 186.5 L705.2 193.0 L701.4 199.3 L697.5 205.5 L693.5 211.6 L689.4 217.6 L685.3 223.5 L681.2 229.4 L677.2 235.2 L673.4 241.0 L669.7 246.7 L666.2 252.5 L663.1 258.2 L660.2 263.9 L657.7 269.5 L655.6 275.2 L653.9 280.9 L652.6 286.6 L651.8 292.4 L651.6 298.4 L651.7 305.5 L652.1 312.7 L652.8 319.8 L653.7 326.9 L654.9 333.8 L656.3 340.6 L658.0 347.3 L659.9 353.7 L662.0 360.0 L664.4 366.0 L666.9 371.7 L669.6 377.1 L672.5 382.1 L675.6 386.8 L678.8 391.1 L682.1 395.0 L685.5 398.4 L689.1 401.4 L692.6 404.0 L696.3 406.0 L700.0 407.6 L703.7 408.8 L707.6 409.5 L721.6 410.4 L721.6 794.8 L371.6 794.8 L21.6 794.8 L21.6 410.4 L35.5 409.5 L39.4 408.8 L43.1 407.6 L46.8 406.0 L50.5 404.0 L54.1 401.4 L57.6 398.4 L61.0 395.0 L64.4 391.1 L67.6 386.8 L70.6 382.1 L73.5 377.1 L76.2 371.7 L78.8 366.0 L81.1 360.0 L83.2 353.7 L85.1 347.3 L86.8 340.6 L88.2 333.8 L89.4 326.9 L90.3 319.8 L91.0 312.7 L91.4 305.5 L91.6 298.4 L91.3 292.4 L90.5 286.6 L89.3 280.9 L87.6 275.2 L85.4 269.5 L82.9 263.9 L80.1 258.2 L76.9 252.5 L73.4 246.7 L69.8 241.0 L65.9 235.2 L61.9 229.4 L57.9 223.5 L53.8 217.6 L49.7 211.6 L45.6 205.5 L41.7 199.3 L38.0 193.0 L34.4 186.5 L31.2 179.9 L28.2 173.1 L25.7 166.1 L23.6 158.9 L20.0 141.6 L278.2 98.0 L278.8 116.3 L279.4 122.7 L280.5 129.0 L281.9 135.1 L283.7 141.0 L285.9 146.8 L288.4 152.4 L291.3 157.8 L294.5 162.9 L298.0 167.9 L301.8 172.6 L305.9 177.0 L310.2 181.2 L314.8 185.0 L319.7 188.6 L324.7 191.8 L330.0 194.8 L335.4 197.3 L341.1 199.5 L346.9 201.4 L352.8 202.8 L359.0 203.9 L365.2 204.5 Z"/>
<path class="stitch" d="M371.6 214.8 L378.6 214.5 L385.5 213.8 L392.3 212.6 L398.9 211.0 L405.4 209.0 L411.7 206.5 L417.7 203.7 L423.6 200.4 L429.2 196.8 L434.5 192.9 L439.6 188.6 L444.4 184.0 L448.9 179.1 L453.1 173.9 L457.0 168.5 L460.5 162.8 L463.7 156.8 L466.5 150.6 L468.9 144.3 L470.9 137.7 L472.5 130.9 L473.6 124.0 L474.3 117.0 L474.6 109.8 L711.2 149.8 L709.8 156.4 L707.9 163.0 L705.6 169.4 L702.9 175.7 L699.8 181.9 L696.5 188.0 L692.9 194.1 L689.1 200.1 L685.2 206.0 L681.1 211.9 L677.1 217.8 L673.0 223.7 L668.9 229.6 L665.0 235.5 L661.2 241.5 L657.6 247.4 L654.2 253.5 L651.2 259.6 L648.4 265.8 L646.1 272.0 L644.2 278.4 L642.8 284.9 L641.9 291.5 L641.6 298.3 L641.7 305.9 L642.1 313.4 L642.9 320.9 L643.8 328.4 L645.1 335.7 L646.6 342.9 L648.4 349.9 L650.4 356.8 L652.6 363.4 L655.1 369.8 L657.9 375.9 L660.8 381.8 L664.0 387.3 L667.4 392.5 L671.0 397.3 L674.8 401.8 L678.7 405.8 L682.9 409.3 L687.3 412.4 L691.8 415.0 L696.5 417.0 L701.4 418.5 L706.4 419.5 L711.6 419.8 L711.6 769.8 L371.6 769.8 L31.6 769.8 L31.6 419.8 L36.7 419.5 L41.8 418.5 L46.6 417.0 L51.3 415.0 L55.9 412.4 L60.2 409.3 L64.4 405.8 L68.4 401.8 L72.2 397.3 L75.8 392.5 L79.1 387.3 L82.3 381.8 L85.3 375.9 L88.0 369.8 L90.5 363.4 L92.8 356.8 L94.8 349.9 L96.5 342.9 L98.0 335.7 L99.3 328.4 L100.3 320.9 L101.0 313.4 L101.4 305.9 L101.6 298.3 L101.3 291.5 L100.4 284.9 L98.9 278.4 L97.0 272.0 L94.7 265.8 L92.0 259.6 L88.9 253.5 L85.5 247.4 L81.9 241.5 L78.1 235.5 L74.2 229.6 L70.2 223.7 L66.1 217.8 L62.0 211.9 L58.0 206.0 L54.0 200.1 L50.2 194.1 L46.6 188.0 L43.3 181.9 L40.2 175.7 L37.5 169.4 L35.2 163.0 L33.3 156.4 L31.9 149.8 L268.6 109.8 L268.8 117.0 L269.5 124.0 L270.7 130.9 L272.2 137.7 L274.3 144.3 L276.7 150.6 L279.5 156.8 L282.6 162.8 L286.2 168.5 L290.0 173.9 L294.2 179.1 L298.7 184.0 L303.5 188.6 L308.6 192.9 L314.0 196.8 L319.6 200.4 L325.4 203.7 L331.5 206.5 L337.7 209.0 L344.2 211.0 L350.8 212.6 L357.6 213.8 L364.5 214.5 Z"/>
<path class="mark" d="M641.6 298.3 L651.6 298.7"/>
<path class="dash" d="M371.6 539.8 L499.6 539.8 L609.6 649.8 L609.6 749.8 L371.6 749.8"/>
<path class="mark" d="M101.6 298.3 L91.6 298.7"/>
<path class="dash" d="M371.6 539.8 L243.6 539.8 L133.6 649.8 L133.6 749.8 L371.6 749.8"/>
<path class="centre" d="M371.6 769.8 L371.6 214.8"/>
<path class="grain" d="M195.8 202.5 L195.8 690.3 M193.8 206.5 L195.8 202.5 L197.8 206.5 M193.8 686.3 L195.8 690.3 L197.8 686.3"/>
<rect class="lbg" x="330.9" y="437.4" width="81.4" height="25" rx="2"/>
<text class="label" x="371.6" y="446.4">FRONT</text>
<text class="sub" x="371.6" y="453.4">Cut 1 (unfolded) · fleece</text>
<text class="sub" x="371.6" y="459.4">size M · block/hoodie</text>
</g>
<!-- pocket  [pocket/kangaroo]  "make an oversized black hoodie with white sleeves" -->
<g>
<path class="cut" style="fill:#1f1f21" d="M977.1 799.7 L1115.5 799.7 L1225.1 909.3 L1225.1 1044.7 L977.1 1044.7 L729.1 1044.7 L729.1 909.3 L838.8 799.7 Z"/>
<path class="stitch" d="M977.1 824.7 L1105.1 824.7 L1215.1 934.7 L1215.1 1034.7 L977.1 1034.7 L739.1 1034.7 L739.1 934.7 L849.1 824.7 Z"/>
<path class="centre" d="M977.1 1034.7 L977.1 824.7"/>
<path class="grain" d="M853.1 836.4 L853.1 1007.9 M851.1 840.4 L853.1 836.4 L855.1 840.4 M851.1 1003.9 L853.1 1007.9 L855.1 1003.9"/>
<rect class="lbg" x="936.4" y="913.2" width="81.4" height="25" rx="2"/>
<text class="label" x="977.1" y="922.2">POCKET</text>
<text class="sub" x="977.1" y="929.2">Cut 1 (unfolded) · fleece</text>
<text class="sub" x="977.1" y="935.2">size M · pocket/kangaroo</text>
</g>
<text class="small" x="20.0" y="1068.7">fleece · White · 150 cm wide · 0.54 m long · single layer, right side up, selvedges left and right</text>
<rect class="fabric" x="20.0" y="1074.7" width="1500.0" height="540.0"/>
<!-- sleeve  [block/hoodie]  "make an oversized black hoodie with white sleeves" -->
<g>
<path class="cut" style="fill:#f7f6f2" d="M20.0 1258.3 L48.4 1256.6 L61.3 1254.2 L72.9 1250.3 L83.4 1245.2 L92.9 1238.9 L101.7 1231.6 L109.9 1223.2 L117.6 1213.9 L124.8 1203.9 L131.8 1193.3 L138.6 1182.3 L145.3 1171.0 L152.1 1159.5 L159.1 1148.1 L166.5 1136.8 L174.4 1125.9 L183.0 1115.6 L192.5 1105.9 L202.9 1097.2 L214.5 1089.5 L227.3 1083.3 L241.5 1078.6 L257.0 1075.7 L274.0 1074.7 L288.4 1075.7 L302.2 1078.7 L315.3 1083.4 L327.5 1089.6 L339.0 1097.1 L349.9 1105.6 L360.3 1115.1 L370.1 1125.3 L379.6 1136.0 L388.8 1147.2 L397.7 1158.6 L406.4 1170.0 L415.0 1181.4 L423.5 1192.6 L432.0 1203.3 L440.5 1213.5 L449.2 1223.0 L457.9 1231.5 L466.7 1239.1 L475.6 1245.5 L484.8 1250.6 L494.1 1254.3 L503.8 1256.6 L527.7 1258.5 L400.6 1614.7 L147.2 1614.7 Z"/>
<path class="stitch" d="M33.9 1267.5 L49.6 1266.5 L63.8 1263.9 L76.7 1259.6 L88.3 1253.9 L98.9 1247.0 L108.5 1238.9 L117.3 1229.9 L125.5 1220.1 L133.0 1209.6 L140.2 1198.7 L147.1 1187.5 L153.9 1176.1 L160.7 1164.7 L167.6 1153.4 L174.8 1142.5 L182.3 1132.1 L190.5 1122.3 L199.3 1113.3 L208.9 1105.2 L219.5 1098.2 L231.1 1092.6 L244.0 1088.3 L258.2 1085.6 L273.9 1084.7 L287.0 1085.6 L299.5 1088.3 L311.3 1092.6 L322.5 1098.2 L333.2 1105.2 L343.5 1113.3 L353.3 1122.3 L362.8 1132.1 L372.0 1142.5 L380.9 1153.4 L389.7 1164.7 L398.4 1176.1 L407.0 1187.5 L415.6 1198.7 L424.3 1209.6 L433.0 1220.1 L441.9 1229.9 L451.1 1238.9 L460.5 1247.0 L470.3 1253.9 L480.5 1259.6 L491.1 1263.9 L502.2 1266.5 L513.9 1267.5 L398.9 1589.7 L148.9 1589.7 Z"/>
<path class="mark" d="M146.5 1188.5 L137.9 1183.4"/>
<path class="mark" d="M148.0 1186.0 L139.4 1180.8"/>
<path class="mark" d="M398.2 1175.8 L406.1 1169.7"/>
<path class="mark" d="M273.9 1084.7 L274.6 1074.7"/>
<path class="grain" d="M273.9 1155.7 L273.9 1533.7 M271.9 1159.7 L273.9 1155.7 L275.9 1159.7 M271.9 1529.7 L273.9 1533.7 L275.9 1529.7"/>
<rect class="lbg" x="249.1" y="1335.7" width="49.5" height="25" rx="2"/>
<text class="label" x="273.9" y="1344.7">SLEEVE</text>
<text class="sub" x="273.9" y="1351.7">Cut 2 · fleece</text>
<text class="sub" x="273.9" y="1357.7">size M · block/hoodie</text>
</g>
<!-- sleeve  [block/hoodie]  "make an oversized black hoodie with white sleeves" -->
<g>
<path class="cut" style="fill:#f7f6f2" d="M1041.4 1258.3 L1013.0 1256.6 L1000.1 1254.2 L988.5 1250.3 L978.0 1245.2 L968.5 1238.9 L959.7 1231.6 L951.5 1223.2 L943.9 1213.9 L936.6 1203.9 L929.6 1193.3 L922.8 1182.3 L916.1 1171.0 L909.3 1159.5 L902.3 1148.1 L894.9 1136.8 L887.0 1125.9 L878.4 1115.6 L868.9 1105.9 L858.5 1097.2 L846.9 1089.5 L834.1 1083.3 L820.0 1078.6 L804.4 1075.7 L787.5 1074.7 L773.0 1075.7 L759.2 1078.7 L746.2 1083.4 L733.9 1089.6 L722.4 1097.1 L711.5 1105.6 L701.1 1115.1 L691.3 1125.3 L681.8 1136.0 L672.7 1147.2 L663.8 1158.6 L655.0 1170.0 L646.5 1181.4 L637.9 1192.6 L629.4 1203.3 L620.9 1213.5 L612.3 1223.0 L603.6 1231.5 L594.7 1239.1 L585.8 1245.5 L576.6 1250.6 L567.3 1254.3 L557.6 1256.6 L533.7 1258.5 L660.8 1614.7 L914.2 1614.7 Z"/>
<path class="stitch" d="M1027.5 1267.5 L1011.8 1266.5 L997.6 1263.9 L984.7 1259.6 L973.1 1253.9 L962.5 1247.0 L952.9 1238.9 L944.1 1229.9 L936.0 1220.1 L928.4 1209.6 L921.2 1198.7 L914.3 1187.5 L907.5 1176.1 L900.7 1164.7 L893.8 1153.4 L886.7 1142.5 L879.1 1132.1 L870.9 1122.3 L862.1 1113.3 L852.5 1105.2 L842.0 1098.2 L830.3 1092.6 L817.4 1088.3 L803.2 1085.6 L787.5 1084.7 L774.4 1085.6 L761.9 1088.3 L750.1 1092.6 L738.9 1098.2 L728.2 1105.2 L718.0 1113.3 L708.1 1122.3 L698.6 1132.1 L689.4 1142.5 L680.5 1153.4 L671.7 1164.7 L663.0 1176.1 L654.4 1187.5 L645.8 1198.7 L637.2 1209.6 L628.4 1220.1 L619.5 1229.9 L610.3 1238.9 L600.9 1247.0 L591.1 1253.9 L581.0 1259.6 L570.3 1263.9 L559.2 1266.5 L547.5 1267.5 L662.5 1589.7 L912.5 1589.7 Z"/>
<path class="mark" d="M914.9 1188.5 L923.5 1183.4"/>
<path class="mark" d="M913.4 1186.0 L922.0 1180.8"/>
<path class="mark" d="M663.2 1175.8 L655.3 1169.7"/>
<path class="mark" d="M787.5 1084.7 L786.8 1074.7"/>
<path class="grain" d="M787.6 1155.7 L787.6 1533.7 M785.6 1159.7 L787.6 1155.7 L789.6 1159.7 M785.6 1529.7 L787.6 1533.7 L789.6 1529.7"/>
<rect class="lbg" x="762.8" y="1335.7" width="49.5" height="25" rx="2"/>
<text class="label" x="787.6" y="1344.7">SLEEVE</text>
<text class="sub" x="787.6" y="1351.7">Cut 2 · fleece</text>
<text class="sub" x="787.6" y="1357.7">size M · block/hoodie</text>
</g>
<text class="small" x="20.0" y="1638.7">fleece · Grey · 150 cm wide · 0.51 m long · single layer, right side up, selvedges left and right</text>
<rect class="fabric" x="20.0" y="1644.7" width="1500.0" height="509.6"/>
<!-- hood side  [hood/three_piece]  "a grey hood" -->
<g>
<path class="cut" style="fill:#9a9b9d" d="M148.6 1644.7 L148.6 1987.6 L189.2 1993.2 L201.1 1994.4 L212.8 1995.1 L224.3 1995.5 L235.5 1995.4 L246.5 1995.0 L257.3 1994.2 L268.0 1993.1 L278.4 1991.8 L288.7 1990.2 L298.7 1988.5 L308.7 1986.6 L318.4 1984.5 L328.1 1982.3 L337.6 1980.1 L346.9 1977.8 L356.2 1975.5 L365.3 1973.2 L374.4 1971.0 L383.4 1968.8 L392.2 1966.7 L401.1 1964.8 L409.8 1963.1 L427.0 1960.0 L426.8 1941.9 L426.6 1932.6 L426.4 1923.7 L426.2 1915.1 L426.0 1906.8 L425.8 1898.7 L425.6 1890.9 L425.4 1883.2 L425.2 1875.6 L425.0 1868.1 L424.8 1860.8 L424.6 1853.4 L424.4 1846.1 L424.2 1838.7 L424.0 1831.3 L423.8 1823.7 L423.7 1816.1 L423.5 1808.2 L423.4 1800.2 L423.3 1791.9 L423.2 1783.4 L423.1 1774.5 L423.1 1765.3 L423.1 1755.3 L422.4 1747.3 L420.5 1739.1 L417.3 1731.2 L413.1 1723.7 L407.9 1716.5 L401.7 1709.6 L394.7 1703.2 L386.8 1697.0 L378.2 1691.1 L368.9 1685.6 L358.9 1680.4 L348.1 1675.5 L336.8 1670.9 L324.8 1666.7 L312.2 1662.8 L299.1 1659.2 L285.5 1656.0 L271.4 1653.2 L256.9 1650.8 L241.9 1648.8 L226.6 1647.2 L210.9 1646.1 L194.9 1645.4 Z"/>
<path class="stitch" d="M178.6 1655.1 L178.6 1981.6 L190.4 1983.3 L201.9 1984.4 L213.3 1985.1 L224.4 1985.5 L235.3 1985.4 L246.0 1985.0 L256.5 1984.2 L266.8 1983.2 L277.0 1981.9 L287.1 1980.4 L296.9 1978.7 L306.7 1976.8 L316.3 1974.7 L325.8 1972.6 L335.2 1970.4 L344.5 1968.1 L353.8 1965.8 L362.9 1963.5 L372.0 1961.2 L381.1 1959.1 L390.1 1957.0 L399.0 1955.0 L408.0 1953.2 L416.9 1951.6 L416.8 1942.0 L416.6 1932.8 L416.4 1923.9 L416.2 1915.4 L416.0 1907.1 L415.8 1899.0 L415.6 1891.1 L415.4 1883.4 L415.2 1875.9 L415.0 1868.4 L414.8 1861.0 L414.6 1853.7 L414.4 1846.3 L414.2 1838.9 L414.0 1831.5 L413.8 1823.9 L413.7 1816.2 L413.5 1808.4 L413.4 1800.3 L413.3 1792.0 L413.2 1783.4 L413.1 1774.6 L413.1 1765.3 L413.1 1755.7 L412.5 1748.9 L410.9 1742.1 L408.3 1735.5 L404.7 1729.1 L400.1 1722.8 L394.6 1716.7 L388.2 1710.8 L380.9 1705.1 L372.9 1699.6 L364.0 1694.4 L354.5 1689.4 L344.2 1684.7 L333.2 1680.3 L321.6 1676.2 L309.4 1672.4 L296.7 1668.9 L283.4 1665.8 L269.6 1663.1 L255.4 1660.7 L240.7 1658.7 L225.7 1657.2 L210.3 1656.1 L194.6 1655.4 Z"/>
<path class="grain" d="M287.8 1697.3 L287.8 1942.8 M285.8 1701.3 L287.8 1697.3 L289.8 1701.3 M285.8 1938.8 L287.8 1942.8 L289.8 1938.8"/>
<rect class="lbg" x="256.9" y="1811.1" width="61.8" height="25" rx="2"/>
<text class="label" x="287.8" y="1820.1">HOOD SIDE</text>
<text class="sub" x="287.8" y="1827.1">Cut 2 · fleece</text>
<text class="sub" x="287.8" y="1833.1">size M · hood/three_piece</text>
</g>
<!-- hood side  [hood/three_piece]  "a grey hood" -->
<g>
<path class="cut" style="fill:#9a9b9d" d="M711.5 1644.7 L711.5 1987.6 L670.9 1993.2 L659.0 1994.4 L647.3 1995.1 L635.8 1995.5 L624.6 1995.4 L613.6 1995.0 L602.7 1994.2 L592.1 1993.1 L581.7 1991.8 L571.4 1990.2 L561.3 1988.5 L551.4 1986.6 L541.7 1984.5 L532.0 1982.3 L522.5 1980.1 L513.2 1977.8 L503.9 1975.5 L494.8 1973.2 L485.7 1971.0 L476.7 1968.8 L467.9 1966.7 L459.0 1964.8 L450.3 1963.1 L433.0 1960.0 L433.3 1941.9 L433.5 1932.6 L433.7 1923.7 L433.9 1915.1 L434.1 1906.8 L434.3 1898.7 L434.5 1890.9 L434.7 1883.2 L434.9 1875.6 L435.1 1868.1 L435.3 1860.8 L435.5 1853.4 L435.7 1846.1 L435.9 1838.7 L436.1 1831.3 L436.3 1823.7 L436.4 1816.1 L436.6 1808.2 L436.7 1800.2 L436.8 1791.9 L436.9 1783.4 L437.0 1774.5 L437.0 1765.3 L437.0 1755.3 L437.7 1747.3 L439.6 1739.1 L442.8 1731.2 L447.0 1723.7 L452.2 1716.5 L458.4 1709.6 L465.4 1703.2 L473.2 1697.0 L481.9 1691.1 L491.2 1685.6 L501.2 1680.4 L512.0 1675.5 L523.3 1670.9 L535.3 1666.7 L547.9 1662.8 L561.0 1659.2 L574.6 1656.0 L588.7 1653.2 L603.2 1650.8 L618.2 1648.8 L633.5 1647.2 L649.2 1646.1 L665.2 1645.4 Z"/>
<path class="stitch" d="M681.5 1655.1 L681.5 1981.6 L669.7 1983.3 L658.2 1984.4 L646.8 1985.1 L635.7 1985.5 L624.8 1985.4 L614.1 1985.0 L603.6 1984.2 L593.2 1983.2 L583.1 1981.9 L573.0 1980.4 L563.2 1978.7 L553.4 1976.8 L543.8 1974.7 L534.3 1972.6 L524.9 1970.4 L515.6 1968.1 L506.3 1965.8 L497.2 1963.5 L488.1 1961.2 L479.0 1959.1 L470.0 1957.0 L461.1 1955.0 L452.1 1953.2 L443.2 1951.6 L443.3 1942.0 L443.5 1932.8 L443.7 1923.9 L443.9 1915.4 L444.1 1907.1 L444.3 1899.0 L444.5 1891.1 L444.7 1883.4 L444.9 1875.9 L445.1 1868.4 L445.3 1861.0 L445.5 1853.7 L445.7 1846.3 L445.9 1838.9 L446.1 1831.5 L446.3 1823.9 L446.4 1816.2 L446.6 1808.4 L446.7 1800.3 L446.8 1792.0 L446.9 1783.4 L447.0 1774.6 L447.0 1765.3 L447.0 1755.7 L447.6 1748.9 L449.2 1742.1 L451.8 1735.5 L455.4 1729.1 L460.0 1722.8 L465.5 1716.7 L471.9 1710.8 L479.2 1705.1 L487.2 1699.6 L496.0 1694.4 L505.6 1689.4 L515.9 1684.7 L526.9 1680.3 L538.5 1676.2 L550.6 1672.4 L563.4 1668.9 L576.7 1665.8 L590.5 1663.1 L604.7 1660.7 L619.4 1658.7 L634.4 1657.2 L649.8 1656.1 L665.5 1655.4 Z"/>
<path class="grain" d="M572.3 1697.3 L572.3 1942.8 M570.3 1701.3 L572.3 1697.3 L574.3 1701.3 M570.3 1938.8 L572.3 1942.8 L574.3 1938.8"/>
<rect class="lbg" x="541.4" y="1811.1" width="61.8" height="25" rx="2"/>
<text class="label" x="572.3" y="1820.1">HOOD SIDE</text>
<text class="sub" x="572.3" y="1827.1">Cut 2 · fleece</text>
<text class="sub" x="572.3" y="1833.1">size M · hood/three_piece</text>
</g>
<!-- hood centre  [hood/three_piece]  "a grey hood" -->
<g>
<path class="cut" style="fill:#9a9b9d" d="M81.3 1644.7 L142.6 1644.7 L120.9 2154.3 L81.3 2154.3 L41.7 2154.3 L20.0 1644.7 Z"/>
<path class="stitch" d="M81.3 1674.7 L131.3 1674.7 L111.3 2144.3 L81.3 2144.3 L51.3 2144.3 L31.3 1674.7 Z"/>
<path class="centre" d="M81.3 2144.3 L81.3 1674.7"/>
<path class="grain" d="M50.6 1721.1 L50.6 2077.9 M48.6 1725.1 L50.6 1721.1 L52.6 1725.1 M48.6 2073.9 L50.6 2077.9 L52.6 2073.9"/>
<rect class="lbg" x="40.6" y="1890.5" width="81.4" height="25" rx="2"/>
<text class="label" x="81.3" y="1899.5">HOOD CENTRE</text>
<text class="sub" x="81.3" y="1906.5">Cut 1 (unfolded) · fleece</text>
<text class="sub" x="81.3" y="1912.5">size M · hood/three_piece</text>
</g>
<text class="small" x="20.0" y="2178.3">rib · Black · 70 cm wide · 0.43 m long · single layer, right side up, selvedges left and right</text>
<rect class="fabric rib" x="20.0" y="2184.3" width="700.0" height="432.0"/>
<!-- hem band  [body_hem/rib_band]  "make an oversized black hoodie with white sleeves" -->
<g>
<path class="cut" style="fill:#1f1f21" d="M20.0 2184.3 L618.0 2184.3 L618.0 2324.3 L20.0 2324.3 Z"/>
<path class="stitch" d="M30.0 2194.3 L608.0 2194.3 L608.0 2314.3 L30.0 2314.3 Z"/>
<path class="dash" d="M30.0 2254.3 L608.0 2254.3"/>
<path class="grain" d="M319.0 2205.3 L319.0 2303.3 M317.0 2209.3 L319.0 2205.3 L321.0 2209.3 M317.0 2299.3 L319.0 2303.3 L321.0 2299.3"/>
<rect class="lbg" x="291.2" y="2245.3" width="55.6" height="25" rx="2"/>
<text class="label" x="319.0" y="2254.3">HEM BAND</text>
<text class="sub" x="319.0" y="2261.3">Cut 2 · rib</text>
<text class="sub" x="319.0" y="2267.3">size M · body_hem/rib_band</text>
</g>
<!-- hem band  [body_hem/rib_band]  "make an oversized black hoodie with white sleeves" -->
<g>
<path class="cut" style="fill:#1f1f21" d="M618.0 2330.3 L20.0 2330.3 L20.0 2470.3 L618.0 2470.3 Z"/>
<path class="stitch" d="M608.0 2340.3 L30.0 2340.3 L30.0 2460.3 L608.0 2460.3 Z"/>
<path class="dash" d="M608.0 2400.3 L30.0 2400.3"/>
<path class="grain" d="M319.0 2351.3 L319.0 2449.3 M317.0 2355.3 L319.0 2351.3 L321.0 2355.3 M317.0 2445.3 L319.0 2449.3 L321.0 2445.3"/>
<rect class="lbg" x="291.2" y="2391.3" width="55.6" height="25" rx="2"/>
<text class="label" x="319.0" y="2400.3">HEM BAND</text>
<text class="sub" x="319.0" y="2407.3">Cut 2 · rib</text>
<text class="sub" x="319.0" y="2413.3">size M · body_hem/rib_band</text>
</g>
<!-- cuff  [sleeve_finish/rib_cuff]  "rib cuffs" -->
<g>
<path class="cut" style="fill:#1f1f21" d="M20.0 2476.3 L227.5 2476.3 L227.5 2616.3 L20.0 2616.3 Z"/>
<path class="stitch" d="M30.0 2486.3 L217.5 2486.3 L217.5 2606.3 L30.0 2606.3 Z"/>
<path class="dash" d="M30.0 2546.3 L217.5 2546.3"/>
<path class="grain" d="M123.8 2497.3 L123.8 2595.3 M121.8 2501.3 L123.8 2497.3 L125.8 2501.3 M121.8 2591.3 L123.8 2595.3 L125.8 2591.3"/>
<rect class="lbg" x="100.8" y="2537.3" width="46.0" height="25" rx="2"/>
<text class="label" x="123.8" y="2546.3">CUFF</text>
<text class="sub" x="123.8" y="2553.3">Cut 2 · rib</text>
<text class="sub" x="123.8" y="2559.3">size M · sleeve_finish/rib_cuff</text>
</g>
<!-- cuff  [sleeve_finish/rib_cuff]  "rib cuffs" -->
<g>
<path class="cut" style="fill:#1f1f21" d="M441.0 2476.3 L233.5 2476.3 L233.5 2616.3 L441.0 2616.3 Z"/>
<path class="stitch" d="M431.0 2486.3 L243.5 2486.3 L243.5 2606.3 L431.0 2606.3 Z"/>
<path class="dash" d="M431.0 2546.3 L243.5 2546.3"/>
<path class="grain" d="M337.2 2497.3 L337.2 2595.3 M335.2 2501.3 L337.2 2497.3 L339.2 2501.3 M335.2 2591.3 L337.2 2595.3 L339.2 2591.3"/>
<rect class="lbg" x="314.2" y="2537.3" width="46.0" height="25" rx="2"/>
<text class="label" x="337.2" y="2546.3">CUFF</text>
<text class="sub" x="337.2" y="2553.3">Cut 2 · rib</text>
<text class="sub" x="337.2" y="2559.3">size M · sleeve_finish/rib_cuff</text>
</g>
</svg>
